<?xml version="1.0" standalone="no"?>
<!DOCTYPE svg PUBLIC "-//W3C//DTD SVG 20010904//EN"
 "http://www.w3.org/TR/2001/REC-SVG-20010904/DTD/svg10.dtd">
<svg version="1.0" xmlns="http://www.w3.org/2000/svg"
 width="2772.000000pt" height="1496.000000pt" viewBox="0 0 2772.000000 1496.000000"
 preserveAspectRatio="xMidYMid meet">

<g transform="translate(0.000000,1496.000000) scale(0.100000,-0.100000)"
fill="#000000" stroke="none">
<path d="M0 7480 l0 -7480 9335 0 9334 0 6 38 c7 41 64 268 95 377 10 39 64
204 120 368 55 164 100 300 100 302 0 2 -45 1 -101 -2 -97 -6 -228 -1 -799 33
-140 8 -305 14 -367 14 -115 0 -213 14 -213 31 0 6 11 21 24 34 49 49 41 87
-33 160 -42 40 -57 31 -21 -15 15 -19 20 -41 20 -96 l0 -72 -62 -25 c-88 -34
-93 -35 -287 -47 -190 -11 -230 -6 -279 35 -15 13 -40 27 -55 30 -15 4 -27 12
-27 17 0 11 -40 47 -53 48 -16 0 -34 -25 -30 -41 6 -21 -22 -29 -55 -17 -13 4
-43 3 -69 -2 -31 -7 -49 -7 -58 0 -9 7 -16 6 -24 -4 -10 -12 -7 -15 16 -18 17
-2 32 -12 40 -28 14 -27 13 -27 64 -16 28 6 45 3 84 -18 53 -28 75 -33 75 -14
0 9 3 9 12 0 15 -15 54 -16 63 -2 3 6 21 10 40 10 19 0 37 -4 40 -10 3 -5 24
-10 45 -10 21 0 42 -5 45 -10 5 -8 11 -8 20 0 9 8 15 8 20 0 3 -5 23 -10 44
-10 20 0 42 -5 49 -12 7 -7 12 -8 12 -2 0 14 163 13 172 0 5 -7 8 -7 8 2 0 6
12 12 28 12 27 0 26 -1 -8 -17 -19 -10 -37 -20 -40 -23 -12 -12 -93 -50 -109
-50 -9 0 -43 -7 -74 -15 -32 -8 -80 -16 -108 -17 -27 -1 -49 -6 -49 -11 0 -12
-464 2 -549 17 -58 11 -247 126 -243 149 3 18 -70 72 -112 83 -14 3 -29 10
-32 15 -3 5 -12 9 -21 9 -13 0 -12 -4 6 -24 l22 -24 -25 0 c-14 0 -26 4 -26 9
0 5 -8 9 -18 9 -22 0 -72 22 -72 33 0 4 -7 7 -16 7 -28 0 -103 51 -148 101
-70 78 -163 281 -154 336 1 10 -1 23 -5 30 -12 20 -28 308 -29 538 -1 253 9
318 73 462 11 24 19 45 19 47 0 13 116 206 145 240 47 57 164 176 200 204 17
13 47 39 68 59 l38 35 -20 34 c-11 18 -25 53 -31 76 -19 75 -18 74 -54 35 -25
-28 -42 -37 -65 -37 -40 0 -98 29 -135 68 -21 23 -41 32 -77 37 -30 4 -47 11
-43 17 5 7 -5 9 -25 6 l-33 -5 7 44 c3 23 2 43 -3 43 -17 0 -67 -62 -64 -81 3
-17 -3 -19 -53 -19 -62 0 -102 -17 -205 -86 -75 -50 -152 -67 -257 -54 -119
15 -185 75 -243 227 -28 70 -30 88 -29 178 2 75 -2 108 -14 131 -9 17 -21 62
-27 100 -6 38 -15 99 -22 135 -6 37 -8 89 -4 115 19 132 19 153 1 181 -22 32
-45 116 -45 161 0 18 -10 56 -21 83 -19 44 -21 61 -15 144 6 89 5 98 -19 143
-54 104 -77 313 -50 455 18 94 16 121 -16 249 -33 132 -19 320 36 481 15 45
15 51 0 91 -9 23 -15 60 -13 81 2 32 8 40 29 46 14 3 197 9 406 12 l380 5 104
-105 c57 -58 127 -119 154 -135 28 -16 57 -33 65 -38 8 -4 42 -21 75 -36 82
-37 139 -76 213 -147 37 -35 67 -56 72 -51 5 5 18 30 28 55 l20 46 -40 59
c-85 122 -137 243 -167 387 -21 97 -23 130 -19 332 1 123 6 227 10 230 4 4 28
-11 53 -33 55 -48 98 -70 190 -93 101 -27 207 -33 309 -20 168 23 275 81 322
176 26 54 44 70 44 40 0 -24 49 -174 76 -232 13 -28 24 -54 24 -57 0 -8 55
-129 100 -220 l39 -80 11 30 c7 16 16 54 22 84 23 129 105 329 169 411 26 33
28 42 25 105 -2 38 -4 79 -5 92 -1 29 -22 24 -97 -24 -63 -41 -84 -68 -84
-111 0 -17 -5 -35 -10 -38 -14 -9 -12 -45 3 -45 9 0 8 -3 -2 -9 -7 -5 -10 -14
-6 -21 4 -6 0 -19 -8 -28 -9 -10 -17 -40 -20 -67 -3 -38 -4 -32 -5 27 -1 44
-7 80 -13 84 -18 11 -5 112 22 169 29 63 96 159 143 204 44 42 44 42 11 270
l-26 174 23 24 c36 39 148 109 201 127 113 38 276 42 380 9 83 -26 105 -78
127 -297 17 -167 38 -226 81 -226 22 0 23 3 53 185 56 339 69 404 95 482 28
83 86 187 138 253 42 52 174 183 207 205 16 11 40 29 55 41 95 76 281 162 461
214 l45 14 -40 7 c-22 4 -59 8 -82 8 -59 1 -73 9 -73 40 0 37 29 232 37 244 6
10 251 0 268 -12 10 -6 153 -11 316 -10 57 0 99 -4 103 -10 4 -6 20 -8 36 -5
32 7 509 -14 523 -23 5 -3 66 -4 135 -4 104 2 132 5 157 21 24 15 99 94 137
145 4 6 20 25 35 44 130 160 224 312 235 376 3 17 19 84 36 150 40 161 61 279
88 501 l17 140 -35 50 c-19 27 -69 117 -111 200 -79 156 -87 183 -102 350 -4
40 -1 139 5 220 7 82 13 160 14 174 1 21 -4 25 -34 27 -115 9 -170 115 -170
323 0 58 7 150 16 205 8 55 19 168 24 250 4 83 13 173 19 202 14 69 62 171 99
210 22 23 28 38 25 57 -3 16 0 28 8 31 10 4 13 21 10 62 -3 55 34 216 61 267
28 52 51 92 60 103 6 7 5 14 -3 19 -9 5 -7 11 5 20 11 7 15 18 10 25 -5 9 -2
10 10 6 15 -6 17 -2 13 21 -2 15 -2 21 0 15 6 -16 16 -16 31 -1 16 16 15 28
-3 28 -19 0 -20 24 -1 39 11 9 15 9 18 -1 7 -20 33 11 58 70 12 28 28 57 36
63 8 6 14 18 14 26 0 8 9 26 20 41 13 16 20 38 18 58 -1 20 5 41 15 52 9 10
17 24 17 30 0 6 9 16 21 22 11 7 18 18 15 25 -3 8 22 43 59 82 39 42 64 62 65
52 0 -9 10 -19 23 -23 l22 -6 -23 -16 c-13 -9 -29 -13 -37 -10 -12 4 -12 1 -3
-19 6 -13 18 -26 27 -29 9 -3 5 -4 -9 -4 -37 1 -60 -12 -71 -38 -4 -13 -15
-24 -23 -24 -8 0 -18 -9 -21 -20 -3 -11 -10 -20 -15 -20 -9 0 -20 -36 -13 -44
3 -2 16 0 29 6 37 17 39 3 5 -33 -17 -17 -31 -36 -31 -42 0 -5 -11 -22 -25
-36 -55 -56 -115 -139 -115 -158 0 -11 -7 -26 -15 -33 -8 -7 -15 -20 -15 -28
0 -9 -10 -27 -23 -41 -32 -36 -59 -99 -46 -107 6 -4 3 -11 -9 -20 -11 -7 -20
-24 -19 -37 0 -13 -8 -33 -18 -45 -10 -11 -24 -38 -31 -59 -12 -33 -12 -39 2
-50 14 -10 15 -21 7 -68 l-10 -55 26 16 c67 43 159 138 201 205 25 39 56 84
70 99 14 16 39 43 55 61 l30 34 3 -27 c3 -28 16 -36 27 -19 3 5 1 12 -5 16 -5
3 -10 20 -10 36 0 23 12 43 50 81 28 28 50 59 50 68 0 10 7 23 15 30 8 7 15
18 15 25 0 12 73 85 85 85 12 0 2 -19 -35 -69 -37 -49 -55 -101 -29 -85 24 14
-11 -33 -61 -84 -31 -31 -48 -57 -44 -64 5 -8 16 0 33 22 22 29 89 96 226 229
44 43 133 111 144 111 5 0 22 10 38 23 15 13 42 29 60 36 18 7 38 19 44 27 6
8 22 14 35 14 12 0 26 5 29 10 3 6 13 10 21 10 8 0 14 -4 14 -10 0 -5 -6 -10
-14 -10 -7 0 -19 -7 -26 -15 -7 -8 -8 -15 -3 -15 18 0 63 25 63 35 0 6 19 10
43 11 23 1 59 11 80 23 21 11 49 21 62 21 28 0 32 18 14 69 -6 17 -8 39 -4 49
6 14 9 13 22 -12 8 -15 17 -42 19 -60 2 -17 6 -44 10 -59 5 -21 3 -28 -7 -27
-8 2 -25 2 -38 1 -42 -2 -4 -31 40 -31 36 0 53 6 99 32 8 4 22 11 30 15 25 11
40 31 40 51 0 10 9 27 20 37 11 10 20 25 20 32 0 19 80 103 97 103 17 0 17
-15 -1 -29 -10 -9 -14 -30 -13 -66 2 -43 -2 -58 -20 -77 -27 -29 -29 -41 -7
-59 9 -7 13 -21 10 -35 -4 -13 0 -27 9 -34 19 -16 19 -30 0 -30 -8 0 -15 -4
-15 -9 0 -5 7 -14 15 -21 8 -7 15 -19 15 -26 0 -8 5 -14 10 -14 6 0 10 -6 10
-13 0 -8 11 -24 25 -37 14 -13 25 -29 25 -35 0 -6 43 -54 96 -106 85 -84 184
-211 184 -238 0 -5 10 -22 23 -38 26 -32 61 -103 71 -148 4 -16 19 -59 33 -94
31 -81 51 -202 64 -390 5 -80 12 -170 15 -198 6 -50 5 -53 -21 -63 -14 -5 -36
-10 -49 -10 -12 0 -32 -9 -43 -20 -12 -11 -40 -22 -62 -26 -45 -7 -54 1 -18
16 38 16 -93 5 -136 -12 -30 -12 -77 -48 -77 -60 0 -4 70 -1 184 7 79 6 96 5
96 -7 0 -9 13 -14 40 -15 93 -4 145 -78 83 -118 -26 -17 -30 -17 -109 4 -91
23 -114 26 -114 11 0 -5 14 -10 30 -10 17 0 30 -4 30 -8 0 -5 10 -14 23 -20
19 -9 17 -10 -13 -5 -19 3 -43 10 -52 14 -31 16 -114 9 -189 -17 -96 -33 -139
-53 -139 -64 0 -12 23 -13 35 -2 13 11 87 32 114 32 13 0 25 -9 31 -22 5 -13
9 -17 9 -10 1 6 12 12 25 12 20 0 24 -5 22 -31 -2 -44 29 -64 68 -44 37 20 39
19 32 -10 -5 -20 -3 -23 11 -18 10 3 27 14 39 25 37 33 50 -19 14 -57 -18 -19
-19 -24 -6 -34 24 -20 70 -30 81 -17 18 21 35 55 35 70 0 8 3 16 7 18 5 2 17
21 28 43 21 42 93 121 134 146 l25 16 -13 149 c-7 82 -16 151 -22 152 -5 2 -9
14 -9 26 0 13 -3 25 -6 29 -3 3 -8 52 -10 109 -6 160 -15 262 -25 274 -5 6 -4
15 1 20 6 6 4 30 -6 64 -9 30 -18 66 -21 80 -6 35 -26 73 -41 83 -7 5 -10 12
-7 17 3 5 -6 20 -20 34 -14 14 -25 30 -25 37 0 6 -21 55 -46 108 -70 146 -84
180 -84 210 0 15 -4 31 -9 37 -13 14 -23 84 -12 84 5 0 12 -6 15 -12 3 -7 3
-3 0 10 -4 15 -1 22 10 22 8 0 17 -4 20 -9 3 -5 15 -11 26 -14 16 -4 18 -2 10
13 -6 11 -6 21 -1 24 16 10 36 -4 54 -37 10 -17 36 -52 57 -76 22 -24 42 -57
45 -73 8 -35 25 -37 25 -2 0 36 21 26 45 -22 26 -52 25 -51 39 -31 16 21 26
22 26 3 0 -8 7 -16 15 -20 10 -3 15 1 15 14 0 33 16 30 30 -5 16 -41 30 -45
30 -9 0 43 20 16 21 -29 2 -30 3 -34 6 -14 6 36 23 35 23 -2 0 -17 5 -33 10
-36 6 -3 10 -23 10 -44 0 -20 6 -43 12 -49 10 -10 10 -17 0 -32 -6 -11 -12
-39 -12 -63 0 -24 -5 -48 -10 -53 -7 -7 -6 -20 4 -40 7 -16 17 -41 20 -56 5
-24 3 -28 -14 -28 -11 0 -20 -7 -20 -15 0 -8 -5 -15 -11 -15 -7 0 -9 10 -5 25
4 16 -1 38 -14 62 l-20 38 0 -61 c0 -33 4 -64 10 -70 5 -5 12 -41 15 -79 6
-69 28 -245 41 -318 4 -24 2 -43 -6 -52 -9 -10 -9 -15 -1 -15 6 0 11 -9 11
-20 0 -11 -4 -20 -9 -20 -10 0 2 -49 19 -81 5 -10 4 -21 -3 -28 -9 -9 -8 -16
1 -31 7 -11 8 -20 3 -20 -10 0 -20 -77 -13 -97 2 -7 19 -13 37 -13 32 0 33 2
40 48 10 73 11 172 1 367 -5 99 -8 207 -7 240 1 33 -3 75 -9 94 -5 19 -6 39
-2 45 10 13 8 154 -2 163 -3 4 -6 28 -6 54 0 26 -5 51 -10 54 -6 3 -10 28 -10
54 0 31 -5 53 -15 61 -17 14 -21 100 -5 100 6 0 10 -4 10 -10 0 -5 7 -10 15
-10 8 0 15 -7 15 -15 0 -8 5 -15 10 -15 6 0 10 -6 10 -13 0 -8 9 -22 20 -32
11 -10 20 -26 20 -36 0 -10 10 -35 22 -56 20 -35 21 -53 22 -208 1 -127 5
-178 16 -202 8 -18 18 -33 22 -33 5 0 8 -50 8 -110 0 -61 4 -118 9 -128 14
-26 50 -171 57 -227 3 -27 15 -81 26 -118 15 -49 19 -82 14 -116 -5 -39 -2
-56 19 -97 26 -51 31 -69 16 -60 -9 6 -25 -6 -60 -46 -26 -30 -44 -107 -42
-180 1 -25 -3 -49 -9 -53 -5 -3 -10 -16 -10 -29 0 -12 -5 -27 -12 -34 -9 -9
-9 -15 0 -24 9 -9 12 -8 12 5 0 10 9 25 20 34 14 12 16 20 9 29 -7 9 -4 24 10
51 16 30 20 34 21 16 0 -36 14 -34 56 5 47 43 64 78 57 115 -3 16 -1 27 6 27
6 0 11 -9 11 -19 0 -37 32 -34 67 6 29 32 36 36 52 26 14 -9 22 -8 34 4 14 15
18 15 41 -1 38 -24 36 -95 -4 -172 -16 -32 -28 -60 -25 -62 4 -4 81 52 95 68
22 27 378 287 550 403 291 195 511 324 850 500 85 44 165 86 176 93 19 11 22
25 26 101 6 109 47 221 123 338 112 172 259 284 459 349 71 23 94 26 236 26
110 0 178 -5 222 -16 93 -23 235 -96 312 -161 115 -97 92 -92 231 -52 78 22
366 87 440 98 l40 6 3 903 2 902 -13860 0 -13860 0 0 -7480z m22706 7030 c-21
-4 -41 -11 -45 -16 -3 -5 -19 -9 -36 -9 -24 0 -29 -4 -27 -20 3 -16 1 -18 -9
-7 -7 6 -22 12 -33 12 -16 0 -17 3 -8 12 21 21 76 36 137 36 54 0 56 -1 21 -8z
m-210 -51 c3 -6 2 -15 -3 -20 -12 -12 -145 10 -137 23 8 12 132 10 140 -3z
m-18058 -58 c9 -5 39 -19 65 -32 118 -56 187 -169 187 -306 0 -135 -62 -239
-178 -301 -56 -30 -66 -32 -161 -32 -56 0 -109 4 -119 9 -71 35 -92 48 -127
82 -22 21 -48 55 -59 76 -10 21 -22 46 -27 55 -5 10 -9 58 -9 108 0 73 4 100
24 143 34 78 87 132 170 172 61 30 81 35 144 35 40 0 80 -4 90 -9z m18608 -26
c-36 -19 -57 -19 -32 0 11 8 29 15 40 15 18 0 16 -3 -8 -15z m-956 -20 c-7 -8
-17 -15 -22 -15 -22 0 -88 -64 -88 -85 0 -17 -8 -24 -31 -29 -17 -3 -43 -15
-59 -26 -15 -11 -32 -20 -37 -20 -5 0 -19 -11 -31 -25 -12 -14 -28 -25 -36
-25 -8 0 -36 -15 -64 -33 -59 -41 -80 -49 -87 -37 -6 9 45 46 130 95 49 28 69
43 189 138 33 26 67 47 75 47 9 0 25 7 35 15 26 19 42 19 26 0z m790 -51 c0
-9 6 -11 18 -7 15 6 15 5 4 -10 -12 -14 -16 -14 -28 -2 -8 7 -14 20 -14 29 0
8 -4 18 -10 21 -5 3 -10 12 -10 18 1 16 40 -32 40 -49z m80 31 c-13 -14 -28
-25 -34 -25 -11 1 40 50 51 50 4 0 -4 -11 -17 -25z m185 -5 c0 -22 -29 -18
-33 3 -3 14 1 18 15 15 10 -2 18 -10 18 -18z m-891 -36 c9 -24 7 -28 -9 -14
-17 14 -20 30 -6 30 5 0 12 -7 15 -16z m-164 -14 c11 -7 7 -10 -17 -10 -18 0
-33 5 -33 10 0 13 30 13 50 0z m100 0 c0 -5 -4 -10 -10 -10 -5 0 -10 5 -10 10
0 6 5 10 10 10 6 0 10 -4 10 -10z m-180 -40 c0 -5 -4 -10 -10 -10 -5 0 -10 5
-10 10 0 6 5 10 10 10 6 0 10 -4 10 -10z m222 -37 c21 -19 23 -33 5 -33 -20 0
-88 50 -82 60 7 11 53 -5 77 -27z m-20414 -8 c23 -4 45 -11 48 -16 3 -5 14 -9
25 -9 10 0 27 -4 37 -8 120 -59 172 -86 172 -93 0 -4 9 -10 19 -14 24 -7 145
-125 186 -180 17 -22 32 -42 35 -45 6 -6 56 -111 72 -150 6 -14 14 -33 19 -42
5 -10 9 -29 9 -42 0 -14 5 -28 10 -31 6 -3 10 -31 10 -61 0 -30 5 -54 10 -54
6 0 10 -30 10 -70 0 -40 -4 -70 -10 -70 -5 0 -10 -19 -10 -42 0 -24 -4 -49 -9
-57 -5 -8 -7 41 -4 116 6 148 -8 237 -58 355 -109 255 -319 429 -586 484 -120
25 -282 15 -398 -24 -143 -48 -218 -95 -325 -202 -108 -108 -155 -183 -201
-325 -113 -342 29 -728 342 -928 73 -46 117 -65 218 -92 46 -12 79 -25 75 -27
-13 -7 -124 15 -124 24 0 4 -8 8 -18 8 -10 0 -36 8 -58 19 -21 10 -57 27 -79
37 -22 10 -42 20 -45 24 -3 3 -23 18 -45 34 -54 39 -156 144 -192 197 -41 60
-103 191 -103 218 0 11 -4 21 -9 21 -15 0 -23 85 -24 235 0 136 5 188 23 230
5 11 16 43 26 70 72 202 273 402 474 470 30 11 59 23 65 27 5 4 23 8 40 8 16
0 37 5 45 10 16 11 254 7 328 -5z m20341 -18 c34 -17 41 -41 10 -32 -45 13
-89 36 -89 47 0 11 40 4 79 -15z m-20765 -165 c7 -12 -33 -54 -89 -92 -71 -48
-184 -166 -222 -230 -32 -55 -51 -103 -74 -190 -19 -75 -41 -110 -67 -110 -73
0 -39 193 59 338 71 103 184 212 264 254 65 34 119 46 129 30z m20871 -92 c14
-6 4 -9 -38 -9 -36 -1 -56 3 -52 9 7 12 62 12 90 0z m-845 -39 c0 -11 5 -23
10 -26 15 -9 12 -35 -3 -35 -7 0 -24 -10 -36 -21 l-23 -22 -23 25 c-26 28 -24
32 23 71 40 32 52 34 52 8z m719 -33 c0 -7 -4 -22 -9 -33 -7 -17 -9 -15 -9 13
-1 17 4 32 9 32 6 0 10 -6 9 -12z m-11781 -33 c23 -4 42 -11 42 -16 0 -5 9 -9
20 -9 11 0 28 -4 38 -8 9 -5 44 -22 77 -37 33 -16 80 -42 105 -59 54 -36 155
-135 196 -191 16 -22 31 -42 35 -45 5 -5 38 -74 66 -140 8 -19 19 -43 24 -52
5 -10 9 -29 9 -42 0 -14 5 -28 10 -31 6 -3 10 -31 10 -61 0 -30 5 -54 10 -54
6 0 10 -30 10 -70 0 -38 -4 -70 -9 -70 -5 0 -11 -24 -15 -52 -11 -93 -18 -128
-27 -128 -5 0 -9 -11 -9 -25 0 -14 -4 -25 -10 -25 -5 0 -10 -6 -10 -13 0 -19
-48 -115 -80 -162 -53 -75 -202 -215 -229 -215 -6 0 -11 -4 -11 -8 0 -10 -151
-82 -173 -82 -9 0 -17 -4 -17 -8 0 -11 -108 -29 -123 -20 -7 5 -2 8 15 8 15 0
30 4 33 10 3 5 23 17 43 26 227 99 376 233 475 429 40 81 77 171 77 191 0 27
20 14 21 -13 3 -54 18 60 18 138 2 152 -37 303 -110 426 -40 67 -153 190 -218
237 -208 151 -463 192 -711 116 -433 -134 -674 -610 -523 -1034 72 -201 211
-359 398 -452 117 -58 224 -85 346 -87 79 -1 94 -4 80 -14 -19 -15 -131 -17
-131 -3 0 6 -14 10 -30 10 -45 0 -160 23 -160 32 0 5 -8 8 -18 8 -10 0 -36 8
-58 19 -21 10 -57 27 -79 37 -22 10 -42 20 -45 24 -3 3 -23 18 -45 34 -54 39
-156 144 -192 197 -41 60 -103 191 -103 218 0 11 -4 21 -9 21 -15 0 -24 91
-24 235 1 145 9 221 24 231 5 3 9 14 9 25 0 10 4 27 10 37 5 9 17 35 26 57 28
63 109 179 164 235 56 55 172 136 235 164 22 9 48 21 57 26 10 6 27 10 37 10
11 0 23 5 26 10 3 6 21 10 38 10 18 0 39 5 47 10 16 11 264 7 338 -5z m11042
-61 c0 -2 -7 -4 -15 -4 -8 0 -15 4 -15 10 0 5 7 7 15 4 8 -4 15 -8 15 -10z
m35 6 c3 -5 1 -10 -4 -10 -6 0 -11 5 -11 10 0 6 2 10 4 10 3 0 8 -4 11 -10z
m2500 0 c3 -5 1 -10 -4 -10 -6 0 -11 5 -11 10 0 6 2 10 4 10 3 0 8 -4 11 -10z
m-17745 -58 c0 -5 11 -15 25 -22 14 -7 25 -17 25 -21 0 -4 -17 2 -37 13 -47
24 -85 18 -119 -19 -44 -49 -57 -82 -50 -127 7 -38 6 -40 -8 -21 -9 12 -15 42
-16 76 0 49 4 60 26 80 14 13 31 29 37 36 13 14 117 18 117 5z m16693 -39 c-7
-2 -21 -2 -30 0 -10 3 -4 5 12 5 17 0 24 -2 18 -5z m87 -23 c14 -11 20 -20 14
-20 -21 0 -74 22 -74 31 0 16 34 9 60 -11z m-13046 -8 c8 -13 -26 -48 -99
-102 -85 -64 -154 -134 -201 -204 -37 -56 -74 -147 -74 -183 0 -12 -4 -25 -10
-28 -5 -3 -10 -15 -10 -25 0 -34 -33 -80 -58 -80 -47 0 -52 95 -9 210 46 125
212 321 320 377 70 37 130 52 141 35z m12576 4 c0 -3 -4 -8 -10 -11 -5 -3 -10
-1 -10 4 0 6 5 11 10 11 6 0 10 -2 10 -4z m-16260 -146 c0 -5 -5 -10 -11 -10
-5 0 -7 5 -4 10 3 6 8 10 11 10 2 0 4 -4 4 -10z m15000 0 c0 -5 -18 -21 -41
-36 -22 -14 -48 -38 -57 -55 -10 -16 -23 -29 -29 -29 -19 0 -16 12 10 35 13
11 36 37 51 58 26 34 66 51 66 27z m70 -20 c0 -5 -4 -10 -10 -10 -5 0 -10 5
-10 10 0 6 5 10 10 10 6 0 10 -4 10 -10z m1970 -25 c0 -5 -5 -3 -10 5 -5 8
-10 20 -10 25 0 6 5 3 10 -5 5 -8 10 -19 10 -25z m-2263 -47 c-3 -8 -6 -5 -6
6 -1 11 2 17 5 13 3 -3 4 -12 1 -19z m477 -13 c-7 -16 -24 -21 -24 -6 0 8 7
13 27 20 1 1 0 -6 -3 -14z m-509 -44 c-14 -13 -16 -13 -11 -1 3 8 9 24 13 35
7 19 7 19 11 1 2 -10 -4 -26 -13 -35z m275 29 c0 -5 -4 -10 -10 -10 -5 0 -10
5 -10 10 0 6 5 10 10 10 6 0 10 -4 10 -10z m2100 -100 c0 -8 -11 5 -25 29 -14
23 -25 52 -25 64 0 13 9 3 25 -29 14 -27 25 -56 25 -64z m-2070 87 c0 -14 -20
-37 -32 -37 -4 0 -2 11 4 25 12 27 28 34 28 12z m140 -31 c0 -8 -7 -16 -15
-20 -13 -4 -14 -2 -5 14 13 23 20 26 20 6z m-210 -8 c0 -7 -16 -31 -36 -53
-30 -34 -34 -36 -28 -15 6 20 52 80 61 80 2 0 3 -6 3 -12z m-250 -8 c0 -5 -5
-10 -11 -10 -5 0 -7 5 -4 10 3 6 8 10 11 10 2 0 4 -4 4 -10z m-16060 -60 c0
-5 5 -10 11 -10 10 0 39 -24 39 -33 0 -3 -17 4 -37 15 -24 12 -49 17 -66 14
-28 -6 -70 -48 -95 -95 -16 -30 -9 -90 10 -103 8 -5 9 -8 2 -8 -23 0 -44 49
-44 104 0 45 4 58 26 77 14 13 31 29 37 36 14 15 117 17 117 3z m-2475 -62 c5
-36 4 -53 -4 -56 -6 -2 -11 -15 -11 -28 0 -13 -4 -24 -10 -24 -5 0 -10 -6 -10
-13 0 -19 -47 -115 -81 -163 -66 -97 -239 -244 -306 -260 -13 -4 -23 -10 -23
-15 0 -5 -7 -9 -15 -9 -8 0 -23 -4 -33 -9 -54 -28 -144 -51 -197 -51 -19 0
-35 -4 -35 -10 0 -6 -28 -10 -65 -10 -36 0 -65 4 -65 9 0 5 -6 11 -12 14 -7 2
-6 3 3 2 8 -1 64 2 125 6 78 6 112 13 120 24 6 8 18 15 26 15 8 0 18 4 24 8 5
5 25 15 44 22 19 8 71 37 115 65 173 112 288 260 367 473 12 34 26 62 30 62 3
0 9 -23 13 -52z m21724 -115 c1 -13 -3 -23 -9 -23 -5 0 -10 21 -9 48 1 38 2
42 9 22 4 -14 8 -35 9 -47z m-19199 -33 c0 -5 -5 -10 -11 -10 -5 0 -7 5 -4 10
3 6 8 10 11 10 2 0 4 -4 4 -10z m18890 -175 c0 -8 -4 -15 -10 -15 -5 0 -10 7
-10 15 0 8 5 15 10 15 6 0 10 -7 10 -15z m-450 -306 c0 -16 -4 -29 -10 -29 -5
0 -10 16 -10 36 0 21 4 33 10 29 6 -3 10 -19 10 -36z m727 -211 c-3 -8 -6 -5
-6 6 -1 11 2 17 5 13 3 -3 4 -12 1 -19z m-7 -47 c0 -11 -4 -23 -10 -26 -6 -4
-10 5 -10 19 0 14 5 26 10 26 6 0 10 -9 10 -19z m-970 -156 c0 -8 -4 -15 -10
-15 -5 0 -10 7 -10 15 0 8 5 15 10 15 6 0 10 -7 10 -15z m860 -210 c0 -14 -4
-25 -10 -25 -5 0 -10 11 -10 25 0 14 5 25 10 25 6 0 10 -11 10 -25z m-1187
-166 c4 -14 0 -19 -13 -19 -19 0 -30 17 -23 37 7 17 30 5 36 -18z m944 -131
c-3 -8 -6 -5 -6 6 -1 11 2 17 5 13 3 -3 4 -12 1 -19z m-22532 -1308 c3 -5 17
-10 31 -10 13 0 32 -4 42 -9 9 -5 31 -15 47 -22 17 -8 32 -16 35 -19 3 -3 17
-13 33 -23 15 -10 27 -22 27 -28 0 -5 -15 1 -32 15 -65 48 -135 70 -233 70
-103 0 -169 -21 -246 -78 -40 -29 -119 -130 -119 -152 0 -4 25 20 55 54 65 71
111 102 151 101 l29 0 -30 -22 c-64 -47 -133 -127 -150 -174 -10 -26 -22 -60
-27 -75 -6 -17 -18 -28 -29 -28 -15 0 -19 8 -20 43 l-1 42 -10 -53 c-19 -107
23 -237 103 -321 23 -24 33 -38 21 -32 -27 14 -102 100 -102 117 0 8 -4 14
-10 14 -5 0 -10 9 -10 19 0 11 -4 23 -10 26 -5 3 -10 19 -10 35 0 16 -4 32
-10 35 -5 3 -10 33 -10 65 0 32 5 62 10 65 6 3 10 17 10 31 0 13 4 32 9 42 5
9 17 35 27 56 24 51 119 146 170 170 21 10 47 22 56 27 10 5 31 9 48 9 16 0
30 5 30 10 0 6 26 10 59 10 33 0 63 -4 66 -10z m362 -432 c-2 -13 -4 -3 -4 22
0 25 2 35 4 23 2 -13 2 -33 0 -45z m-28 -100 c-23 -103 -129 -218 -238 -258
-40 -14 -50 -15 -41 -4 7 8 17 14 22 14 13 0 98 59 130 90 31 32 108 148 108
165 0 9 19 35 26 35 1 0 -2 -19 -7 -42z m-371 -295 c-10 -2 -28 -2 -40 0 -13
2 -5 4 17 4 22 1 32 -1 23 -4z m580 -1858 c23 -4 45 -11 48 -16 3 -5 13 -9 23
-9 9 0 41 -11 69 -25 29 -14 55 -25 58 -25 3 0 39 -23 79 -51 68 -47 205 -179
205 -197 0 -5 8 -17 18 -28 25 -27 92 -162 92 -185 0 -10 5 -19 10 -19 6 0 10
-15 10 -34 0 -19 5 -38 10 -41 6 -3 10 -28 10 -55 0 -27 5 -52 10 -55 12 -8
13 -138 1 -150 -5 -6 -11 -30 -14 -55 -9 -76 -20 -118 -48 -172 -5 -10 -9 -25
-9 -33 0 -8 -4 -15 -9 -15 -5 0 -11 -10 -15 -23 -25 -101 -262 -338 -363 -363
-13 -4 -23 -10 -23 -15 0 -5 -7 -9 -15 -9 -8 0 -23 -4 -33 -9 -54 -28 -96 -39
-172 -48 -25 -3 -49 -9 -55 -14 -12 -12 -142 -11 -150 1 -3 6 -28 10 -55 10
-27 0 -52 5 -55 10 -3 6 -19 10 -35 10 -16 0 -32 5 -35 10 -3 6 -17 10 -31 10
-13 0 -24 5 -24 10 0 6 -7 10 -16 10 -20 0 -111 48 -138 73 -11 9 -23 17 -28
17 -14 0 -138 123 -176 174 -20 28 -39 53 -42 56 -3 3 -14 23 -24 45 -10 22
-27 58 -37 79 -11 22 -19 48 -19 57 0 10 -4 20 -9 23 -24 15 -39 310 -20 396
48 221 162 398 334 521 55 40 178 99 240 117 22 6 56 15 75 21 37 10 287 8
358 -4z m14655 -30 c-3 -17 -29 -29 -48 -21 -14 5 -15 9 -5 22 14 16 56 16 53
-1z m-328 -157 c-4 -13 -11 -48 -15 -78 -4 -30 -13 -66 -19 -80 -9 -21 -10
-14 -5 35 11 109 20 145 36 145 6 0 7 -9 3 -22z m-85 -153 c0 -8 -4 -15 -10
-15 -5 0 -7 7 -4 15 4 8 8 15 10 15 2 0 4 -7 4 -15z m-29 -107 c-7 -21 -18
-38 -25 -38 -11 0 -9 14 8 62 16 47 22 56 24 38 2 -13 -1 -41 -7 -62z m60 39
c-8 -8 -11 -7 -11 4 0 20 13 34 18 19 3 -7 -1 -17 -7 -23z m709 -28 c0 -5 -4
-9 -10 -9 -5 0 -10 7 -10 16 0 8 5 12 10 9 6 -3 10 -10 10 -16z m-783 -111
c-7 -47 -27 -98 -40 -98 -16 0 -19 32 -3 49 9 10 16 29 16 42 0 22 16 49 28
49 3 0 2 -19 -1 -42z m810 10 c-3 -8 -6 -5 -6 6 -1 11 2 17 5 13 3 -3 4 -12 1
-19z m289 -536 c-12 -12 -18 8 -10 35 l8 28 4 -28 c2 -16 1 -31 -2 -35z
m-11151 -1582 c3 -5 16 -10 27 -10 23 0 90 -21 98 -31 3 -3 12 -9 20 -13 27
-12 -23 2 -70 19 -68 25 -207 16 -283 -18 -76 -34 -169 -127 -204 -204 -24
-50 -27 -71 -28 -158 0 -55 3 -118 7 -140 4 -22 5 -31 2 -20 -3 11 -10 24 -15
29 -5 6 -9 25 -9 43 0 18 -4 33 -10 33 -5 0 -10 25 -10 55 0 30 5 55 10 55 6
0 10 14 10 30 0 17 4 38 9 48 5 9 19 39 32 65 29 61 105 137 166 166 26 13 56
27 65 32 10 5 31 9 48 9 16 0 30 5 30 10 0 6 22 10 49 10 28 0 53 -4 56 -10z
m-185 -109 c0 -5 -12 -17 -27 -26 -76 -48 -163 -176 -163 -239 0 -18 -27 -39
-40 -31 -17 11 -11 72 11 112 43 77 82 125 127 158 44 32 92 46 92 26z m530
-423 c0 -34 -62 -137 -107 -180 -57 -52 -126 -91 -151 -85 -12 3 -10 5 6 6 12
0 22 5 22 9 0 4 13 15 29 25 15 9 44 31 64 49 38 36 117 153 117 175 0 7 5 13
10 13 6 0 10 -6 10 -12z m-820 -2056 c0 -4 -35 -13 -77 -20 -216 -34 -348
-175 -367 -391 -7 -69 -26 -76 -26 -8 0 31 5 57 10 57 6 0 10 14 10 30 0 17 4
38 9 48 5 9 16 32 23 50 7 17 16 32 20 32 5 0 8 6 8 13 0 21 110 122 155 141
22 10 48 22 57 27 10 5 31 9 48 9 16 0 30 5 30 10 0 6 23 10 50 10 28 0 50 -3
50 -8z m75 -22 c8 -13 -5 -13 -25 0 -13 8 -13 10 2 10 9 0 20 -4 23 -10z m52
-16 c-3 -3 -12 -4 -19 -1 -8 3 -5 6 6 6 11 1 17 -2 13 -5z m-309 -73 c-1 -5
-23 -24 -48 -43 -63 -48 -112 -117 -133 -187 -23 -76 -57 -94 -57 -31 0 72 96
207 184 257 25 14 59 17 54 4z m-3238 -219 c0 -5 11 -15 25 -22 14 -7 25 -17
25 -21 0 -4 -17 2 -37 13 -47 24 -85 18 -119 -19 -44 -49 -57 -82 -50 -127 7
-38 6 -40 -8 -21 -9 12 -15 42 -16 76 0 49 4 60 26 80 14 13 31 29 37 36 13
14 117 18 117 5z m2990 -212 c0 -13 -1 -13 -10 0 -5 8 -10 22 -10 30 0 13 1
13 10 0 5 -8 10 -22 10 -30z m780 7 c0 -32 -64 -138 -109 -180 -55 -51 -124
-90 -149 -84 -12 3 -10 5 6 6 12 0 22 6 22 11 0 6 4 10 10 10 32 0 140 116
175 188 29 59 45 76 45 49z m-3720 -7 c0 -5 -5 -10 -11 -10 -5 0 -7 5 -4 10 3
6 8 10 11 10 2 0 4 -4 4 -10z m2947 -42 c-3 -8 -6 -5 -6 6 -1 11 2 17 5 13 3
-3 4 -12 1 -19z m-2347 -286 c0 -5 11 -15 25 -22 14 -7 25 -17 25 -21 0 -4
-17 2 -37 13 -47 24 -85 18 -119 -19 -44 -49 -57 -82 -50 -127 7 -38 6 -40 -8
-21 -9 12 -15 42 -16 76 0 49 4 60 26 80 14 13 31 29 37 36 13 14 117 18 117
5z m50 -212 c0 -5 -5 -10 -11 -10 -5 0 -7 5 -4 10 3 6 8 10 11 10 2 0 4 -4 4
-10z"/>
<path d="M4278 14354 c-10 -3 -18 -12 -18 -21 0 -8 -30 -42 -66 -76 -63 -58
-94 -108 -94 -148 0 -12 -10 -21 -26 -25 -26 -7 -26 -9 -21 -64 10 -110 94
-220 194 -254 56 -19 159 -21 201 -3 99 42 170 121 208 232 40 119 -36 274
-165 337 -45 22 -169 35 -213 22z"/>
<path d="M1495 7613 c-220 -27 -440 -166 -562 -355 -79 -123 -118 -237 -129
-381 -31 -400 259 -773 654 -842 130 -23 300 -15 310 14 2 6 11 11 21 11 9 0
21 4 27 8 5 5 25 15 44 22 56 22 191 113 245 166 103 100 192 237 225 344 7
25 17 49 22 55 4 5 8 17 8 27 0 26 20 22 21 -4 1 -13 6 0 11 27 5 28 6 96 3
151 -18 327 -226 607 -531 717 -110 40 -251 55 -369 40z m-150 -153 c7 -11
-41 -61 -90 -95 -73 -50 -180 -156 -191 -187 -3 -10 -9 -18 -13 -18 -4 0 -20
-28 -35 -62 -16 -35 -32 -71 -37 -80 -5 -10 -9 -26 -9 -35 0 -20 -25 -95 -41
-125 -6 -11 -21 -18 -38 -18 -36 0 -45 28 -35 117 16 156 203 401 367 483 61
30 111 38 122 20z"/>
<path d="M22451 13744 c0 -11 3 -14 6 -6 3 7 2 16 -1 19 -3 4 -6 -2 -5 -13z"/>
<path d="M21692 13448 c-12 -15 -33 -90 -27 -96 8 -8 85 60 79 69 -3 6 0 16 6
24 10 13 8 15 -18 15 -16 0 -34 -6 -40 -12z"/>
<path d="M21790 13445 c-10 -12 -10 -15 3 -15 8 0 20 7 27 15 10 12 10 15 -3
15 -8 0 -20 -7 -27 -15z"/>
<path d="M21612 13375 c-7 -14 -12 -36 -11 -48 0 -22 0 -22 17 2 17 24 24 71
12 71 -4 0 -12 -11 -18 -25z"/>
<path d="M21520 13299 c-19 -22 -40 -45 -46 -52 -18 -21 -36 -58 -30 -64 3 -3
24 11 47 31 24 20 46 36 50 36 11 0 30 73 21 81 -4 4 -23 -11 -42 -32z"/>
<path d="M26390 13160 c-30 -5 -81 -16 -112 -26 -49 -14 -55 -19 -42 -31 30
-30 8 -60 -110 -149 -99 -73 -183 -177 -225 -277 -17 -42 -31 -80 -31 -86 0
-7 15 -4 38 6 20 8 46 19 57 23 11 5 41 17 67 29 26 12 51 21 54 21 3 0 22 7
42 16 21 9 47 20 60 25 12 5 32 13 45 19 21 10 167 63 217 80 231 78 496 172
503 179 11 11 -107 90 -186 125 -104 46 -252 64 -377 46z"/>
<path d="M21333 13106 c-12 -13 -29 -36 -38 -50 -16 -24 -16 -26 -1 -26 17 0
69 75 64 91 -2 6 -13 -1 -25 -15z"/>
<path d="M21251 13006 c-16 -19 -11 -29 8 -17 7 5 12 14 9 21 -3 9 -8 7 -17
-4z"/>
<path d="M21118 12898 c-129 -128 -308 -318 -308 -328 0 -17 20 -11 43 14 12
13 32 26 44 30 12 4 33 22 45 39 43 61 78 98 211 225 42 41 77 78 77 83 0 27
-46 1 -112 -63z"/>
<path d="M23311 12864 c0 -11 3 -14 6 -6 3 7 2 16 -1 19 -3 4 -6 -2 -5 -13z"/>
<path d="M23351 12864 c0 -11 3 -14 6 -6 3 7 2 16 -1 19 -3 4 -6 -2 -5 -13z"/>
<path d="M21433 12463 c-20 -7 -15 -40 7 -46 11 -3 24 -16 29 -30 9 -24 60
-57 88 -57 8 0 23 -9 35 -20 12 -11 29 -20 37 -21 9 0 30 -9 46 -20 17 -10 37
-22 45 -26 8 -3 27 -15 42 -25 31 -21 68 -24 68 -4 0 7 -18 29 -41 47 -22 19
-55 48 -74 65 -33 30 -57 36 -83 20 -8 -5 -15 2 -22 21 -15 43 -26 58 -44 61
-11 2 -14 -1 -10 -12 8 -20 -10 -21 -26 -1 -7 8 -19 15 -26 15 -8 0 -14 4 -14
8 0 12 -42 30 -57 25z m167 -93 c0 -5 -4 -10 -10 -10 -5 0 -10 5 -10 10 0 6 5
10 10 10 6 0 10 -4 10 -10z"/>
<path d="M23312 12445 c0 -16 2 -22 5 -12 2 9 2 23 0 30 -3 6 -5 -1 -5 -18z"/>
<path d="M23203 12220 c13 -180 29 -315 38 -324 6 -6 13 -6 21 2 9 9 9 36 -1
117 -13 112 -45 273 -57 283 -4 4 -4 -31 -1 -78z"/>
<path d="M21325 12213 c-36 -9 -85 -53 -85 -77 0 -25 43 -70 77 -80 11 -4 27
-13 33 -21 7 -8 21 -15 31 -15 21 0 25 20 9 36 -15 15 19 53 50 56 18 2 25 -2
25 -14 0 -9 3 -20 7 -24 4 -4 5 -17 2 -29 -4 -15 0 -24 10 -28 13 -5 15 0 13
24 -1 20 4 35 15 42 22 15 35 1 21 -22 -18 -28 13 -48 66 -43 40 4 43 3 37
-14 -5 -14 1 -11 23 10 17 16 36 26 45 23 8 -3 33 -30 55 -61 36 -49 74 -76
87 -63 3 3 -12 29 -32 57 -32 44 -34 51 -15 41 35 -19 37 -6 6 41 -68 105
-106 125 -294 153 -105 15 -148 17 -186 8z m303 -127 c3 -12 -1 -17 -10 -14
-7 3 -15 13 -16 22 -3 12 1 17 10 14 7 -3 15 -13 16 -22z"/>
<path d="M21428 11993 c7 -3 16 -2 19 1 4 3 -2 6 -13 5 -11 0 -14 -3 -6 -6z"/>
<path d="M22673 11883 c26 -2 67 -2 90 0 23 2 2 3 -48 3 -49 0 -68 -1 -42 -3z"/>
<path d="M20700 11831 c0 -5 7 -11 15 -15 9 -3 15 0 15 9 0 8 -7 15 -15 15 -8
0 -15 -4 -15 -9z"/>
<path d="M23255 11759 c-3 -13 -7 -86 -8 -161 -1 -94 -6 -141 -14 -150 -8 -7
-13 -41 -13 -90 0 -64 3 -79 18 -87 9 -5 23 -30 30 -55 6 -25 16 -46 21 -46
17 0 27 116 25 283 -2 95 -7 174 -13 181 -5 6 -14 40 -20 75 -12 72 -18 83
-26 50z m3 -413 c-2 -15 -7 -28 -13 -29 -12 -2 -19 38 -10 60 9 25 27 1 23
-31z"/>
<path d="M23389 11673 c-2 -149 -10 -370 -15 -383 -9 -26 -16 -125 -8 -117 20
19 35 90 39 174 2 51 8 101 13 110 6 10 13 69 17 132 6 91 5 115 -6 122 -30
19 -39 9 -40 -38z"/>
<path d="M23069 11696 c-18 -13 -53 -86 -41 -86 9 0 66 89 61 95 -2 2 -11 -2
-20 -9z"/>
<path d="M23154 11682 c-11 -10 -28 -29 -36 -42 -19 -30 -35 -146 -19 -136 6
4 11 15 11 25 0 14 9 20 36 23 19 2 37 0 40 -4 13 -20 22 -3 27 52 5 41 3 67
-6 80 -14 24 -26 25 -53 2z"/>
<path d="M23912 11534 c-39 -31 -40 -41 -6 -55 21 -7 31 -6 45 7 22 20 25 47
6 62 -9 8 -21 4 -45 -14z"/>
<path d="M23648 11340 c2 -16 6 -30 8 -30 2 0 4 14 4 30 0 17 -4 30 -8 30 -5
0 -7 -13 -4 -30z"/>
<path d="M23242 11210 c0 -14 2 -19 5 -12 2 6 2 18 0 25 -3 6 -5 1 -5 -13z"/>
<path d="M23090 11060 c0 -60 4 -100 10 -100 13 0 13 -103 1 -115 -15 -16 -18
-218 -3 -222 6 -3 12 2 12 10 0 8 7 20 15 27 8 7 15 21 15 31 0 11 8 38 19 62
25 56 41 117 41 154 0 17 6 36 14 42 35 29 33 -264 -3 -342 -20 -46 -171 -273
-231 -350 -48 -60 -68 -167 -31 -167 5 0 11 10 14 22 5 18 8 19 21 8 9 -7 16
-17 16 -22 0 -5 7 -16 15 -25 14 -13 17 -11 30 21 9 20 22 36 31 36 12 0 14
-13 12 -75 -2 -71 -3 -74 -20 -58 -10 9 -18 23 -19 32 0 9 -4 6 -10 -9 -6 -13
-7 -36 -3 -50 5 -14 8 -29 9 -35 0 -5 3 -14 6 -20 4 -5 7 -56 7 -113 0 -90 -2
-104 -19 -113 -15 -8 -19 -21 -19 -63 0 -59 -23 -95 -35 -57 -3 12 -4 25 0 31
3 5 1 18 -5 29 -11 21 -3 48 27 91 17 23 17 24 0 17 -13 -5 -20 0 -27 16 -8
21 -9 21 -9 1 -1 -24 -23 -74 -33 -74 -5 0 -8 35 -8 78 0 43 -3 82 -7 86 -5 4
-8 25 -9 47 -1 81 -32 61 -39 -26 -2 -33 -9 -87 -15 -120 -14 -83 -12 -135 5
-169 8 -15 15 -41 15 -57 0 -15 7 -45 16 -66 9 -21 20 -47 25 -58 20 -48 40
-153 64 -335 21 -157 59 -361 81 -438 2 -7 14 -16 27 -21 38 -15 56 -55 76
-170 10 -60 21 -114 25 -119 10 -16 -46 -74 -184 -190 -69 -59 -127 -109 -130
-112 -3 -3 -23 -19 -45 -35 -22 -17 -42 -32 -45 -35 -3 -3 -43 -32 -90 -65
-47 -32 -87 -61 -90 -65 -13 -17 -270 -190 -282 -190 -5 0 -6 -5 -3 -11 4 -6
41 -10 88 -10 45 1 102 -1 127 -3 25 -3 95 -9 155 -14 125 -11 256 -28 330
-42 78 -16 388 -71 405 -73 18 -2 18 47 0 198 -7 55 -14 136 -17 180 -3 55
-10 86 -22 99 -11 12 -16 36 -16 77 0 49 -2 57 -12 43 -12 -16 -13 -16 -19 0
-7 17 2 53 36 154 17 51 17 53 -2 77 -14 18 -24 23 -32 16 -25 -21 -35 27 -41
196 -3 92 -10 202 -15 243 -10 77 -18 202 -19 303 -1 46 -4 57 -17 57 -14 0
-16 -9 -11 -57 4 -47 -1 -73 -23 -135 l-28 -77 20 -83 c16 -65 18 -96 12 -143
-4 -33 -7 -84 -7 -113 1 -28 -2 -50 -7 -47 -17 11 -42 81 -51 143 -5 37 -16
82 -25 100 -8 18 -18 50 -21 70 -3 20 -14 64 -24 97 -10 33 -21 80 -24 105 -4
25 -11 59 -15 75 -11 37 -37 166 -46 223 -4 29 -2 42 6 42 23 0 41 31 42 72 0
45 15 82 53 133 92 124 144 273 165 475 10 100 20 171 45 332 8 54 12 104 9
112 -3 8 -1 17 5 21 6 3 11 28 11 55 0 27 5 52 10 55 6 3 10 20 10 36 0 17 7
44 16 61 16 31 16 32 -12 57 l-29 24 -5 -51 c-5 -49 -14 -71 -25 -60 -3 2 -5
15 -5 29 0 25 17 226 21 244 1 6 -1 20 -5 32 -5 17 -1 26 19 39 19 12 25 25
25 50 0 19 -5 34 -11 34 -5 0 -9 -10 -7 -22 2 -16 -3 -24 -16 -26 -15 -3 -18
1 -14 21 4 22 0 25 -42 36 -54 14 -115 44 -146 72 -11 10 -23 19 -27 19 -4 0
-7 -45 -7 -100z m224 -518 c-4 -40 -11 -69 -16 -66 -9 6 -6 42 8 117 10 51 15
21 8 -51z m-159 -733 c6 -86 5 -103 -9 -117 -17 -17 -17 -19 -21 93 0 17 -6
43 -13 58 -7 16 -12 32 -12 37 0 9 29 29 41 30 4 0 10 -45 14 -101z m-155
-295 c0 -8 -5 -12 -10 -9 -6 4 -8 11 -5 16 9 14 15 11 15 -7z m-41 -51 c0 -25
-1 -25 -8 -8 -5 11 -7 23 -4 28 8 14 13 7 12 -20z m49 -68 c26 -25 26 -25 4
-25 -12 0 -22 -4 -22 -10 0 -5 -4 -10 -10 -10 -5 0 -10 16 -10 35 0 19 2 35 5
35 3 0 18 -11 33 -25z m-238 -1575 c0 -5 -5 -10 -11 -10 -5 0 -7 5 -4 10 3 6
8 10 11 10 2 0 4 -4 4 -10z m-180 -134 c0 -3 -4 -8 -10 -11 -5 -3 -10 -1 -10
4 0 6 5 11 10 11 6 0 10 -2 10 -4z m-60 -46 c0 -5 -9 -10 -21 -10 -11 0 -17 5
-14 10 3 6 13 10 21 10 8 0 14 -4 14 -10z"/>
<path d="M21720 11051 c0 -21 103 -63 164 -68 l61 -4 -24 20 c-13 12 -31 21
-40 21 -9 0 -25 6 -36 14 -26 17 -125 30 -125 17z"/>
<path d="M22030 11046 c-34 -13 -33 -13 62 -21 102 -8 147 -2 117 15 -29 17
-142 20 -179 6z"/>
<path d="M21263 11014 c-3 -9 -2 -22 3 -29 5 -6 26 -35 47 -62 20 -28 54 -64
75 -79 20 -16 51 -43 67 -60 33 -36 100 -74 127 -74 10 0 27 -6 38 -12 16 -10
23 -10 37 5 16 16 16 17 -3 17 -11 0 -30 9 -42 20 -13 12 -35 20 -56 20 -29 0
-36 4 -45 30 -7 22 -16 30 -34 30 -29 0 -37 21 -28 76 l6 39 66 2 c55 2 70 -1
84 -17 11 -12 31 -20 51 -20 18 0 35 -4 39 -9 3 -6 27 -13 53 -16 26 -4 62
-13 80 -21 18 -8 37 -12 42 -9 14 9 12 35 -2 36 -7 1 -22 2 -33 3 -13 0 -20 8
-20 21 0 16 -6 19 -26 17 -14 -2 -31 4 -38 12 -8 9 -18 13 -24 9 -5 -3 -16 2
-24 12 -12 17 -13 17 -13 2 0 -9 -2 -17 -3 -17 -10 0 -67 32 -72 41 -4 5 -17
9 -31 9 -13 0 -24 4 -24 8 0 9 -185 32 -253 32 -26 0 -40 -5 -44 -16z"/>
<path d="M22520 10951 c0 -22 31 -81 43 -81 4 0 7 -11 7 -25 0 -14 5 -25 10
-25 6 0 10 5 10 11 0 12 -60 139 -66 139 -2 0 -4 -9 -4 -19z"/>
<path d="M23663 10864 c-18 -27 -44 -63 -58 -81 -25 -29 -27 -40 -35 -190 -5
-87 -12 -184 -16 -217 -4 -42 -3 -57 5 -52 6 4 11 17 11 28 0 26 21 99 33 115
5 7 6 30 2 51 -5 29 -2 42 9 52 12 9 16 32 16 91 0 43 4 81 10 84 16 10 22
-42 12 -102 -14 -72 -25 -370 -14 -357 11 12 30 136 37 239 3 44 11 114 16
155 6 41 9 111 7 154 l-3 79 -32 -49z"/>
<path d="M21944 10828 c-3 -4 6 -8 20 -8 14 0 28 -4 31 -10 3 -5 15 -10 25
-10 11 0 24 -9 30 -20 6 -12 16 -18 22 -13 7 3 48 8 92 9 67 2 82 0 92 -15 9
-12 22 -16 42 -13 25 3 32 -1 46 -28 8 -18 13 -36 10 -41 -5 -9 112 -4 164 7
37 7 28 40 -15 52 -21 6 -83 25 -138 42 -73 23 -123 33 -185 35 -47 1 -98 5
-115 9 -49 11 -115 14 -121 4z"/>
<path d="M22590 10785 c0 -15 4 -24 10 -20 6 3 10 12 10 20 0 8 -4 17 -10 20
-6 4 -10 -5 -10 -20z"/>
<path d="M27600 10630 c-829 -239 -1613 -672 -2265 -1253 -147 -131 -411 -401
-549 -562 -120 -140 -131 -150 -160 -147 -17 2 -35 8 -40 13 -6 5 -20 9 -33 9
-13 0 -23 4 -23 8 0 5 -28 17 -62 27 -35 9 -76 23 -93 30 -63 26 -92 34 -160
45 -38 7 -83 16 -99 21 -16 5 -57 9 -91 9 -66 0 -79 6 -155 77 -20 20 -38 29
-43 24 -6 -6 -5 -69 1 -158 5 -81 11 -159 12 -173 3 -50 -1 -216 -6 -270 l-6
-56 51 -50 c43 -43 51 -57 51 -88 0 -21 10 -55 24 -79 23 -39 24 -45 12 -87
-7 -25 -16 -53 -21 -64 -8 -18 -1 -63 28 -181 20 -80 47 -227 47 -254 0 -13
11 -26 29 -36 16 -8 32 -23 35 -32 8 -30 44 -264 51 -333 6 -72 24 -187 32
-210 2 -8 6 -37 8 -65 11 -187 71 -676 100 -815 27 -130 55 -314 69 -460 3
-25 12 -74 20 -110 9 -36 25 -105 37 -155 11 -49 26 -115 34 -145 8 -30 19
-80 25 -110 7 -30 16 -69 21 -86 5 -17 6 -39 3 -49 -5 -11 -1 -21 9 -27 11 -6
17 -22 17 -43 0 -34 -13 -47 -23 -22 -3 6 -6 1 -6 -13 -1 -15 4 -31 10 -37 15
-15 1 -37 -15 -24 -15 13 -31 1 -31 -24 0 -11 -8 -21 -17 -23 -20 -4 -48 54
-48 99 0 23 -5 29 -21 29 -22 0 -22 -1 -3 -125 14 -95 16 -125 6 -125 -6 0
-13 4 -16 9 -7 11 -46 2 -46 -10 0 -4 5 -11 10 -14 17 -10 1 -25 -26 -25 -14
0 -32 -7 -40 -15 -9 -8 -11 -15 -5 -15 6 0 11 -10 11 -21 0 -18 -5 -21 -30
-17 -27 4 -30 2 -30 -24 0 -23 -4 -28 -25 -28 -22 0 -24 -3 -15 -19 17 -32 12
-41 -24 -41 -35 0 -35 0 -21 -27 16 -31 12 -43 -16 -43 -11 0 -19 -7 -19 -16
0 -17 -23 -44 -39 -44 -5 0 -13 -10 -17 -22 -4 -13 -13 -27 -20 -33 -7 -5 -14
-21 -16 -35 -2 -16 -10 -26 -24 -28 -13 -2 -26 -16 -35 -38 -7 -20 -21 -40
-31 -45 -10 -5 -18 -16 -18 -24 0 -7 -9 -17 -20 -20 -11 -3 -20 -13 -20 -21 0
-8 -11 -19 -25 -24 -14 -5 -25 -16 -25 -23 0 -7 -12 -24 -26 -38 -29 -27 -84
-105 -84 -120 0 -5 -6 -9 -14 -9 -20 0 -41 -27 -25 -32 19 -6 1 -28 -22 -28
-26 0 -59 -18 -59 -32 0 -16 -32 -37 -58 -38 -12 0 -21 -5 -20 -12 2 -6 -10
-18 -26 -26 -24 -12 -33 -12 -50 -2 -14 9 -21 10 -24 1 -2 -6 -13 -11 -25 -12
-12 0 -16 -3 -9 -6 20 -8 14 -33 -8 -33 -12 0 -32 -7 -45 -16 -22 -14 -27 -14
-55 -1 -29 15 -30 15 -30 -9 0 -19 -5 -24 -24 -24 -15 0 -26 -7 -29 -20 -4
-14 -14 -20 -35 -20 -25 0 -29 -3 -25 -19 6 -23 -13 -37 -31 -21 -19 15 -94
-9 -108 -34 -8 -15 -12 -16 -19 -5 -6 11 -9 8 -9 -8 0 -25 -25 -43 -50 -36
-10 3 -21 0 -24 -6 -4 -6 -18 -11 -32 -11 -13 0 -24 -4 -24 -8 0 -4 -21 -16
-46 -27 -26 -10 -57 -28 -71 -38 -13 -11 -32 -17 -43 -14 -13 3 -20 0 -20 -9
0 -8 -6 -14 -13 -14 -8 0 -22 -9 -32 -20 -10 -11 -28 -20 -39 -20 -23 -1 -58
-23 -56 -37 0 -4 -8 -9 -19 -11 -10 -2 -27 -12 -37 -23 -9 -10 -26 -19 -36
-19 -11 0 -17 -4 -13 -9 3 -6 -11 -13 -31 -17 -23 -4 -32 -9 -23 -15 15 -9 -2
-35 -29 -42 -19 -5 60 2 86 8 32 6 97 24 152 40 30 9 69 20 85 24 17 5 57 16
90 26 33 9 89 25 125 35 36 10 90 25 120 34 30 8 100 25 155 36 55 11 125 27
155 35 30 7 82 19 115 25 33 6 76 15 95 20 104 27 183 42 203 36 13 -3 27 -18
34 -35 7 -20 24 -37 49 -48 22 -10 49 -30 62 -45 13 -16 31 -28 40 -28 24 0
101 28 126 45 11 8 30 15 42 15 39 0 48 23 35 87 -15 76 -14 118 3 132 23 19
128 209 158 286 41 101 135 290 184 365 24 36 50 88 59 115 8 28 20 58 25 67
6 10 10 31 10 47 0 51 18 44 28 -11 6 -29 29 -147 51 -263 44 -226 61 -351 61
-457 0 -37 4 -69 9 -72 4 -3 27 7 50 22 28 18 41 34 41 49 0 13 -4 23 -10 23
-14 0 -12 36 2 60 10 16 10 24 0 40 -6 11 -12 32 -12 47 0 42 -21 196 -30 218
-18 45 -46 214 -56 335 -3 36 -10 69 -15 75 -5 5 -9 21 -9 36 0 15 -4 31 -10
34 -5 3 -10 27 -10 53 -1 26 -10 90 -21 142 -11 52 -25 140 -30 195 -5 55 -13
127 -19 160 -5 33 -12 105 -16 160 -4 55 -10 105 -15 111 -5 6 -12 90 -15 188
-4 97 -11 179 -16 182 -4 3 -8 47 -8 99 0 52 -4 97 -10 100 -5 3 -10 33 -10
65 0 32 -4 62 -10 65 -16 10 -12 104 6 142 10 21 58 68 123 121 138 113 235
194 241 202 9 10 160 131 205 164 24 17 87 65 141 106 97 74 206 136 280 160
21 7 59 21 83 32 68 31 153 41 187 23 16 -8 34 -15 40 -15 7 0 20 -19 30 -42
17 -37 19 -71 19 -253 1 -416 16 -1041 25 -1075 6 -19 10 -55 10 -80 0 -25 11
-124 25 -220 37 -251 44 -302 61 -425 9 -60 18 -150 21 -200 2 -49 8 -99 13
-110 30 -68 26 -1488 -5 -1615 -3 -14 -11 -45 -17 -70 -17 -74 -50 -174 -62
-190 -7 -8 -25 -45 -40 -82 -16 -38 -31 -68 -35 -68 -4 0 -13 -16 -21 -35 -7
-19 -17 -32 -22 -29 -4 3 -20 -6 -35 -20 -15 -15 -33 -26 -40 -26 -7 0 -13 -7
-13 -16 0 -9 -6 -14 -12 -11 -7 2 -28 -5 -46 -15 -18 -10 -41 -18 -52 -18 -10
0 -22 -5 -26 -11 -3 -6 -14 -9 -24 -6 -9 2 -25 0 -34 -5 -12 -7 -25 -5 -42 7
-21 14 -28 14 -41 3 -9 -7 -19 -12 -22 -10 -12 5 -91 -10 -97 -19 -3 -5 -27
-9 -54 -9 -27 0 -52 -5 -55 -10 -5 -8 -11 -8 -20 0 -10 8 -14 7 -18 -2 -4 -10
-8 -10 -16 2 -8 12 -12 10 -20 -10 l-10 -25 -7 23 c-5 17 -10 20 -19 12 -10
-8 -15 -8 -20 1 -6 8 -10 7 -16 -2 -7 -11 -12 -12 -28 -2 -13 8 -22 9 -26 2
-5 -7 -11 -6 -20 1 -10 8 -14 7 -17 -2 -4 -10 -11 -10 -33 2 -22 12 -29 12
-32 3 -3 -8 -24 -13 -59 -13 -30 0 -54 -4 -54 -10 0 -5 -24 -10 -54 -10 -30 0
-57 -4 -60 -9 -3 -5 -31 -12 -61 -16 -30 -3 -55 -10 -55 -14 0 -4 -30 -8 -66
-9 -36 -2 -74 -8 -84 -14 -14 -9 -22 -9 -33 1 -12 9 -16 9 -21 -1 -5 -10 -7
-10 -12 0 -9 20 -24 14 -55 -20 -21 -25 -28 -42 -27 -71 1 -28 -5 -44 -25 -65
-18 -18 -29 -44 -33 -75 -4 -26 -15 -54 -25 -63 -13 -11 -19 -31 -19 -58 0
-32 -8 -51 -35 -85 -21 -27 -35 -55 -35 -72 0 -21 -7 -32 -28 -43 -16 -8 -34
-22 -41 -30 -7 -9 -17 -14 -21 -11 -4 2 -38 5 -76 6 -38 1 -72 6 -75 12 -9 13
-142 12 -147 -2 -5 -15 -29 -14 -35 2 -3 9 -8 9 -21 -2 -13 -11 -20 -11 -28
-3 -7 7 -33 12 -59 12 -29 0 -49 5 -51 12 -3 7 -18 11 -36 10 -23 -2 -32 2
-32 13 0 8 -4 15 -10 15 -5 0 -7 -7 -4 -15 9 -22 -20 -19 -41 5 -14 16 -20 17
-27 8 -4 -7 -5 -21 -2 -30 4 -12 0 -18 -11 -18 -12 0 -16 6 -12 19 6 25 -32
59 -44 40 -12 -20 -11 -23 11 -39 23 -17 27 -40 6 -40 -12 0 -27 21 -30 42 -1
3 -4 10 -8 14 -5 4 -8 18 -8 31 0 14 -6 23 -15 23 -8 0 -15 -7 -15 -15 0 -8 5
-15 10 -15 6 0 10 -9 10 -20 0 -22 -20 -26 -37 -9 -9 9 -10 7 -6 -10 4 -17 1
-21 -21 -21 -14 0 -26 -4 -26 -10 0 -5 -7 -10 -15 -10 -8 0 -15 5 -15 10 0 6
-18 10 -40 10 -22 0 -40 -4 -40 -8 0 -5 -34 -10 -76 -10 -42 -1 -82 -6 -89
-12 -8 -6 -15 -6 -23 2 -9 9 -12 9 -12 0 0 -8 -20 -12 -58 -12 -32 0 -62 -3
-66 -7 -19 -19 -113 -32 -231 -32 -130 -1 -130 0 -105 18 13 11 37 22 53 25
16 3 41 19 57 36 15 16 33 30 39 30 6 0 11 7 11 15 0 10 10 15 30 15 23 0 30
5 30 19 0 10 9 21 20 24 11 3 23 13 27 24 9 23 52 67 60 60 3 -3 16 7 30 24
14 16 33 29 44 29 10 0 34 9 53 19 22 13 37 16 44 9 6 -6 11 -4 15 6 4 10 1
16 -8 16 -21 0 -19 19 3 27 9 3 25 13 35 22 16 13 19 13 27 1 8 -12 10 -12 10
-1 0 7 6 11 14 8 8 -3 17 1 20 9 8 20 26 8 26 -16 0 -14 5 -18 16 -13 11 4 12
9 5 16 -16 16 18 51 35 36 10 -8 15 -5 20 15 3 14 10 26 15 26 5 0 9 9 9 20 0
11 5 20 10 20 6 0 10 4 10 9 0 5 -9 7 -20 4 -11 -3 -20 0 -20 6 0 6 5 11 12
11 6 0 -1 14 -18 31 -25 27 -34 30 -70 26 -40 -4 -104 -50 -104 -73 0 -6 -25
-34 -55 -64 -30 -30 -55 -60 -55 -67 0 -8 -12 -18 -26 -23 -14 -6 -28 -19 -31
-30 -3 -11 -11 -20 -18 -20 -6 0 -20 -9 -30 -20 -10 -11 -22 -20 -27 -20 -5 0
-21 -11 -36 -25 -15 -14 -30 -25 -35 -25 -4 0 -13 -4 -20 -10 -47 -39 -181
-127 -222 -146 -59 -28 -135 -31 -189 -9 -20 9 -47 13 -61 9 -29 -7 -65 3 -49
14 34 23 66 151 44 176 -7 9 -9 27 -5 44 6 28 4 29 -33 35 -66 8 -338 -18
-348 -34 -3 -5 -18 -9 -34 -9 -16 0 -32 -4 -35 -10 -3 -5 -21 -10 -40 -10 -19
0 -37 -5 -41 -11 -7 -11 131 -9 151 3 10 5 39 4 105 -5 65 -9 89 -19 96 -39
10 -31 -15 -77 -45 -84 -70 -15 -113 -48 -105 -80 4 -16 1 -26 -9 -29 -8 -4
-31 -30 -51 -60 -20 -29 -48 -61 -62 -71 -13 -10 -24 -24 -24 -31 0 -7 -4 -13
-10 -13 -5 0 -15 -18 -21 -41 -9 -28 -28 -53 -60 -81 -26 -22 -53 -54 -60 -71
-21 -53 -87 -144 -121 -168 -25 -18 -49 -24 -115 -27 -57 -3 -88 -1 -98 8 -10
9 -15 9 -15 1 0 -15 -63 -14 -78 1 -9 9 -12 9 -12 0 0 -7 -9 -12 -20 -12 -11
0 -20 5 -20 10 0 23 -54 8 -91 -25 -41 -36 -69 -45 -69 -21 0 14 -161 186
-174 186 -18 0 1 -30 54 -86 33 -34 60 -71 60 -82 0 -41 -50 -74 -218 -141
-104 -42 -394 -58 -607 -33 -171 20 -402 85 -478 135 -14 9 -30 17 -35 17 -4
0 -22 12 -40 28 -23 19 -35 39 -39 67 -9 62 -15 65 -118 65 -111 0 -121 -7
-99 -69 19 -56 71 -158 84 -166 6 -4 15 -17 19 -28 11 -27 -7 -318 -20 -332
-5 -5 -9 6 -9 30 0 30 -3 36 -12 27 -15 -15 -54 -16 -63 -2 -3 5 -12 10 -18 9
-9 0 -9 -2 1 -6 20 -8 14 -23 -13 -33 -17 -7 -23 -14 -18 -26 3 -9 0 -20 -8
-25 -10 -6 -10 -9 -1 -9 8 0 12 -18 12 -55 0 -30 5 -55 10 -55 13 0 13 -77 0
-82 -5 -1 -10 -34 -11 -71 -1 -37 -6 -70 -10 -73 -5 -3 -9 -16 -9 -30 0 -15
-6 -24 -15 -24 -8 0 -15 -9 -15 -20 0 -20 7 -20 2848 -20 l2848 0 -8 63 c-5
34 -13 100 -18 147 -12 113 -35 227 -49 243 -6 8 -10 31 -10 53 1 71 -25 147
-44 128 -3 -4 -11 -3 -17 1 -8 5 -8 11 1 21 6 7 15 11 20 8 12 -7 12 19 0 32
-5 5 -11 23 -13 39 -3 26 -8 31 -38 36 -25 4 -30 8 -19 13 16 7 15 66 -2 66
-5 0 -9 20 -9 45 0 25 -4 45 -9 45 -10 0 -15 27 -31 180 -6 58 -15 114 -20
125 -5 11 -11 32 -14 47 -3 15 -13 33 -21 42 -20 20 -19 61 5 132 38 115 19
207 -69 328 -51 70 -62 108 -31 113 9 2 44 -41 91 -115 288 -442 721 -917
1169 -1283 145 -119 334 -256 515 -375 232 -151 111 -134 945 -134 l720 0 0
5330 c0 4258 -3 5330 -12 5329 -7 -1 -56 -13 -108 -29z m-2551 -1976 c30 -15
51 -41 51 -64 0 -6 -12 1 -27 15 -15 14 -42 28 -59 31 -35 6 -101 -9 -129 -30
-28 -21 -75 -19 -110 4 -16 11 -25 20 -18 20 6 0 15 -4 18 -10 13 -21 85 -2
155 40 24 14 84 11 119 -6z m284 -319 c20 -14 37 -30 37 -36 0 -9 -48 21 -78
49 -23 21 2 13 41 -13z m234 -317 c-3 -8 -6 -5 -6 6 -1 11 2 17 5 13 3 -3 4
-12 1 -19z m23 -47 c0 -11 4 -22 9 -25 5 -3 11 -16 14 -28 3 -13 14 -59 26
-103 23 -88 27 -145 10 -145 -6 0 -8 9 -4 20 4 12 2 26 -3 33 -5 7 -15 43 -21
82 -7 38 -16 74 -20 80 -5 5 -11 24 -14 40 -3 17 -9 38 -12 48 -4 10 -3 17 4
17 6 0 11 -9 11 -19z m1098 -263 c45 -17 76 -21 147 -19 152 3 261 -38 360
-135 57 -56 95 -136 95 -199 0 -24 5 -35 15 -35 8 0 15 4 15 8 0 14 47 35 60
27 8 -5 -2 -22 -32 -54 -25 -25 -59 -65 -77 -89 -18 -23 -36 -40 -41 -37 -4 2
-10 21 -13 41 -4 20 -16 47 -28 60 -12 13 -19 30 -16 38 9 22 21 20 48 -8 13
-14 27 -22 31 -20 5 3 8 27 8 53 0 104 -99 224 -227 276 -67 27 -185 44 -218
31 -14 -5 -14 -9 1 -38 35 -68 11 -192 -49 -256 -54 -58 -142 -78 -198 -45
-29 18 -59 76 -59 116 2 65 60 161 123 203 38 25 39 27 22 40 -26 19 -146 18
-210 -2 -92 -29 -195 -116 -266 -224 -23 -34 -35 -18 -18 22 27 65 116 165
192 214 85 55 235 70 335 32z m-2158 -3043 c0 -14 -4 -25 -10 -25 -5 0 -10 11
-10 25 0 14 5 25 10 25 6 0 10 -11 10 -25z m-100 -39 c0 -8 -4 -17 -9 -21 -12
-7 -24 12 -16 25 9 15 25 12 25 -4z m-1050 -1186 c0 -5 -4 -10 -10 -10 -5 0
-10 5 -10 10 0 6 5 10 10 10 6 0 10 -4 10 -10z m-180 -50 c0 -5 -9 -10 -20
-10 -11 0 -20 5 -20 10 0 6 9 10 20 10 11 0 20 -4 20 -10z m-180 -1370 c0 -5
-4 -10 -10 -10 -5 0 -10 5 -10 10 0 6 5 10 10 10 6 0 10 -4 10 -10z m20 -55
c0 -8 -4 -15 -9 -15 -13 0 -22 16 -14 24 11 11 23 6 23 -9z m-20 -35 c0 -5 -4
-10 -10 -10 -5 0 -10 5 -10 10 0 6 5 10 10 10 6 0 10 -4 10 -10z m1231 -572
c20 -9 25 -20 26 -47 1 -20 -2 -40 -6 -46 -4 -5 -14 -26 -21 -45 -29 -77 -49
-116 -69 -134 -12 -11 -21 -24 -21 -30 0 -7 -9 -18 -20 -26 -11 -8 -20 -21
-20 -30 0 -8 -9 -21 -20 -28 -11 -7 -20 -23 -20 -37 0 -14 -4 -25 -10 -25 -5
0 -10 4 -10 10 0 5 -7 7 -15 4 -8 -4 -15 -10 -15 -15 0 -5 -25 -33 -56 -64
-31 -30 -51 -55 -45 -55 6 0 11 -4 11 -9 0 -13 -73 -1 -82 13 -4 6 -8 -1 -8
-15 0 -32 -9 -42 -27 -28 -10 9 -13 6 -13 -15 0 -25 -3 -26 -50 -26 -27 0 -50
-4 -50 -10 0 -5 -24 -10 -54 -10 -30 0 -57 -4 -60 -9 -5 -8 -197 -28 -233 -24
-7 0 -13 -5 -13 -13 0 -17 14 -18 40 -2 15 10 24 9 44 -1 18 -10 29 -11 38 -4
7 6 41 13 76 16 34 3 68 9 75 15 7 5 45 9 85 9 53 0 76 4 83 14 6 11 11 11 21
1 6 -6 32 -12 57 -12 60 0 42 -14 -22 -18 -89 -4 -131 -9 -149 -17 -10 -4 -25
-4 -34 -1 -8 3 -23 2 -32 -3 -17 -9 -77 -16 -250 -29 l-94 -7 6 28 c5 22 2 27
-15 27 -18 0 -20 -4 -14 -30 8 -37 18 -35 -245 -55 -257 -20 -349 -23 -349
-11 0 11 -67 36 -97 36 -11 0 -25 -5 -31 -11 -16 -16 -33 -2 -33 28 l0 26 -19
-21 c-26 -30 -50 -28 -111 13 -8 6 -26 10 -40 10 -21 0 -25 5 -28 34 -3 25 -6
31 -12 21 -7 -12 -10 -11 -16 4 -5 12 -2 23 9 31 10 7 17 17 17 24 0 17 47 13
54 -4 6 -18 36 -20 36 -3 0 6 -7 19 -16 29 -15 16 -13 17 28 12 24 -3 48 -12
55 -21 11 -13 14 -11 23 13 l11 28 22 -21 c19 -17 24 -18 35 -6 7 8 8 14 2 14
-5 0 -10 7 -10 15 0 17 16 20 25 5 14 -22 65 1 65 29 0 16 36 13 50 -4 26 -31
90 -5 90 37 0 22 35 25 48 2 8 -14 10 -14 22 0 9 12 16 13 25 6 9 -7 16 -6 24
4 8 10 23 13 47 9 27 -4 34 -2 34 11 0 20 19 21 26 1 8 -19 24 -20 24 -1 0 22
15 27 46 16 21 -9 31 -7 46 7 17 15 21 15 28 3 7 -10 10 -11 10 -2 0 17 35 15
50 -3 7 -8 20 -15 29 -15 14 0 14 2 1 10 -13 9 -13 11 0 20 12 8 9 10 -12 10
-32 0 -37 16 -10 24 22 7 81 -20 89 -40 4 -10 10 -11 25 -3 11 6 31 8 44 5 17
-5 26 -2 30 9 10 24 31 17 42 -12 l9 -28 10 35 c8 32 13 35 49 38 23 2 49 12
62 25 19 18 26 19 42 9 25 -16 30 -15 30 3 0 10 10 15 34 15 19 0 38 5 41 10
3 6 16 10 29 10 28 0 74 22 103 50 12 11 25 20 27 20 11 0 106 102 106 113 0
14 46 37 72 37 10 0 18 5 18 11 0 6 9 24 20 39 18 25 25 27 59 23 23 -3 41 -1
45 6 9 14 16 14 47 -1z m87 -266 c2 -20 9 -32 18 -32 9 0 14 -11 14 -31 0 -25
-3 -29 -19 -24 -10 3 -24 -1 -31 -10 -27 -33 -39 -18 -35 45 6 84 46 124 53
52z m82 -42 c0 -5 -5 -10 -11 -10 -5 0 -7 5 -4 10 3 6 8 10 11 10 2 0 4 -4 4
-10z m-895 -40 c-3 -5 -10 -10 -16 -10 -5 0 -9 5 -9 10 0 6 7 10 16 10 8 0 12
-4 9 -10z m-201 -41 c-3 -5 -10 -7 -15 -3 -5 3 -7 10 -3 15 3 5 10 7 15 3 5
-3 7 -10 3 -15z m1106 8 c0 -19 -40 -41 -53 -28 -7 7 -6 15 3 26 15 18 50 20
50 2z m-1512 -38 c-2 -6 -8 -10 -13 -10 -5 0 -11 4 -13 10 -2 6 4 11 13 11 9
0 15 -5 13 -11z m1350 0 c-2 -6 -8 -10 -13 -10 -5 0 -11 4 -13 10 -2 6 4 11
13 11 9 0 15 -5 13 -11z m-1518 -69 c0 -5 -4 -10 -10 -10 -5 0 -10 5 -10 10 0
6 5 10 10 10 6 0 10 -4 10 -10z m1633 -127 c-7 -2 -19 -2 -25 0 -7 3 -2 5 12
5 14 0 19 -2 13 -5z m-203 -23 c-19 -13 -30 -13 -30 0 0 6 10 10 23 10 18 0
19 -2 7 -10z m-197 -37 c-7 -2 -21 -2 -30 0 -10 3 -4 5 12 5 17 0 24 -2 18 -5z
m63 -112 c-3 -5 2 -12 11 -15 12 -5 13 -10 5 -18 -6 -6 -18 -8 -28 -4 -9 4
-14 9 -11 13 4 3 -1 12 -11 19 -15 12 -14 13 11 14 16 0 26 -4 23 -9z m-1506
-5 c0 -11 -19 -15 -25 -6 -3 5 1 10 9 10 9 0 16 -2 16 -4z m1466 -18 c4 -6 2
-14 -4 -16 -7 -2 -12 -10 -12 -17 0 -21 -39 -40 -53 -26 -8 8 -3 19 18 41 32
33 40 36 51 18z m-1888 -10 c-7 -19 -38 -22 -38 -4 0 10 9 16 21 16 12 0 19
-5 17 -12z m92 8 c0 -9 -30 -14 -35 -6 -4 6 3 10 14 10 12 0 21 -2 21 -4z m67
-2 c-3 -3 -12 -4 -19 -1 -8 3 -5 6 6 6 11 1 17 -2 13 -5z m88 -5 c-18 -5 -33
-5 -39 1 -7 7 4 10 30 9 39 -1 39 -1 9 -10z m1355 1 c0 -5 -4 -10 -10 -10 -5
0 -10 5 -10 10 0 6 5 10 10 10 6 0 10 -4 10 -10z m145 0 c-3 -5 -10 -10 -16
-10 -5 0 -9 5 -9 10 0 6 7 10 16 10 8 0 12 -4 9 -10z m-1795 -10 c0 -5 -24
-10 -52 -9 -39 0 -48 3 -33 9 28 12 85 12 85 0z m-187 -7 c-7 -2 -19 -2 -25 0
-7 3 -2 5 12 5 14 0 19 -2 13 -5z m2197 -13 c0 -5 -4 -10 -10 -10 -5 0 -10 5
-10 10 0 6 5 10 10 10 6 0 10 -4 10 -10z m-430 -30 c0 -13 -7 -20 -20 -20 -19
0 -27 20 -13 33 13 14 33 6 33 -13z m277 -7 c7 -15 11 -29 8 -31 -9 -9 -35 20
-35 39 0 27 13 23 27 -8z m123 -3 c0 -5 -4 -10 -10 -10 -5 0 -10 5 -10 10 0 6
5 10 10 10 6 0 10 -4 10 -10z m-350 -21 c0 -11 -27 -12 -34 0 -3 4 -3 11 0 14
8 8 34 -3 34 -14z m310 -3 c0 -8 6 -16 13 -19 9 -3 9 -7 0 -17 -6 -7 -16 -9
-22 -6 -14 9 -15 56 -1 56 6 0 10 -6 10 -14z m-416 -17 c-3 -5 -10 -7 -15 -3
-5 3 -7 10 -3 15 3 5 10 7 15 3 5 -3 7 -10 3 -15z m353 -19 c17 0 16 -8 -2
-26 -16 -17 -35 -11 -35 10 0 8 -7 19 -15 26 -8 7 -12 16 -9 21 3 5 15 0 26
-11 12 -11 28 -20 35 -20z m-1682 -10 c3 -5 1 -10 -4 -10 -6 0 -11 5 -11 10 0
6 2 10 4 10 3 0 8 -4 11 -10z m90 0 c3 -5 -1 -10 -10 -10 -9 0 -13 5 -10 10 3
6 8 10 10 10 2 0 7 -4 10 -10z m1455 0 c0 -5 -4 -10 -10 -10 -5 0 -10 5 -10
10 0 6 5 10 10 10 6 0 10 -4 10 -10z m-1362 -17 c2 -8 -5 -13 -17 -13 -21 0
-35 13 -24 24 10 10 36 3 41 -11z m1812 -3 c0 -5 -4 -10 -10 -10 -5 0 -10 5
-10 10 0 6 5 10 10 10 6 0 10 -4 10 -10z m-1745 -10 c3 -6 -1 -13 -10 -16 -19
-8 -30 0 -20 15 8 14 22 14 30 1z m-235 -10 c0 -5 -4 -10 -10 -10 -5 0 -10 5
-10 10 0 6 5 10 10 10 6 0 10 -4 10 -10z m1620 0 c0 -5 -4 -10 -10 -10 -5 0
-10 5 -10 10 0 6 5 10 10 10 6 0 10 -4 10 -10z m110 0 c0 -5 -4 -10 -10 -10
-5 0 -10 5 -10 10 0 6 5 10 10 10 6 0 10 -4 10 -10z m-358 -15 c0 -5 -5 -11
-11 -13 -6 -2 -11 4 -11 13 0 9 5 15 11 13 6 -2 11 -8 11 -13z m-1094 -36 c-2
-6 -8 -10 -13 -10 -5 0 -11 4 -13 10 -2 6 4 11 13 11 9 0 15 -5 13 -11z m1377
1 c3 -5 1 -10 -4 -10 -6 0 -11 5 -11 10 0 6 2 10 4 10 3 0 8 -4 11 -10z m75
-11 c0 -10 -50 -18 -55 -9 -2 4 -3 9 -1 11 7 7 56 4 56 -2z m-90 -19 c0 -5 -4
-10 -10 -10 -5 0 -10 5 -10 10 0 6 5 10 10 10 6 0 10 -4 10 -10z m279 -15 c20
-12 -11 -23 -66 -24 -23 -1 -45 -5 -48 -11 -8 -12 -95 -13 -95 -1 0 15 27 32
42 26 9 -4 31 0 49 8 37 15 95 17 118 2z m41 5 c0 -5 -4 -10 -10 -10 -5 0 -10
5 -10 10 0 6 5 10 10 10 6 0 10 -4 10 -10z m-2138 -32 c-15 -15 -26 -4 -18 18
5 13 9 15 18 6 9 -9 9 -15 0 -24z m1375 16 c-3 -3 -12 -4 -19 -1 -8 3 -5 6 6
6 11 1 17 -2 13 -5z m498 -30 c0 -22 -23 -29 -45 -14 -13 9 -12 12 5 25 24 19
40 14 40 -11z m-195 -2 c0 -14 -11 -21 -26 -15 -8 3 -11 9 -8 14 7 11 34 12
34 1z m125 -12 c0 -19 -32 -25 -59 -10 -12 6 -28 10 -35 8 -8 -2 -16 3 -18 10
-4 10 8 13 53 10 44 -2 59 -7 59 -18z m-177 -7 c3 -10 -13 -13 -57 -13 -57 0
-71 6 -54 24 12 12 106 2 111 -11z m-229 -6 c14 -17 4 -27 -26 -27 -16 0 -23
6 -23 20 0 23 31 27 49 7z m41 3 c0 -5 -5 -10 -11 -10 -5 0 -7 5 -4 10 3 6 8
10 11 10 2 0 4 -4 4 -10z m40 0 c0 -5 -4 -10 -10 -10 -5 0 -10 5 -10 10 0 6 5
10 10 10 6 0 10 -4 10 -10z m-200 -21 c0 -5 -18 -9 -40 -9 -36 0 -49 8 -35 21
8 8 75 -3 75 -12z m55 12 c3 -5 1 -13 -5 -16 -15 -9 -43 3 -35 15 8 13 32 13
40 1z m-1260 -20 c3 -5 1 -12 -5 -16 -5 -3 -10 1 -10 9 0 18 6 21 15 7z m1095
-5 c0 -9 -7 -12 -20 -9 -11 3 -17 9 -14 14 8 14 34 10 34 -5z m-63 -13 c-16
-16 -18 -16 -34 0 -16 16 -15 17 17 17 32 0 33 -1 17 -17z m-197 -2 c0 -15
-19 -23 -38 -16 -14 5 -14 7 -2 15 19 12 40 13 40 1z m105 0 c8 -14 -13 -24
-33 -16 -14 5 -14 7 -2 15 19 12 27 12 35 1z m-222 -12 c-8 -8 -16 -8 -30 0
-16 9 -14 10 12 11 21 0 26 -3 18 -11z m-53 -8 c0 -23 -27 -30 -70 -17 -34 10
-40 15 -25 19 34 8 95 7 95 -2z m-516 -17 c22 -8 20 -34 -2 -34 -24 0 -32 8
-25 26 6 16 6 16 27 8z m136 -3 c0 -10 -69 -23 -82 -15 -4 3 -6 10 -3 15 8 11
85 12 85 0z m110 -1 c0 -6 -20 -9 -45 -8 -25 0 -45 5 -45 10 0 4 20 8 45 8 25
0 45 -5 45 -10z m40 0 c0 -5 -4 -10 -10 -10 -5 0 -10 5 -10 10 0 6 5 10 10 10
6 0 10 -4 10 -10z m-647 -9 c56 -1 64 -21 8 -21 -22 0 -43 -4 -46 -10 -8 -13
-262 -13 -270 0 -10 17 47 32 95 26 25 -3 50 -2 57 2 7 4 34 7 60 6 26 -1 69
-3 96 -3z m314 -8 c2 -6 -5 -13 -15 -15 -27 -7 -122 3 -122 13 0 18 131 20
137 2z m-697 -3 c0 -5 -4 -10 -10 -10 -5 0 -10 5 -10 10 0 6 5 10 10 10 6 0
10 -4 10 -10z m535 0 c-3 -5 -19 -10 -36 -10 -16 0 -29 5 -29 10 0 6 16 10 36
10 21 0 33 -4 29 -10z m-480 -20 c-3 -4 -15 -6 -27 -2 -21 5 -21 6 -2 12 21 8
37 3 29 -10z m-155 6 c0 -11 -19 -15 -25 -6 -3 5 1 10 9 10 9 0 16 -2 16 -4z"/>
<path d="M26670 7606 c-125 -83 -167 -220 -82 -269 43 -25 89 -16 131 25 44
43 62 80 68 142 4 42 1 57 -19 86 -29 43 -52 46 -98 16z"/>
<path d="M22341 714 c0 -11 3 -14 6 -6 3 7 2 16 -1 19 -3 4 -6 -2 -5 -13z"/>
<path d="M23040 642 c0 -17 -6 -22 -24 -22 -14 0 -28 5 -31 10 -7 11 -35 -5
-35 -20 0 -9 150 -1 175 10 11 5 29 11 40 13 12 3 8 5 -12 6 -17 0 -35 -3 -38
-9 -10 -17 -37 -11 -56 12 l-19 21 0 -21z"/>
<path d="M22764 611 c-5 -5 -18 -11 -29 -14 -18 -4 -18 -5 5 -14 15 -7 29 -7
35 -2 5 5 20 10 35 10 20 1 21 2 5 6 -11 3 -25 9 -31 14 -6 5 -14 5 -20 0z"/>
<path d="M22227 10644 c-14 -14 -7 -35 11 -32 9 2 17 10 17 17 0 16 -18 25
-28 15z"/>
<path d="M22030 10620 c0 -5 4 -10 9 -10 6 0 13 5 16 10 3 6 -1 10 -9 10 -9 0
-16 -4 -16 -10z"/>
<path d="M22132 10618 c6 -18 28 -21 28 -4 0 9 -7 16 -16 16 -9 0 -14 -5 -12
-12z"/>
<path d="M23061 10074 c0 -11 3 -14 6 -6 3 7 2 16 -1 19 -3 4 -6 -2 -5 -13z"/>
<path d="M22415 9920 c4 -6 11 -8 16 -5 14 9 11 15 -7 15 -8 0 -12 -5 -9 -10z"/>
<path d="M20691 9109 c-40 -113 -61 -191 -65 -241 -4 -41 -1 -45 19 -25 42 42
90 224 83 317 l-3 43 -34 -94z"/>
<path d="M23755 8853 c5 -84 11 -122 22 -133 13 -13 14 -11 8 25 -3 22 -6 54
-6 70 -2 78 -12 155 -21 155 -7 0 -8 -40 -3 -117z"/>
<path d="M19269 8686 c-2 -3 -78 -10 -169 -16 -117 -7 -169 -15 -180 -25 -9
-8 -32 -20 -51 -26 -19 -7 -45 -20 -59 -29 -37 -25 -61 -32 -75 -20 -18 15
-55 -7 -116 -69 -29 -28 -60 -51 -71 -51 -10 0 -21 -7 -24 -15 -4 -8 -12 -15
-20 -15 -8 0 -14 -4 -14 -8 0 -4 -13 -15 -29 -25 -124 -73 -241 -275 -241
-416 0 -25 -6 -51 -15 -61 -9 -10 -17 -48 -21 -101 -4 -46 -11 -90 -17 -97 -7
-9 -7 -16 1 -24 7 -7 12 -36 12 -65 0 -29 4 -53 9 -53 5 0 4 -14 -2 -30 -9
-25 -9 -33 2 -39 11 -7 10 -11 -6 -20 -17 -8 -20 -21 -21 -66 0 -30 4 -55 9
-55 5 0 9 -4 9 -10 0 -5 -5 -10 -11 -10 -17 0 -39 -27 -39 -49 0 -24 -28 -29
-36 -6 -4 8 -18 15 -33 14 -14 0 -20 -3 -13 -6 16 -6 132 -126 132 -136 0 -4
5 -13 11 -20 6 -7 23 -34 37 -62 26 -46 100 -115 164 -150 49 -27 385 -274
473 -347 18 -16 36 -28 41 -28 4 0 21 -12 36 -27 26 -25 28 -25 28 -7 0 11 6
29 14 40 11 13 13 35 9 74 -5 52 -3 57 32 97 52 61 198 133 269 133 79 -1 184
-18 211 -36 13 -9 32 -14 41 -12 31 6 82 208 100 397 6 60 11 77 30 94 33 29
29 89 -8 128 -7 8 -42 49 -77 92 l-64 78 11 72 c15 102 22 129 41 150 12 14
15 35 13 80 -2 34 1 74 6 88 6 14 16 88 22 165 7 76 16 141 21 142 15 6 10 22
-6 22 -8 0 -30 14 -48 30 -28 24 -44 30 -79 30 l-45 0 -39 -87 c-42 -96 -63
-132 -121 -207 -60 -78 -183 -196 -204 -196 -22 0 -37 43 -21 63 21 26 56 95
79 157 13 36 27 74 32 85 11 26 37 141 53 228 9 54 9 73 -1 89 -8 12 -9 24 -3
31 5 7 13 31 17 54 3 22 15 49 25 58 11 10 17 22 14 26 -6 10 -18 12 -25 5z
m-559 -161 c0 -15 -34 -55 -46 -55 -24 0 -28 30 -8 45 19 14 54 20 54 10z
m-80 -155 c0 -5 -4 -10 -10 -10 -5 0 -10 5 -10 10 0 6 5 10 10 10 6 0 10 -4
10 -10z"/>
<path d="M20530 8582 c-30 -14 -56 -30 -58 -34 -2 -4 -12 -8 -22 -8 -10 0 -20
-7 -23 -15 -3 -8 -26 -23 -52 -35 -25 -11 -45 -25 -45 -30 0 -6 -9 -10 -20
-10 -11 0 -20 -4 -20 -10 0 -5 -7 -10 -15 -10 -8 0 -25 -10 -38 -22 -13 -13
-32 -28 -43 -35 -18 -10 -18 -11 -1 -18 10 -4 28 -3 40 3 12 6 31 13 42 16 11
3 32 17 46 30 14 13 35 27 47 30 12 4 22 11 22 16 0 4 8 10 18 14 9 3 31 15
47 26 17 11 42 25 58 31 15 6 27 15 27 20 0 5 6 9 14 9 8 0 17 7 20 16 3 8 10
12 16 9 5 -3 10 3 10 14 0 26 -3 26 -70 -7z"/>
<path d="M23555 8300 c-4 -6 13 -10 43 -10 60 0 130 -20 172 -50 17 -12 43
-22 56 -22 18 0 22 -4 14 -13 -13 -16 24 -65 48 -64 11 0 12 2 5 6 -7 2 -13
14 -13 26 -1 27 -27 59 -66 81 -16 9 -42 25 -59 36 -23 14 -50 19 -112 19 -45
1 -85 -3 -88 -9z"/>
<path d="M23488 8293 c-16 -2 -28 -9 -28 -14 0 -14 24 -11 46 6 10 8 17 14 14
13 -3 0 -17 -3 -32 -5z"/>
<path d="M23413 8223 c-7 -15 -13 -41 -13 -57 1 -26 2 -28 11 -13 10 17 39 24
39 8 0 -5 -7 -28 -15 -51 -18 -50 -13 -60 25 -60 16 0 41 -5 55 -10 15 -6 66
-17 113 -25 78 -14 91 -19 121 -51 29 -31 35 -34 43 -20 13 24 24 20 47 -19
11 -19 27 -35 36 -35 21 0 19 7 -15 50 -33 41 -37 55 -17 63 6 2 18 21 25 41
13 35 12 38 -13 58 -15 12 -35 29 -44 39 -11 12 -21 15 -31 9 -26 -16 -152 1
-199 26 -45 25 -71 20 -71 -12 0 -32 -40 -3 -66 48 l-19 37 -12 -26z"/>
<path d="M23891 8012 c-10 -35 -9 -46 3 -64 l15 -21 11 27 c14 37 13 59 -4 81
-13 18 -15 17 -25 -23z"/>
<path d="M20396 7908 c-8 -25 -19 -93 -17 -105 1 -6 -3 -14 -9 -18 -5 -3 -10
-21 -10 -40 0 -19 -5 -45 -11 -58 -9 -19 -6 -33 12 -73 13 -27 36 -62 52 -77
16 -15 39 -52 53 -82 27 -63 27 -63 139 -40 40 9 113 20 162 25 148 17 273 39
272 49 0 3 -35 23 -77 43 -43 21 -101 54 -131 73 -29 19 -56 35 -60 35 -4 0
-16 8 -27 18 -10 9 -46 35 -79 56 -55 36 -134 97 -228 176 -26 22 -38 27 -41
18z"/>
<path d="M23480 7790 c0 -5 9 -10 20 -10 11 0 20 5 20 10 0 6 -9 10 -20 10
-11 0 -20 -4 -20 -10z"/>
<path d="M23645 7756 c31 -16 125 -22 125 -8 0 4 -12 7 -27 8 -16 1 -50 4 -78
8 -49 6 -50 6 -20 -8z"/>
<path d="M23790 7750 c0 -5 9 -10 21 -10 11 0 17 5 14 10 -3 6 -13 10 -21 10
-8 0 -14 -4 -14 -10z"/>
<path d="M21526 7475 c-4 -11 -12 -14 -26 -10 -12 4 -26 2 -33 -3 -16 -13
-107 -25 -107 -15 0 12 -122 14 -136 2 -8 -7 -14 -7 -19 1 -7 12 -125 14 -125
2 0 -11 -68 -35 -79 -27 -5 3 -12 1 -16 -5 -3 -5 -13 -10 -22 -10 -9 0 -24 -9
-34 -21 -10 -11 -22 -18 -28 -15 -5 4 -29 3 -53 -1 l-43 -7 35 -7 c38 -8 88
-2 107 13 7 6 19 4 31 -3 16 -10 23 -10 36 0 13 11 19 11 31 1 8 -6 20 -8 27
-4 7 5 37 10 66 11 30 2 61 7 70 12 10 5 46 12 82 16 36 4 70 11 75 15 12 8
113 21 199 25 32 1 61 7 65 13 3 5 17 12 31 15 22 4 21 4 -6 6 -17 0 -46 -4
-64 -11 -28 -9 -35 -8 -45 6 -11 15 -13 15 -19 1z m-446 -65 c0 -5 -7 -10 -16
-10 -8 0 -12 5 -9 10 3 6 10 10 16 10 5 0 9 -4 9 -10z"/>
<path d="M20720 7361 c0 -11 50 -24 58 -16 8 8 -19 25 -40 25 -10 0 -18 -4
-18 -9z"/>
<path d="M19666 7153 c-3 -3 -6 -26 -6 -50 0 -23 -3 -43 -8 -43 -4 0 -7 -24
-7 -52 0 -29 -6 -64 -12 -79 -12 -24 -25 -84 -27 -124 -1 -11 5 -19 12 -17 7
1 20 -4 28 -13 9 -8 27 -18 42 -21 15 -3 37 -10 49 -16 13 -6 26 -8 30 -5 3 4
-2 7 -11 7 -10 0 -16 6 -13 13 2 6 10 11 16 10 15 -4 14 13 -2 29 -25 24 -48
158 -28 158 7 0 11 22 10 58 l-1 57 -9 -40 c-24 -101 -65 -54 -50 58 1 4 10 7
22 7 19 0 19 1 5 16 -9 8 -16 22 -16 29 0 16 -14 27 -24 18z m32 -223 c4 -38
-14 -63 -28 -40 -8 12 -10 10 -10 -7 0 -13 -5 -23 -11 -23 -14 0 -3 63 11 68
6 2 10 13 10 24 0 33 25 14 28 -22z"/>
<path d="M20810 7131 c0 -14 -7 -32 -16 -42 -10 -11 -12 -19 -5 -24 6 -3 11 1
11 9 0 22 27 20 33 -1 4 -17 5 -16 6 0 1 25 33 18 46 -11 5 -12 13 -22 18 -22
5 0 15 -6 23 -14 7 -8 22 -12 33 -9 11 3 26 0 33 -6 7 -7 29 -20 48 -30 20
-11 34 -26 34 -35 -1 -11 7 -16 25 -17 33 -2 42 -3 63 -13 10 -4 23 -6 30 -3
7 3 3 6 -9 6 -18 1 -23 7 -23 26 0 16 6 25 15 25 8 0 15 -4 15 -10 0 -5 5 -10
10 -10 15 0 12 16 -5 34 -18 18 -19 33 -2 39 21 7 -11 36 -33 30 -14 -4 -20 0
-20 11 0 11 -9 16 -27 16 -25 0 -25 -1 -9 -19 12 -13 14 -21 6 -26 -14 -9 -42
14 -36 30 10 26 -12 39 -64 36 -42 -2 -51 1 -47 12 4 11 0 13 -14 10 -13 -4
-19 0 -19 12 0 13 -3 15 -13 6 -8 -6 -17 -8 -20 -4 -4 3 -7 1 -7 -5 0 -7 -9
-12 -20 -12 -11 0 -20 5 -20 11 0 5 -5 7 -11 3 -6 -3 -15 0 -20 7 -6 10 -9 7
-9 -10z"/>
<path d="M21237 6943 c-4 -6 -3 -14 2 -18 13 -7 42 -67 37 -73 -8 -7 -26 9
-21 19 10 16 -7 10 -19 -7 -9 -11 -28 -16 -63 -16 -33 1 -56 -4 -63 -14 -11
-12 -4 -14 43 -14 31 0 58 4 62 10 4 6 15 6 30 0 16 -6 25 -6 25 0 0 6 33 11
73 12 59 1 63 2 22 5 -59 5 -75 16 -75 53 0 23 -4 27 -19 23 -13 -3 -20 1 -23
14 -2 12 -6 14 -11 6z"/>
<path d="M21550 6940 c0 -5 5 -10 10 -10 17 0 11 -48 -7 -59 -14 -7 -15 -13
-6 -22 6 -6 17 -8 25 -3 7 5 38 9 68 9 61 1 120 13 120 25 0 9 -136 7 -146 -3
-20 -20 -33 -6 -29 33 3 34 1 40 -16 40 -10 0 -19 -4 -19 -10z"/>
<path d="M21875 6890 c-19 -8 -19 -9 2 -9 12 -1 25 4 28 9 7 12 -2 12 -30 0z"/>
<path d="M21938 6893 c7 -3 16 -2 19 1 4 3 -2 6 -13 5 -11 0 -14 -3 -6 -6z"/>
<path d="M22008 6893 c7 -3 16 -2 19 1 4 3 -2 6 -13 5 -11 0 -14 -3 -6 -6z"/>
<path d="M21476 6854 c-5 -12 0 -15 21 -12 14 2 28 9 31 16 6 18 -45 15 -52
-4z"/>
<path d="M21435 6850 c-3 -5 1 -10 10 -10 9 0 13 5 10 10 -3 6 -8 10 -10 10
-2 0 -7 -4 -10 -10z"/>
<path d="M21013 6823 c15 -2 39 -2 55 0 15 2 2 4 -28 4 -30 0 -43 -2 -27 -4z"/>
<path d="M19283 6755 c-7 -8 -13 -29 -14 -47 0 -18 -3 -27 -6 -20 -8 21 -24
13 -21 -10 2 -19 -1 -22 -19 -20 -13 2 -23 -1 -23 -6 0 -6 -27 -8 -62 -5 -52
3 -69 1 -96 -17 -26 -16 -32 -25 -27 -41 4 -11 2 -25 -3 -32 -21 -25 -17 -56
11 -85 l28 -29 -16 -59 c-9 -33 -17 -66 -20 -74 -2 -8 -8 -26 -13 -41 -6 -14
-8 -37 -5 -51 3 -14 0 -29 -6 -32 -6 -4 -11 -23 -11 -42 0 -19 -4 -34 -10 -34
-5 0 -10 -18 -10 -39 0 -22 -4 -43 -10 -46 -5 -3 -10 -10 -10 -16 0 -23 47 -3
156 67 66 41 157 94 204 117 47 22 87 45 88 49 2 4 10 8 18 8 18 0 57 21 67
37 4 7 14 10 22 6 9 -3 21 0 29 6 7 6 20 9 28 6 8 -3 28 1 44 10 16 8 36 15
45 15 8 0 25 9 37 20 12 11 30 20 42 20 14 0 20 6 20 23 -1 21 -1 21 -11 3 -9
-15 -13 -16 -21 -5 -7 11 -11 11 -15 1 -2 -6 -9 -9 -14 -6 -6 4 -6 10 0 18 7
9 -2 16 -37 26 -26 7 -60 21 -77 31 -16 10 -55 30 -85 45 -30 15 -63 39 -74
52 -11 14 -26 22 -37 19 -10 -3 -20 2 -23 9 -3 8 -17 19 -31 24 -17 6 -23 14
-18 26 3 9 0 20 -8 25 -10 6 -10 9 -1 9 6 0 12 8 12 17 0 9 3 13 7 10 3 -4 6
-20 5 -35 0 -25 3 -29 29 -29 16 0 29 5 30 11 0 6 4 1 9 -11 5 -13 21 -24 42
-28 40 -8 77 -21 143 -50 106 -47 106 -47 125 -30 16 14 19 14 32 1 12 -11 18
-12 27 -3 16 16 14 30 -3 24 -8 -3 -20 1 -27 9 -6 8 -17 14 -23 13 -6 -1 -18
-1 -26 0 -12 1 -13 3 -1 10 7 5 10 14 6 20 -5 9 -10 9 -21 0 -11 -9 -14 -7
-14 14 0 26 -49 77 -75 77 -18 0 -8 -29 17 -51 21 -19 25 -37 5 -20 -9 7 -24
8 -43 2 -16 -4 -44 -6 -62 -3 -27 3 -32 9 -32 31 0 34 -9 47 -40 56 -14 4 -34
15 -45 24 -19 15 -62 41 -67 41 -2 -1 -9 -7 -15 -15z"/>
<path d="M19805 6604 c59 -48 99 -69 114 -59 17 10 6 20 -59 54 -71 37 -96 40
-55 5z"/>
<path d="M19800 6521 c0 -5 7 -12 16 -15 24 -9 28 -7 14 9 -14 17 -30 20 -30
6z"/>
<path d="M21175 5970 c-18 -8 -17 -9 8 -9 16 -1 26 3 22 9 -3 6 -7 10 -8 9 -1
0 -11 -4 -22 -9z"/>
<path d="M15560 5805 c0 -11 5 -37 11 -57 l10 -38 57 0 57 0 -35 21 c-19 11
-49 37 -67 57 -27 31 -32 34 -33 17z"/>
<path d="M21796 5713 c-6 -14 -5 -15 5 -6 7 7 10 15 7 18 -3 3 -9 -2 -12 -12z"/>
<path d="M16086 5673 c2 -21 5 -47 8 -58 2 -11 5 -23 5 -27 1 -5 8 -8 16 -8
17 0 21 35 5 45 -5 3 -10 19 -10 34 0 16 -6 34 -14 40 -11 9 -13 4 -10 -26z"/>
<path d="M15768 5673 c7 -3 19 -18 27 -34 13 -24 22 -29 50 -29 19 0 35 3 35
8 -1 14 -81 62 -103 61 -12 0 -16 -3 -9 -6z"/>
<path d="M21800 5669 c0 -6 9 -13 20 -16 11 -3 20 -12 20 -19 0 -8 4 -14 9
-14 5 0 11 -14 15 -30 3 -17 15 -40 26 -52 17 -19 20 -35 20 -127 0 -66 4
-101 9 -92 7 11 12 10 22 -8 8 -11 22 -21 32 -21 20 0 47 -22 47 -38 0 -6 7
-12 15 -16 8 -3 15 -12 15 -21 0 -9 9 -15 26 -15 21 0 24 -4 19 -20 -4 -12 -2
-20 5 -20 7 0 14 9 17 20 5 20 23 28 23 11 0 -5 8 -7 18 -5 13 4 23 -8 39 -44
13 -27 30 -55 38 -62 21 -17 19 -30 -5 -30 -11 0 -20 -7 -20 -15 0 -17 26 -20
35 -5 5 8 11 7 21 -1 11 -9 14 -8 14 4 0 8 6 20 14 26 18 15 66 -2 66 -24 0
-9 9 -15 25 -15 20 0 25 -5 25 -24 0 -14 5 -28 10 -31 6 -3 10 -15 10 -26 0
-29 28 -55 43 -40 8 8 5 17 -11 34 -12 13 -22 34 -22 48 0 14 -4 29 -9 35 -5
5 -12 19 -16 32 -5 16 -2 22 9 22 22 0 20 8 -6 31 -18 14 -19 18 -7 19 25 0
49 -33 42 -58 -4 -16 -1 -22 12 -22 12 0 16 -6 12 -20 -3 -10 1 -25 9 -31 11
-9 11 -15 3 -25 -9 -11 -6 -16 14 -23 35 -13 39 -25 16 -41 -10 -8 -19 -20
-19 -27 0 -15 26 -18 35 -4 11 18 65 40 71 29 4 -6 9 -5 15 3 4 7 11 10 15 6
8 -8 -14 -37 -28 -37 -5 0 -16 -7 -24 -15 -17 -16 -11 -35 11 -35 7 0 16 -6
18 -12 3 -8 6 -7 6 4 1 9 -4 20 -9 23 -24 15 6 25 76 25 62 0 76 -3 81 -17 10
-27 30 -43 52 -43 12 0 21 -6 21 -12 0 -19 46 -38 59 -25 16 16 14 34 -4 41
-9 3 -15 0 -15 -9 0 -27 -28 -16 -33 13 -5 27 7 52 26 52 6 0 19 7 29 17 17
15 19 15 36 0 21 -19 42 -22 42 -6 0 20 -29 39 -59 39 -34 0 -36 2 -21 31 10
17 7 19 -24 19 -32 0 -46 -13 -46 -43 0 -8 3 -8 8 1 5 7 16 10 25 6 21 -8 23
-54 2 -54 -8 0 -15 5 -15 10 0 6 -4 10 -10 10 -5 0 -10 -6 -10 -13 0 -17 -34
-49 -43 -41 -3 3 -2 17 4 31 16 43 11 73 -11 73 -25 0 -80 52 -62 58 7 2 12
12 12 23 0 21 16 26 23 7 3 -8 6 -6 6 5 1 9 -6 17 -14 17 -8 0 -15 6 -16 13 0
6 -5 1 -10 -12 l-10 -24 -32 31 c-18 18 -38 32 -45 32 -7 0 -12 7 -12 15 0 9
-9 15 -22 15 -22 0 -48 36 -48 67 0 20 17 15 23 -6 3 -11 17 -22 35 -26 18 -4
34 -15 37 -26 8 -23 18 -24 35 -4 10 12 10 15 -3 15 -8 0 -20 7 -27 15 -26 32
38 63 68 33 9 -9 12 -9 12 3 0 21 -60 46 -70 29 -14 -23 -40 -3 -40 30 0 28
-2 30 -15 16 -8 -8 -15 -24 -15 -35 0 -12 -4 -21 -10 -21 -5 0 -10 5 -10 10 0
19 -28 10 -33 -11 -3 -12 -10 -18 -16 -15 -6 4 -8 13 -5 21 3 8 -3 26 -14 39
-17 23 -20 24 -35 8 -9 -8 -20 -12 -24 -8 -5 5 -2 11 5 13 6 3 12 17 11 31 0
26 -1 26 -9 5 -10 -25 -25 -30 -35 -12 -4 5 1 19 10 29 13 14 25 17 52 13 31
-5 35 -4 31 13 -3 16 -12 19 -50 17 -42 -2 -46 -1 -53 24 -4 19 -9 23 -14 14
-6 -9 -11 -10 -15 -2 -4 6 -15 11 -25 11 -21 0 -78 27 -87 41 -12 20 4 19 44
-3 40 -21 61 -21 47 1 -3 6 -17 11 -30 11 -13 0 -27 5 -30 10 -3 6 -15 10 -26
10 -24 0 -37 29 -18 40 7 5 10 12 7 15 -12 12 -28 -6 -28 -31 0 -13 -2 -24 -5
-24 -10 0 -75 72 -75 83 0 8 -4 7 -12 -1 -7 -7 -34 -12 -61 -12 -44 0 -49 2
-44 20 3 11 1 23 -4 26 -5 3 -9 -2 -9 -10 0 -15 -37 -32 -48 -21 -3 3 -1 15 6
25 7 11 9 20 4 20 -4 0 -16 15 -27 33 -15 25 -20 28 -23 15 -5 -26 -32 -22
-33 5 l0 22 -10 -24 c-7 -17 -12 -21 -22 -13 -23 19 -67 33 -67 21z m310 -160
c0 -5 -7 -9 -15 -9 -15 0 -20 12 -9 23 8 8 24 -1 24 -14z m65 -49 c3 -5 -3
-10 -14 -10 -12 0 -21 5 -21 10 0 6 6 10 14 10 8 0 18 -4 21 -10z m-240 -19
c3 -5 1 -12 -5 -16 -5 -3 -10 1 -10 9 0 18 6 21 15 7z m385 -51 c0 -5 -4 -10
-10 -10 -5 0 -10 5 -10 10 0 6 5 10 10 10 6 0 10 -4 10 -10z m56 -41 c9 -15
-12 -33 -31 -25 -13 5 -14 8 -3 20 16 18 25 20 34 5z m-246 -13 c0 -3 -4 -8
-10 -11 -5 -3 -10 -1 -10 4 0 6 5 11 10 11 6 0 10 -2 10 -4z m-65 -36 c3 -6
-1 -13 -10 -16 -19 -8 -30 0 -20 15 8 14 22 14 30 1z m215 -40 c0 -5 -5 -10
-11 -10 -5 0 -7 5 -4 10 3 6 8 10 11 10 2 0 4 -4 4 -10z m-133 -19 c14 -23 5
-35 -14 -20 -14 12 -18 39 -5 39 4 0 13 -9 19 -19z m283 -69 c0 -14 -11 -21
-26 -15 -21 8 -17 23 6 23 11 0 20 -4 20 -8z m-160 -16 c0 -11 -19 -15 -25 -6
-3 5 1 10 9 10 9 0 16 -2 16 -4z m63 -29 c-3 -5 -10 -4 -15 1 -6 6 -7 16 -3
22 6 9 9 9 16 -1 4 -7 5 -17 2 -22z m217 8 c0 -8 -6 -15 -14 -15 -17 0 -28 14
-19 24 12 12 33 6 33 -9z m-70 -5 c0 -5 -4 -10 -10 -10 -5 0 -10 5 -10 10 0 6
5 10 10 10 6 0 10 -4 10 -10z m-196 -21 c-3 -5 -10 -7 -15 -3 -5 3 -7 10 -3
15 3 5 10 7 15 3 5 -3 7 -10 3 -15z m266 -10 c0 24 36 10 49 -19 10 -24 10
-34 1 -45 -7 -8 -8 -15 -3 -15 5 0 10 -13 10 -30 0 -32 -6 -37 -25 -18 -8 8
-15 8 -26 -1 -13 -11 -18 -10 -31 2 -22 23 -19 27 22 27 35 0 36 1 17 15 -16
13 -17 16 -4 24 12 8 12 13 3 22 -9 9 -15 9 -26 0 -11 -9 -17 -8 -27 4 -17 21
6 51 26 34 10 -8 14 -8 14 0z m-270 -19 c0 -5 -4 -10 -10 -10 -5 0 -10 5 -10
10 0 6 5 10 10 10 6 0 10 -4 10 -10z m380 -44 c0 -18 -17 -29 -30 -21 -8 5 -7
11 1 21 15 18 29 18 29 0z m40 -66 c0 -5 -4 -10 -10 -10 -5 0 -10 5 -10 10 0
6 5 10 10 10 6 0 10 -4 10 -10z m-11 -33 c15 9 22 7 39 -9 18 -18 23 -19 37
-8 20 17 32 5 15 -15 -7 -8 -27 -15 -45 -15 -19 0 -35 -6 -38 -12 -5 -17 -37
8 -37 28 0 8 -6 14 -14 14 -19 0 -29 17 -22 37 5 13 10 12 27 -8 16 -19 23
-21 38 -12z m-119 -17 c0 -5 -4 -10 -10 -10 -5 0 -10 5 -10 10 0 6 5 10 10 10
6 0 10 -4 10 -10z"/>
<path d="M15663 5531 c-15 -25 -17 -71 -3 -71 6 0 10 -13 10 -28 0 -34 23 -48
92 -57 l48 -6 -5 62 c-5 66 -17 89 -45 89 -10 0 -20 4 -22 10 -1 5 -16 12 -33
15 -23 5 -33 2 -42 -14z"/>
<path d="M22365 5520 c3 -5 11 -10 16 -10 6 0 7 5 4 10 -3 6 -11 10 -16 10 -6
0 -7 -4 -4 -10z"/>
<path d="M22540 5311 c0 -6 -9 -11 -21 -11 -18 0 -19 -2 -5 -15 17 -17 42 -20
51 -5 3 6 -1 17 -9 26 -9 8 -16 11 -16 5z"/>
<path d="M16130 5290 c0 -5 6 -10 14 -10 8 0 18 5 21 10 3 6 -3 10 -14 10 -12
0 -21 -4 -21 -10z"/>
<path d="M17845 5219 c-100 -50 -168 -89 -199 -116 -13 -11 -38 -24 -55 -28
-17 -4 -31 -13 -31 -21 0 -8 -9 -14 -19 -14 -12 0 -23 -11 -29 -27 -10 -27
-10 -27 -11 -4 -1 20 -3 21 -16 11 -8 -7 -15 -21 -15 -31 0 -13 -7 -19 -21
-19 -22 0 -49 -22 -49 -39 0 -15 13 -14 28 1 10 10 15 10 23 -2 8 -13 13 -11
30 9 18 22 23 23 41 12 13 -8 24 -9 30 -3 6 6 6 12 -1 16 -17 11 -13 23 9 29
11 3 20 12 20 20 0 9 11 15 33 15 70 3 82 4 87 10 11 15 51 32 74 32 14 0 28
5 31 10 3 6 17 10 31 10 13 0 24 5 24 10 0 6 15 10 34 10 19 0 37 4 41 9 7 13
64 41 82 41 15 0 36 47 27 61 -3 5 -20 9 -38 9 -19 0 -39 7 -46 15 -17 21 -24
19 -115 -26z"/>
<path d="M21910 5250 c0 -5 14 -10 31 -10 23 0 32 -5 36 -20 4 -16 8 -18 19
-9 11 9 10 15 -10 30 -25 20 -76 26 -76 9z"/>
<path d="M18143 5232 c-34 -2 -43 -7 -43 -21 0 -10 8 -20 18 -23 25 -5 202 13
202 21 0 10 -127 27 -177 23z"/>
<path d="M22020 5175 c0 -8 5 -15 10 -15 6 0 10 7 10 15 0 8 -4 15 -10 15 -5
0 -10 -7 -10 -15z"/>
<path d="M22740 5163 c0 -13 29 -38 35 -31 3 3 -4 13 -15 23 -11 10 -20 13
-20 8z"/>
<path d="M22720 5108 c0 -13 44 -38 67 -38 7 0 13 7 13 16 0 8 -5 12 -10 9 -6
-4 -22 0 -35 9 -29 19 -35 20 -35 4z"/>
<path d="M22938 5113 c7 -3 16 -2 19 1 4 3 -2 6 -13 5 -11 0 -14 -3 -6 -6z"/>
<path d="M22853 5093 c9 -2 23 -2 30 0 6 3 -1 5 -18 5 -16 0 -22 -2 -12 -5z"/>
<path d="M22920 5070 c0 -5 5 -10 11 -10 5 0 7 5 4 10 -3 6 -8 10 -11 10 -2 0
-4 -4 -4 -10z"/>
<path d="M24280 5060 c0 -5 5 -10 10 -10 6 0 10 5 10 10 0 6 -4 10 -10 10 -5
0 -10 -4 -10 -10z"/>
<path d="M22970 5037 c27 -15 36 -14 25 2 -3 6 -16 11 -28 11 -21 0 -21 -1 3
-13z"/>
<path d="M20916 5005 c-20 -14 -41 -25 -45 -25 -5 0 -14 -7 -21 -15 -10 -11
-9 -18 3 -30 9 -8 22 -15 30 -15 37 0 98 -46 121 -92 6 -12 16 -23 21 -25 16
-5 38 55 30 85 -3 15 -9 43 -11 62 -12 85 -56 104 -128 55z"/>
<path d="M22765 5000 c-10 -17 5 -30 33 -29 24 2 24 2 5 6 -13 2 -23 8 -23 13
0 5 10 11 23 13 19 4 19 4 -5 6 -15 0 -30 -3 -33 -9z"/>
<path d="M22340 4994 c0 -20 25 -64 38 -64 19 0 14 40 -5 47 -10 4 -21 11 -25
17 -5 8 -8 8 -8 0z"/>
<path d="M22970 4945 c0 -8 7 -15 15 -15 7 0 19 -8 24 -17 10 -17 10 -17 11 0
0 20 -22 47 -39 47 -6 0 -11 -7 -11 -15z"/>
<path d="M24319 4955 c-11 -18 2 -85 17 -85 8 0 14 7 14 15 0 8 -4 15 -9 15
-6 0 -11 15 -13 33 -2 17 -6 28 -9 22z"/>
<path d="M23028 4843 c7 -3 16 -2 19 1 4 3 -2 6 -13 5 -11 0 -14 -3 -6 -6z"/>
<path d="M23150 4833 c0 -10 4 -14 8 -8 4 6 11 13 16 18 5 4 2 7 -7 7 -10 0
-17 -8 -17 -17z"/>
<path d="M24340 4829 c0 -11 4 -18 10 -14 5 3 7 12 3 20 -7 21 -13 19 -13 -6z"/>
<path d="M20805 4810 c-3 -5 -21 -10 -38 -10 -36 -1 -122 -22 -133 -33 -4 -4
-13 -7 -20 -7 -8 0 -37 -11 -66 -24 -29 -13 -66 -29 -82 -35 -22 -9 -26 -15
-17 -24 9 -9 16 -9 31 1 12 7 60 12 129 12 60 0 111 4 113 9 2 5 43 12 93 15
72 6 94 11 112 28 30 28 29 50 -4 66 -32 14 -109 16 -118 2z"/>
<path d="M22997 4803 c-13 -12 -7 -33 8 -33 8 0 15 -6 15 -14 0 -7 7 -19 15
-26 21 -17 20 6 -1 48 -15 32 -25 38 -37 25z"/>
<path d="M22780 4776 c0 -9 7 -16 16 -16 17 0 14 22 -4 28 -7 2 -12 -3 -12
-12z"/>
<path d="M22951 4764 c0 -11 3 -14 6 -6 3 7 2 16 -1 19 -3 4 -6 -2 -5 -13z"/>
<path d="M23095 4770 c-3 -6 2 -13 12 -17 10 -4 21 -11 25 -17 4 -6 8 1 8 17
0 20 -5 27 -19 27 -11 0 -23 -5 -26 -10z"/>
<path d="M23260 4767 c0 -10 8 -17 18 -17 9 0 13 4 7 8 -5 4 -13 11 -17 16 -5
5 -8 2 -8 -7z"/>
<path d="M22701 4744 c0 -11 3 -14 6 -6 3 7 2 16 -1 19 -3 4 -6 -2 -5 -13z"/>
<path d="M22792 4690 c0 -19 2 -27 5 -17 2 9 2 25 0 35 -3 9 -5 1 -5 -18z"/>
<path d="M22924 4709 c-3 -6 -1 -16 5 -22 8 -8 11 -5 11 11 0 24 -5 28 -16 11z"/>
<path d="M22970 4694 c0 -14 3 -15 18 -3 9 7 19 15 21 16 2 2 -5 3 -17 3 -14
0 -22 -6 -22 -16z"/>
<path d="M23080 4695 c0 -9 9 -15 21 -15 18 0 19 2 5 15 -8 8 -17 15 -20 15
-3 0 -6 -7 -6 -15z"/>
<path d="M23043 4636 c5 -16 57 -27 57 -11 0 7 -14 15 -30 17 -18 3 -29 0 -27
-6z"/>
<path d="M22940 4630 c0 -5 5 -10 10 -10 6 0 10 5 10 10 0 6 -4 10 -10 10 -5
0 -10 -4 -10 -10z"/>
<path d="M23138 4573 c7 -3 16 -2 19 1 4 3 -2 6 -13 5 -11 0 -14 -3 -6 -6z"/>
<path d="M18920 4540 c0 -5 5 -10 11 -10 5 0 7 5 4 10 -3 6 -8 10 -11 10 -2 0
-4 -4 -4 -10z"/>
<path d="M19440 4496 c0 -9 6 -16 14 -16 8 0 31 -9 53 -21 31 -16 44 -18 66
-10 15 6 27 15 27 21 0 5 -1 10 -3 10 -9 0 -124 22 -139 26 -12 4 -18 0 -18
-10z"/>
<path d="M18998 4463 c7 -3 16 -2 19 1 4 3 -2 6 -13 5 -11 0 -14 -3 -6 -6z"/>
<path d="M18970 4430 c0 -5 5 -10 10 -10 6 0 10 5 10 10 0 6 -4 10 -10 10 -5
0 -10 -4 -10 -10z"/>
<path d="M19053 4395 c14 -29 20 -31 37 -10 10 12 8 16 -15 25 -35 13 -35 14
-22 -15z"/>
<path d="M19194 4355 c-1 -15 3 -25 12 -25 8 0 14 10 14 25 0 33 -25 33 -26 0z"/>
<path d="M19060 4340 c0 -5 5 -10 10 -10 6 0 10 5 10 10 0 6 -4 10 -10 10 -5
0 -10 -4 -10 -10z"/>
<path d="M19150 4340 c0 -5 5 -10 10 -10 6 0 10 5 10 10 0 6 -4 10 -10 10 -5
0 -10 -4 -10 -10z"/>
<path d="M16218 4308 c-32 -16 -58 -36 -58 -44 0 -10 -8 -14 -22 -12 -15 2
-24 -2 -24 -12 -4 -33 -17 -60 -30 -60 -8 0 -14 9 -14 20 0 13 -6 20 -17 19
-11 0 -13 -3 -5 -6 20 -8 14 -22 -8 -16 -11 3 -27 -2 -37 -13 -10 -10 -16 -18
-14 -18 2 -1 1 -11 -3 -24 -6 -17 -1 -32 18 -57 14 -18 26 -43 26 -54 0 -21
32 -61 49 -61 18 0 57 -163 46 -193 -4 -8 0 -17 9 -20 8 -3 22 -22 31 -41 10
-20 21 -36 26 -36 5 0 9 -7 9 -15 0 -8 5 -15 10 -15 6 0 10 7 10 15 0 8 5 15
10 15 6 0 10 -6 10 -14 0 -11 5 -12 25 -3 25 12 42 37 25 37 -5 0 -14 9 -19
19 -9 16 -8 18 9 14 27 -7 26 15 -2 40 -16 13 -19 21 -10 24 14 6 16 70 2 75
-6 2 -11 36 -12 76 -1 53 -5 72 -15 72 -7 0 -13 5 -13 10 0 6 5 10 10 10 6 0
10 11 10 24 0 14 7 31 15 40 8 8 15 19 15 25 0 6 6 11 13 11 18 0 51 36 44 47
-3 5 8 19 24 32 28 22 39 51 20 51 -5 0 -11 9 -14 20 -4 15 -14 20 -36 20 -21
0 -31 5 -31 15 0 21 -16 18 -82 -17z"/>
<path d="M19280 4323 c0 -6 -9 -9 -20 -6 -14 4 -20 0 -20 -11 0 -9 6 -16 14
-16 17 0 41 28 32 37 -3 3 -6 2 -6 -4z"/>
<path d="M19100 4304 c0 -8 5 -12 10 -9 6 4 8 11 5 16 -9 14 -15 11 -15 -7z"/>
<path d="M19157 4313 c-8 -7 31 -53 45 -53 16 0 8 31 -9 37 -10 4 -21 10 -24
15 -3 5 -8 5 -12 1z"/>
<path d="M19310 4314 c0 -14 32 -37 38 -27 4 5 14 13 22 17 8 3 3 4 -12 1 -16
-3 -28 -1 -28 5 0 5 -4 10 -10 10 -5 0 -10 -3 -10 -6z"/>
<path d="M20536 4303 c-14 -14 -313 -52 -421 -53 -184 -2 -478 10 -506 21 -15
6 -40 9 -55 7 -26 -3 -29 -7 -32 -45 -3 -47 21 -92 50 -93 9 0 19 -6 22 -12 5
-10 7 -10 12 0 3 6 19 12 35 12 16 0 29 5 29 10 0 6 7 10 15 10 8 0 15 -4 15
-10 0 -14 37 -12 43 3 4 10 7 10 18 0 7 -7 22 -13 34 -13 12 0 26 -5 33 -12
17 -17 357 -17 373 0 7 6 23 12 36 12 13 0 23 5 23 10 0 6 20 10 45 10 25 0
45 5 45 10 0 6 8 10 19 10 10 0 32 7 47 15 16 8 39 15 52 15 12 0 22 5 22 10
0 6 7 10 15 10 8 0 32 18 54 40 l39 40 -28 0 c-14 0 -30 -3 -34 -7z"/>
<path d="M19435 4280 c12 -4 27 -15 34 -24 18 -22 -3 -49 -31 -40 -19 6 -19 5
-2 -28 9 -18 23 -37 30 -41 10 -5 14 -30 15 -75 1 -39 4 -57 7 -44 4 12 5 52
4 87 -3 48 -7 65 -18 65 -19 0 -18 19 1 26 19 8 19 51 1 70 -8 8 -25 14 -38
13 -22 0 -22 -1 -3 -9z"/>
<path d="M19240 4255 c0 -8 5 -15 10 -15 6 0 10 7 10 15 0 8 -4 15 -10 15 -5
0 -10 -7 -10 -15z"/>
<path d="M19370 4247 c0 -8 6 -20 14 -26 12 -10 13 -8 9 9 -7 25 -23 37 -23
17z"/>
<path d="M19440 4250 c0 -5 5 -10 10 -10 6 0 10 5 10 10 0 6 -4 10 -10 10 -5
0 -10 -4 -10 -10z"/>
<path d="M19206 4241 c-4 -5 -2 -12 3 -15 5 -4 12 -2 15 3 4 5 2 12 -3 15 -5
4 -12 2 -15 -3z"/>
<path d="M19135 4230 c3 -5 8 -10 11 -10 2 0 4 5 4 10 0 6 -5 10 -11 10 -5 0
-7 -4 -4 -10z"/>
<path d="M19246 4221 c-7 -10 22 -37 30 -28 4 3 -1 13 -9 22 -9 8 -18 11 -21
6z"/>
<path d="M15767 4213 c-20 -36 -13 -131 12 -156 14 -14 71 39 71 65 0 18 -23
61 -47 86 -13 14 -30 16 -36 5z"/>
<path d="M19260 4160 c0 -5 5 -10 10 -10 6 0 10 5 10 10 0 6 -4 10 -10 10 -5
0 -10 -4 -10 -10z"/>
<path d="M19206 4151 c-4 -5 -2 -12 3 -15 5 -4 12 -2 15 3 4 5 2 12 -3 15 -5
4 -12 2 -15 -3z"/>
<path d="M15917 4136 c-10 -25 33 -50 47 -27 10 16 -5 41 -24 41 -10 0 -20 -6
-23 -14z"/>
<path d="M19260 4110 c0 -5 5 -10 10 -10 6 0 10 5 10 10 0 6 -4 10 -10 10 -5
0 -10 -4 -10 -10z"/>
<path d="M19260 4070 c0 -5 5 -10 10 -10 6 0 10 5 10 10 0 6 -4 10 -10 10 -5
0 -10 -4 -10 -10z"/>
<path d="M19290 4055 c-16 -19 -6 -45 17 -45 13 0 14 3 5 12 -8 8 -8 15 -1 24
6 7 6 14 1 18 -6 3 -15 -1 -22 -9z"/>
<path d="M19280 3979 c0 -5 5 -7 10 -4 6 3 10 8 10 11 0 2 -4 4 -10 4 -5 0
-10 -5 -10 -11z"/>
<path d="M19475 3951 c-3 -5 -1 -13 5 -16 8 -5 8 -11 0 -20 -8 -9 -6 -14 5
-19 12 -4 15 2 15 29 0 33 -12 46 -25 26z"/>
<path d="M19295 3930 c-3 -5 1 -10 10 -10 9 0 13 5 10 10 -3 6 -8 10 -10 10
-2 0 -7 -4 -10 -10z"/>
<path d="M19270 3885 c-20 -24 -6 -28 15 -5 10 11 13 20 8 20 -6 0 -16 -7 -23
-15z"/>
<path d="M19295 3861 c-3 -5 -1 -12 5 -16 5 -3 10 1 10 9 0 18 -6 21 -15 7z"/>
<path d="M19476 3861 c-4 -5 -2 -12 3 -15 5 -4 12 -2 15 3 4 5 2 12 -3 15 -5
4 -12 2 -15 -3z"/>
<path d="M19260 3840 c0 -5 5 -10 11 -10 5 0 7 5 4 10 -3 6 -8 10 -11 10 -2 0
-4 -4 -4 -10z"/>
<path d="M19510 3825 c0 -8 -4 -15 -10 -15 -14 0 -13 -47 1 -56 8 -4 7 -9 -2
-15 -10 -6 -8 -12 9 -27 l22 -20 -22 -6 c-21 -6 -22 -7 -5 -17 19 -11 57 -3
57 13 0 5 -10 19 -22 30 -17 14 -19 21 -10 25 10 4 10 8 0 20 -6 8 -11 30 -10
49 2 19 0 34 -3 34 -3 0 -5 -7 -5 -15z"/>
<path d="M16200 3620 c0 -5 5 -10 10 -10 6 0 10 5 10 10 0 6 -4 10 -10 10 -5
0 -10 -4 -10 -10z"/>
<path d="M19225 3600 c3 -5 8 -10 11 -10 2 0 4 5 4 10 0 6 -5 10 -11 10 -5 0
-7 -4 -4 -10z"/>
<path d="M19510 3576 c0 -19 -6 -36 -12 -39 -7 -2 -9 -8 -5 -13 4 -5 12 -2 17
6 10 16 14 80 5 80 -3 0 -5 -15 -5 -34z"/>
<path d="M16212 3584 c1 -9 9 -19 16 -22 9 -3 13 2 10 14 -1 9 -9 19 -16 22
-9 3 -13 -2 -10 -14z"/>
<path d="M19301 3514 c0 -11 3 -14 6 -6 3 7 2 16 -1 19 -3 4 -6 -2 -5 -13z"/>
<path d="M19627 3512 c-15 -3 -16 -6 -6 -19 18 -21 -10 -37 -31 -18 -13 11
-19 12 -28 3 -9 -9 -12 -9 -12 0 0 7 -4 12 -8 12 -10 0 -8 -122 2 -139 6 -9
11 -9 22 0 12 9 14 5 14 -24 0 -20 -5 -39 -10 -42 -7 -4 -3 -14 10 -25 20 -17
27 -55 11 -62 -4 -1 -11 -22 -14 -46 -4 -35 -2 -42 9 -38 8 3 14 -1 14 -9 0
-8 5 -15 10 -15 6 0 10 16 10 36 0 23 4 33 11 28 10 -6 9 -45 -2 -84 -2 -8 6
-19 19 -25 12 -5 22 -18 22 -27 0 -10 3 -18 8 -18 15 0 30 -48 18 -61 -8 -9
-7 -11 5 -6 12 4 15 0 11 -19 -3 -18 0 -24 14 -24 17 0 16 -1 -2 -15 -18 -14
-18 -14 0 -15 12 0 16 -5 12 -15 -3 -8 0 -28 6 -43 6 -15 10 -33 9 -39 -1 -7
5 -13 14 -13 8 0 15 -4 15 -10 0 -5 -7 -10 -15 -10 -8 0 -15 -4 -15 -10 0 -5
7 -10 16 -10 13 0 14 -3 5 -14 -9 -10 -9 -16 -1 -21 8 -5 8 -11 -1 -21 -9 -11
-7 -14 12 -14 18 0 20 -3 11 -12 -15 -15 -16 -54 -2 -63 6 -3 10 -33 10 -66 0
-33 4 -59 10 -59 6 0 10 -17 10 -37 0 -56 10 -83 30 -83 25 0 80 -30 80 -43 0
-7 5 -4 11 6 8 13 14 15 30 7 13 -7 25 -7 38 -1 21 12 32 5 24 -15 -3 -8 0
-14 6 -14 6 0 11 9 11 20 0 22 20 26 38 8 9 -9 16 -8 30 5 17 15 19 15 35 -1
12 -11 20 -13 25 -6 8 12 11 13 99 18 34 2 66 7 71 10 5 3 45 8 88 11 61 4 86
1 109 -11 26 -14 52 -19 117 -23 29 -2 41 -136 17 -198 -12 -33 15 -31 46 3
28 30 45 81 45 136 0 42 -17 123 -33 153 -7 13 -6 20 1 23 39 13 -119 106
-223 131 -79 19 -189 53 -199 63 -6 4 -19 8 -30 8 -12 1 -37 7 -57 14 -22 7
-43 9 -52 5 -10 -6 -23 -2 -40 11 -14 11 -29 20 -34 20 -23 0 -73 68 -83 114
-13 61 0 108 43 153 25 27 35 31 61 26 17 -3 35 -11 39 -17 11 -14 1 85 -12
127 -30 91 -74 258 -81 306 -5 29 -12 57 -17 61 -7 8 -160 34 -273 47 -25 3
-49 9 -55 13 -16 13 -78 26 -98 22z m-50 -119 c-3 -10 -5 -4 -5 12 0 17 2 24
5 18 2 -7 2 -21 0 -30z m70 15 c-3 -8 -6 -5 -6 6 -1 11 2 17 5 13 3 -3 4 -12
1 -19z m-25 -75 c-3 -20 -11 -43 -18 -50 -10 -11 -12 -7 -7 24 5 31 19 63 27
63 1 0 0 -17 -2 -37z m48 -258 c0 -8 -7 -15 -16 -15 -14 0 -14 3 -4 15 7 8 14
15 16 15 2 0 4 -7 4 -15z"/>
<path d="M15750 3480 c-22 -7 -21 -8 13 -9 20 -1 37 4 37 9 0 11 -14 11 -50 0z"/>
<path d="M19150 3460 c0 -5 5 -10 10 -10 6 0 10 5 10 10 0 6 -4 10 -10 10 -5
0 -10 -4 -10 -10z"/>
<path d="M19330 3460 c0 -5 5 -10 10 -10 6 0 10 5 10 10 0 6 -4 10 -10 10 -5
0 -10 -4 -10 -10z"/>
<path d="M19225 3440 c3 -5 8 -10 11 -10 2 0 4 5 4 10 0 6 -5 10 -11 10 -5 0
-7 -4 -4 -10z"/>
<path d="M19295 3410 c-3 -5 -1 -10 4 -10 6 0 11 5 11 10 0 6 -2 10 -4 10 -3
0 -8 -4 -11 -10z"/>
<path d="M20150 3407 c0 -27 27 -40 72 -32 24 4 126 9 227 11 168 4 202 7 190
18 -2 2 -113 7 -246 11 -210 6 -243 5 -243 -8z"/>
<path d="M21021 3391 l-135 -6 40 -25 c41 -27 65 -39 129 -65 22 -9 48 -21 57
-26 10 -5 25 -9 33 -9 8 0 15 -4 15 -10 0 -5 20 -10 44 -10 24 0 46 -5 48 -10
2 -6 67 -12 165 -14 178 -4 173 -5 207 62 28 54 86 36 86 -27 0 -23 -152 -178
-250 -255 -76 -59 -132 -88 -215 -111 -33 -9 -84 -25 -112 -35 -50 -19 -225
-62 -323 -80 -82 -15 -121 -28 -140 -45 -13 -12 -19 -13 -22 -4 -6 19 -78 2
-79 -19 0 -10 -3 -12 -6 -4 -3 7 -23 12 -50 12 -36 0 -44 -3 -39 -15 3 -10 -1
-15 -14 -15 -10 0 -22 -4 -25 -10 -9 -15 -25 -12 -25 5 0 11 -11 15 -47 14
l-48 -2 40 -6 c28 -4 43 -13 50 -28 12 -27 22 -29 28 -5 3 14 6 13 14 -7 l10
-25 7 25 7 24 9 -22 c6 -15 18 -23 35 -23 16 0 25 -6 25 -15 0 -9 9 -15 25
-15 16 0 25 6 25 15 0 8 5 15 10 15 6 0 10 -7 10 -15 0 -18 21 -20 38 -3 8 8
72 13 204 15 110 2 196 7 202 13 6 6 20 10 32 10 12 0 24 4 26 10 2 5 21 11
44 13 23 2 47 8 54 12 7 5 36 9 64 10 59 1 94 17 105 48 16 42 4 49 -70 42
-48 -5 -69 -4 -69 4 0 6 14 11 30 11 25 0 30 4 30 25 0 32 31 45 103 45 41 0
56 4 67 20 8 11 22 20 32 20 10 0 18 5 18 10 0 6 16 10 35 10 19 0 35 4 35 9
0 4 33 11 73 15 39 4 74 11 75 16 2 6 21 10 43 10 28 0 42 6 51 20 7 11 21 20
30 20 10 0 18 4 18 9 0 5 10 13 23 16 26 8 95 71 108 100 6 11 16 31 25 45 18
31 10 116 -14 143 -23 26 -105 48 -222 59 -126 11 -593 17 -779 9z m-451 -781
c0 -5 -2 -10 -4 -10 -3 0 -8 5 -11 10 -3 6 -1 10 4 10 6 0 11 -4 11 -10z"/>
<path d="M19350 3370 c0 -5 5 -10 11 -10 5 0 7 5 4 10 -3 6 -8 10 -11 10 -2 0
-4 -4 -4 -10z"/>
<path d="M19280 3329 c0 -5 5 -7 10 -4 6 3 10 8 10 11 0 2 -4 4 -10 4 -5 0
-10 -5 -10 -11z"/>
<path d="M19545 3320 c-3 -5 1 -10 10 -10 9 0 13 5 10 10 -3 6 -8 10 -10 10
-2 0 -7 -4 -10 -10z"/>
<path d="M19550 3241 c0 -13 26 -32 33 -24 8 7 -11 33 -24 33 -5 0 -9 -4 -9
-9z"/>
<path d="M19350 3169 c0 -5 5 -7 10 -4 6 3 10 8 10 11 0 2 -4 4 -10 4 -5 0
-10 -5 -10 -11z"/>
<path d="M19545 3150 c4 -6 11 -8 16 -5 14 9 11 15 -7 15 -8 0 -12 -5 -9 -10z"/>
<path d="M21926 2941 c-13 -15 -14 -20 -4 -23 19 -7 38 2 38 17 0 23 -16 26
-34 6z"/>
<path d="M21855 2930 c-4 -6 5 -10 20 -10 15 0 24 4 20 10 -3 6 -12 10 -20 10
-8 0 -17 -4 -20 -10z"/>
<path d="M20182 2885 c0 -16 2 -22 5 -12 2 9 2 23 0 30 -3 6 -5 -1 -5 -18z"/>
<path d="M22096 2896 c4 -11 17 -16 43 -15 34 2 34 2 6 6 -16 3 -36 10 -43 15
-9 8 -11 7 -6 -6z"/>
<path d="M16173 2843 c-20 -42 -16 -67 25 -150 22 -43 49 -104 62 -136 16 -41
31 -62 51 -73 41 -21 48 -41 40 -111 -6 -54 -4 -66 16 -100 59 -97 70 -255 25
-342 -13 -24 -20 -47 -15 -51 16 -14 131 -30 273 -36 206 -10 238 -10 300 -4
57 6 54 9 -28 26 -21 4 -22 7 -10 21 11 15 11 16 -5 10 -11 -4 -20 -1 -23 8
-3 7 -12 11 -20 8 -8 -3 -14 1 -14 10 0 8 -9 32 -19 54 -36 70 -51 106 -51
118 0 6 -16 26 -35 45 -19 19 -35 40 -35 47 0 8 -11 18 -25 23 -14 5 -29 20
-34 32 -5 13 -23 36 -40 52 -17 17 -31 35 -31 41 0 7 -9 20 -20 30 -11 10 -20
22 -20 27 0 5 -11 24 -25 42 -14 18 -25 37 -25 43 0 13 -127 133 -140 133 -14
0 -49 36 -61 63 -5 12 -16 33 -24 47 -8 14 -27 53 -42 87 -15 35 -30 63 -33
63 -3 0 -11 -12 -17 -27z"/>
<path d="M21726 2851 c5 -6 27 -12 49 -14 22 -3 31 -2 20 0 -11 3 -24 9 -29
14 -13 12 -53 12 -40 0z"/>
<path d="M20214 2768 c3 -7 9 -21 12 -30 4 -10 10 -18 14 -18 5 0 3 14 -3 30
-6 17 -15 30 -20 30 -5 0 -6 -6 -3 -12z"/>
<path d="M20270 2770 c0 -5 5 -10 10 -10 6 0 10 5 10 10 0 6 -4 10 -10 10 -5
0 -10 -4 -10 -10z"/>
<path d="M20765 2400 c-3 -5 3 -10 15 -10 12 0 18 5 15 10 -3 6 -10 10 -15 10
-5 0 -12 -4 -15 -10z"/>
<path d="M15803 2263 c-10 -3 -10 -9 0 -26 7 -12 14 -24 18 -27 9 -8 39 -77
39 -89 0 -7 -7 -14 -15 -17 -12 -5 -12 -9 3 -30 9 -13 25 -24 35 -24 18 0 53
-17 74 -37 16 -15 16 -20 1 -26 -7 -2 -3 -2 9 0 13 2 26 -4 32 -14 18 -32 12
6 -10 54 -13 31 -39 62 -70 87 -33 26 -49 47 -49 62 0 13 -4 26 -10 29 -5 3
-10 15 -10 25 0 21 -28 40 -47 33z m97 -153 c0 -5 -7 -10 -15 -10 -8 0 -15 5
-15 10 0 6 7 10 15 10 8 0 15 -4 15 -10z"/>
<path d="M15790 2114 c0 -9 5 -14 12 -12 18 6 21 28 4 28 -9 0 -16 -7 -16 -16z"/>
<path d="M15737 2109 c-9 -6 -17 -18 -17 -27 0 -14 4 -13 22 6 24 24 22 36 -5
21z"/>
<path d="M19054 1907 c-8 -8 -8 -17 -1 -28 8 -13 6 -21 -8 -35 -17 -17 -17
-17 -10 6 7 24 6 24 -11 7 -18 -17 -17 -18 10 -45 25 -24 27 -25 22 -6 -4 14
-1 28 9 37 8 9 15 29 15 46 0 33 -8 38 -26 18z"/>
<path d="M19107 1893 c-4 -3 -7 -21 -7 -39 0 -18 -4 -36 -10 -39 -5 -3 -10
-17 -10 -31 0 -25 -15 -33 -22 -12 -3 9 -6 9 -12 0 -4 -7 -2 -12 3 -12 6 0 11
-16 11 -36 0 -32 2 -35 23 -27 41 15 257 3 382 -22 66 -13 149 -29 185 -35 36
-7 108 -21 160 -32 58 -13 145 -22 225 -24 163 -4 291 -17 374 -38 35 -9 69
-15 75 -12 6 2 3 5 -6 5 -10 1 -18 5 -18 11 0 30 -201 88 -380 109 -52 6 -117
16 -145 21 -27 5 -140 23 -250 40 -183 29 -352 70 -432 106 -17 8 -38 14 -47
14 -9 0 -16 5 -16 11 0 7 -10 9 -25 5 -20 -5 -23 -3 -18 11 5 12 2 15 -10 10
-11 -4 -14 -2 -10 9 5 14 -8 19 -20 7z"/>
<path d="M17025 1830 c3 -6 20 -10 37 -10 38 0 34 5 -10 13 -21 4 -31 3 -27
-3z"/>
<path d="M21450 1720 c-12 -8 -11 -10 7 -10 12 0 25 5 28 10 8 13 -15 13 -35
0z"/>
<path d="M22676 1684 c-6 -15 15 -29 34 -22 6 2 2 11 -9 20 -17 14 -20 14 -25
2z"/>
<path d="M17320 1683 c0 -7 5 -13 10 -13 15 0 12 -119 -3 -134 -34 -35 -80
-44 -274 -55 -162 -10 -207 -1 -258 52 -20 20 -39 37 -43 37 -4 0 -28 -17 -54
-39 -53 -44 -131 -64 -232 -61 -81 3 -101 1 -92 -7 4 -4 100 -8 214 -9 114 -1
288 -5 387 -9 99 -3 207 -3 240 2 35 5 80 4 107 -1 26 -6 51 -6 55 -2 5 5 2
11 -4 13 -19 7 -16 27 7 48 23 21 24 33 9 84 -11 38 -68 115 -69 94z"/>
<path d="M22785 1650 c3 -5 8 -10 11 -10 2 0 4 5 4 10 0 6 -5 10 -11 10 -5 0
-7 -4 -4 -10z"/>
<path d="M22971 1614 c0 -11 3 -14 6 -6 3 7 2 16 -1 19 -3 4 -6 -2 -5 -13z"/>
<path d="M22884 1603 c-8 -8 -12 -18 -9 -21 3 -4 10 0 15 7 4 8 15 11 24 8 8
-3 18 -2 21 2 9 16 -35 19 -51 4z"/>
<path d="M23062 1550 c0 -14 2 -19 5 -12 2 6 2 18 0 25 -3 6 -5 1 -5 -13z"/>
<path d="M15853 1533 c9 -2 23 -2 30 0 6 3 -1 5 -18 5 -16 0 -22 -2 -12 -5z"/>
<path d="M16015 1513 c17 -3 34 -9 40 -14 5 -5 36 -9 68 -9 52 0 58 2 47 15
-10 11 -33 15 -99 14 -47 -1 -72 -4 -56 -6z"/>
<path d="M19105 1379 c-11 -17 1 -21 15 -4 8 9 8 15 2 15 -6 0 -14 -5 -17 -11z"/>
<path d="M19129 1339 c-16 -23 -19 -33 -10 -42 8 -8 11 -7 11 6 0 21 14 22 34
2 8 -8 18 -15 22 -15 5 0 3 5 -3 11 -9 9 -9 16 0 31 10 15 9 21 -3 28 -22 14
-27 13 -51 -21z"/>
<path d="M19228 1323 c-29 -5 -33 -13 -29 -73 3 -43 21 -66 21 -27 0 15 5 27
10 27 6 0 10 -16 10 -35 0 -19 5 -35 10 -35 6 0 10 11 10 25 0 14 5 25 10 25
6 0 10 -4 10 -9 0 -5 3 -16 6 -25 4 -10 1 -16 -9 -16 -8 0 -19 -6 -25 -13 -9
-10 2 -13 58 -12 59 2 72 -1 94 -21 14 -13 32 -21 40 -18 9 3 16 -2 19 -13 3
-15 6 -14 15 7 6 14 11 19 11 12 1 -8 8 -11 19 -8 9 3 29 -1 44 -8 19 -10 30
-11 34 -4 4 6 10 5 15 -3 8 -12 10 -12 18 0 6 10 10 10 16 1 5 -8 14 -5 31 11
l24 22 23 -21 c16 -15 36 -22 65 -22 23 0 42 -4 42 -10 0 -5 11 -10 25 -10 15
0 25 -6 25 -14 0 -8 10 -14 23 -13 12 0 90 -3 172 -8 105 -5 157 -12 173 -23
21 -14 25 -13 46 7 12 11 35 21 50 21 15 0 37 5 49 12 12 7 49 11 81 9 51 -2
58 0 48 12 -10 11 -9 17 3 27 23 19 19 25 -37 43 -81 26 -261 49 -364 45 -51
-1 -96 1 -100 5 -9 9 -167 7 -209 -2 -19 -5 -38 -2 -53 7 -13 9 -34 12 -52 9
-17 -4 -40 0 -57 8 -15 8 -37 12 -49 9 -12 -3 -25 -1 -28 5 -4 6 -17 11 -29
11 -31 0 -161 33 -165 43 -2 4 -12 7 -23 7 -10 0 -34 9 -54 20 -20 11 -37 19
-38 19 -1 -1 -14 -4 -29 -6z m20 -50 c16 -16 16 -16 -1 -10 -10 4 -23 7 -28 7
-5 0 -9 5 -9 10 0 15 20 12 38 -7z m39 -25 c-3 -8 -6 -5 -6 6 -1 11 2 17 5 13
3 -3 4 -12 1 -19z m50 -30 c6 -7 13 -20 16 -29 4 -13 1 -16 -14 -12 -14 4 -18
11 -14 24 4 11 2 19 -4 19 -6 0 -11 -5 -11 -12 0 -6 -3 -9 -6 -5 -7 7 4 27 15
27 5 0 13 -6 18 -12z m60 -40 c-3 -8 -6 -5 -6 6 -1 11 2 17 5 13 3 -3 4 -12 1
-19z"/>
<path d="M19080 1300 c0 -5 5 -10 11 -10 5 0 7 5 4 10 -3 6 -8 10 -11 10 -2 0
-4 -4 -4 -10z"/>
<path d="M19160 1255 c7 -8 17 -15 22 -15 6 0 5 7 -2 15 -7 8 -17 15 -22 15
-6 0 -5 -7 2 -15z"/>
<path d="M16153 1244 c-8 -21 10 -36 48 -39 17 -2 35 -8 38 -14 8 -12 28 -15
84 -13 54 3 45 16 -20 30 -32 7 -69 21 -82 32 -28 24 -59 26 -68 4z"/>
<path d="M19125 1234 c9 -9 19 -13 23 -10 3 4 0 11 -8 16 -24 15 -33 11 -15
-6z"/>
<path d="M19080 1230 c0 -5 5 -10 11 -10 5 0 7 5 4 10 -3 6 -8 10 -11 10 -2 0
-4 -4 -4 -10z"/>
<path d="M19170 1210 c0 -5 5 -10 11 -10 5 0 7 5 4 10 -3 6 -8 10 -11 10 -2 0
-4 -4 -4 -10z"/>
<path d="M19080 1189 c0 -5 5 -7 10 -4 6 3 10 8 10 11 0 2 -4 4 -10 4 -5 0
-10 -5 -10 -11z"/>
<path d="M19135 1190 c3 -5 8 -10 11 -10 2 0 4 5 4 10 0 6 -5 10 -11 10 -5 0
-7 -4 -4 -10z"/>
<path d="M19510 1100 c0 -5 5 -10 10 -10 6 0 10 5 10 10 0 6 -4 10 -10 10 -5
0 -10 -4 -10 -10z"/>
</g>
</svg>
