<?xml version="1.0" standalone="no"?>
<!DOCTYPE svg PUBLIC "-//W3C//DTD SVG 20010904//EN"
 "http://www.w3.org/TR/2001/REC-SVG-20010904/DTD/svg10.dtd">
<svg version="1.0" xmlns="http://www.w3.org/2000/svg"
 width="2880.000000pt" height="1276.000000pt" viewBox="0 0 2880.000000 1276.000000"
 preserveAspectRatio="xMidYMid meet">

<g transform="translate(0.000000,1276.000000) scale(0.100000,-0.100000)"
fill="#000000" stroke="none">
<path d="M0 8640 l0 -4120 4563 0 4562 0 105 55 c631 329 1118 534 1561 659
300 85 847 211 1114 256 325 56 413 70 490 80 50 6 101 13 115 15 14 2 43 6
65 9 230 34 864 67 1235 64 129 -1 276 4 345 11 208 22 848 -4 1210 -50 486
-61 1201 -225 1534 -351 194 -73 542 -239 826 -393 79 -43 409 -247 500 -309
l60 -41 1194 -3 1194 -2 -6 412 c-4 227 -11 445 -16 483 -5 39 -15 140 -21
225 -6 85 -15 182 -20 215 -5 33 -14 121 -20 195 -6 74 -15 167 -20 205 -6 39
-17 147 -25 240 -8 94 -24 260 -34 370 -26 261 -26 272 2 296 47 41 74 48 198
55 68 4 131 10 140 15 24 12 1057 13 1072 1 7 -5 52 -12 100 -15 49 -3 93 -9
97 -13 5 -5 14 -56 20 -114 7 -58 16 -114 20 -125 7 -17 32 -212 33 -255 0 -8
3 -19 7 -25 4 -5 13 -68 20 -140 7 -71 16 -132 20 -135 4 -3 12 -58 19 -122 6
-65 15 -128 20 -140 5 -13 14 -85 21 -160 7 -76 16 -138 19 -138 4 0 13 -64
20 -142 7 -78 17 -149 22 -157 4 -9 12 -62 18 -118 6 -56 15 -112 21 -125 6
-13 13 -186 18 -403 l7 -380 3188 -3 3187 -2 0 4120 0 4120 -14400 0 -14400 0
0 -4120z"/>
<path d="M21442 7072 l-593 -2 6 -48 c3 -26 14 -130 25 -232 11 -102 27 -246
35 -320 8 -74 22 -202 30 -285 18 -173 -1 -144 180 -277 l110 -80 275 6 c151
3 321 6 376 6 l102 0 101 91 c82 74 101 97 101 120 0 15 -25 207 -55 426 -31
219 -61 439 -67 488 -6 50 -16 95 -22 100 -7 6 -219 9 -604 7z m13 -257 c3
-14 7 -37 10 -52 l4 -28 -13 30 c-23 50 -28 75 -17 75 6 0 13 -11 16 -25z m41
-20 c6 -41 1 -66 -10 -54 -11 11 -17 99 -8 99 6 0 14 -20 18 -45z m-77 13 c19
-52 23 -70 13 -64 -6 3 -12 1 -14 -6 -3 -7 -19 9 -37 35 -21 31 -27 47 -18 47
7 0 21 -17 32 -37 10 -21 20 -33 22 -26 2 6 -3 25 -12 42 -9 18 -11 31 -5 31
6 0 14 -10 19 -22z m-55 -36 c28 -41 33 -58 14 -46 -8 5 -9 2 -5 -9 3 -10 5
-17 3 -17 -10 0 -86 84 -80 89 3 3 19 -9 35 -28 16 -19 32 -32 35 -28 4 4 -2
17 -13 30 -27 30 -36 47 -25 47 5 0 21 -17 36 -38z m-48 -38 l44 -37 -21 -18
c-12 -11 -19 -19 -14 -19 4 0 2 -7 -5 -15 -7 -8 -18 -15 -24 -15 -6 0 -2 8 9
17 19 15 19 15 -9 9 -31 -8 -99 11 -91 24 3 5 19 2 35 -7 17 -8 35 -13 42 -11
6 2 -6 12 -28 23 -21 10 -33 20 -26 23 7 2 29 -6 48 -18 20 -11 39 -18 43 -14
3 4 2 8 -4 10 -26 10 -77 46 -71 51 3 3 23 -6 44 -21 57 -39 63 -31 12 14 -57
50 -44 53 16 4z m-56 -100 c25 -15 25 -15 -14 -10 -22 3 -44 10 -50 16 -16 16
35 12 64 -6z m46 -39 c-3 -17 -12 -20 -67 -23 -35 -2 -60 0 -56 4 4 4 31 7 60
7 l52 -1 -49 8 c-77 14 -78 28 -3 27 60 -2 66 -4 63 -22z m127 -2 c-7 -2 -13
-11 -13 -19 0 -8 -4 -14 -10 -14 -5 0 -10 9 -10 20 0 14 6 20 23 19 12 0 16
-3 10 -6z m91 -24 c15 -31 14 -49 -4 -49 -5 0 -7 6 -4 14 6 16 -11 30 -26 21
-8 -5 -7 -11 1 -21 7 -9 8 -14 1 -14 -6 0 -14 5 -18 11 -4 8 -9 8 -17 0 -14
-14 -44 -14 -52 -1 -3 5 0 7 9 4 23 -9 39 5 25 22 -7 9 -8 14 -1 14 6 0 14 -5
17 -10 4 -6 11 -8 16 -4 5 3 7 10 4 15 -4 5 -3 14 0 19 12 19 34 10 49 -21z
m54 8 c4 -19 -6 -21 -27 -8 -16 10 -5 34 12 28 7 -2 13 -11 15 -20z m13 -38
c-5 -13 -10 -19 -10 -12 -1 15 10 45 15 40 3 -2 0 -15 -5 -28z m-292 7 c-10
-8 -109 -14 -109 -6 0 5 24 10 53 12 51 3 65 2 56 -6z m351 -1 c10 -12 9 -16
-5 -21 -19 -8 -40 9 -31 25 10 15 21 14 36 -4z m-375 -31 c-22 -8 -49 -13 -60
-11 -18 3 -18 5 5 15 14 6 41 11 60 11 l35 0 -40 -15z m40 -13 c-3 -5 2 -11
12 -13 11 -2 -1 -13 -35 -30 -29 -15 -54 -23 -57 -17 -4 5 2 12 12 15 10 3 29
11 43 17 20 8 21 11 8 14 -9 2 -31 -3 -48 -12 -18 -9 -35 -14 -38 -11 -10 11
12 24 58 34 25 5 46 10 48 11 2 1 1 -3 -3 -8z m15 -96 c-22 -21 -43 -35 -47
-31 -8 7 22 36 56 56 9 5 13 12 9 16 -4 4 -26 -5 -49 -20 -22 -15 -43 -25 -47
-22 -7 7 -7 7 47 39 34 19 47 23 57 14 10 -10 5 -20 -26 -52z m30 -15 c-29
-36 -50 -51 -50 -34 0 6 71 73 78 74 2 0 -11 -18 -28 -40z m32 -15 c-15 -24
-33 -45 -41 -45 -17 0 48 89 66 90 1 0 -10 -20 -25 -45z m23 -25 c-10 -22 -22
-40 -27 -40 -12 0 -10 7 14 50 29 49 37 43 13 -10z m253 -52 c-5 -13 -42 45
-53 82 -5 16 4 8 25 -22 17 -26 30 -53 28 -60z m-224 27 c-9 -23 -19 -34 -22
-27 -2 8 4 32 14 55 24 52 31 25 8 -28z m176 3 c11 -20 16 -39 12 -42 -5 -3
-18 17 -30 45 -35 80 -25 79 18 -3z m-136 10 c-8 -50 -24 -74 -24 -36 0 28 16
78 25 78 3 0 2 -19 -1 -42z m35 -25 c1 -18 -3 -33 -9 -33 -5 0 -10 24 -9 53 0
38 3 47 9 32 5 -11 9 -35 9 -52z m31 12 c4 -25 3 -48 -2 -51 -4 -3 -8 3 -8 13
0 10 -3 36 -7 58 -3 22 -2 37 2 33 5 -4 11 -28 15 -53z m36 2 c7 -26 8 -47 3
-47 -5 0 -11 12 -15 28 -3 15 -10 38 -15 50 -7 18 -6 23 3 20 7 -3 17 -25 24
-51z m375 -216 c12 -60 9 -62 -119 -59 l-116 3 -8 34 c-16 60 -11 62 119 59
l117 -3 7 -34z"/>
<path d="M21490 6580 c0 -5 5 -10 10 -10 6 0 10 5 10 10 0 6 -4 10 -10 10 -5
0 -10 -4 -10 -10z"/>
<path d="M21730 6116 c0 -51 7 -56 86 -56 59 0 74 3 74 15 0 8 -7 15 -15 15
-20 0 -19 16 1 24 22 8 26 8 19 -3 -3 -5 -1 -12 5 -16 5 -3 10 -1 10 5 0 6 5
8 12 4 8 -5 6 -11 -5 -19 -24 -17 -21 -25 8 -25 20 0 25 5 25 24 0 54 -5 56
-116 56 -103 0 -104 0 -104 -24z m97 -1 c18 -19 17 -20 -25 -28 -24 -5 -34 -3
-39 9 -8 20 4 31 19 16 17 -17 28 -15 22 3 -8 19 3 19 23 0z"/>
<path d="M13515 5627 c-126 -8 -206 -19 -445 -60 -198 -34 -235 -38 -221 -24
7 7 31 17 54 24 36 9 38 11 13 12 -80 3 -693 -83 -820 -115 -143 -36 -513
-172 -735 -269 -46 -20 -89 -34 -97 -31 -8 3 -12 2 -9 -3 3 -6 -7 -9 -22 -9
-16 0 -62 -11 -103 -24 -134 -45 -277 -88 -294 -88 -9 0 -24 -4 -34 -9 -18 -9
-205 -68 -307 -96 -33 -9 -69 -20 -80 -25 -11 -5 -36 -13 -55 -19 -76 -22
-197 -63 -230 -78 -19 -8 -68 -31 -109 -49 -40 -19 -77 -34 -83 -34 -5 0 -75
-33 -156 -74 -153 -76 -183 -93 -294 -157 -36 -22 -69 -39 -72 -39 -3 0 -36
-19 -73 -42 -90 -55 -293 -158 -313 -158 -8 0 -26 -9 -40 -20 -14 -11 -30 -20
-37 -20 -6 0 -24 -7 -40 -15 -15 -9 -41 -20 -57 -25 -16 -6 -27 -12 -25 -14 2
-2 191 0 419 5 228 5 615 11 860 13 680 7 620 -14 1330 469 571 388 1058 650
1485 796 193 65 492 137 705 169 88 13 22 18 -115 9z"/>
<path d="M14225 5543 c-834 -35 -1556 -277 -2270 -761 -217 -147 -426 -307
-585 -447 -144 -128 -430 -411 -430 -427 0 -21 26 -1 117 90 218 217 593 533
630 532 4 -1 -10 -17 -32 -36 -34 -29 -36 -33 -12 -23 15 7 27 15 27 19 0 3
36 33 80 66 44 32 78 64 76 70 -5 14 70 77 94 79 24 2 80 26 80 35 0 4 14 13
30 20 31 13 43 37 13 26 -15 -5 -14 -3 2 10 33 26 55 36 55 25 0 -5 -9 -13
-21 -16 -11 -4 -19 -9 -16 -11 2 -3 16 0 31 6 20 7 26 15 22 28 -4 13 7 24 44
44 28 16 50 24 50 19 0 -5 -13 -14 -30 -21 -16 -7 -30 -16 -30 -21 0 -5 -7 -9
-17 -9 -9 0 -14 -3 -10 -6 7 -8 44 4 59 20 7 6 68 43 135 81 67 39 120 71 118
73 -3 4 -123 -57 -145 -73 -17 -14 -50 -26 -50 -20 0 15 346 200 505 270 100
44 276 112 345 133 36 11 90 28 120 37 136 42 390 97 534 115 50 6 93 13 97
16 12 7 407 33 533 35 114 1 135 -4 136 -32 0 -3 -82 -9 -182 -13 -697 -27
-1212 -155 -1783 -446 -283 -144 -534 -301 -735 -461 -41 -33 -107 -84 -147
-114 -154 -118 -473 -429 -473 -462 0 -7 -21 -15 -50 -19 -27 -4 -50 -11 -50
-16 0 -6 15 -7 38 -3 20 4 79 10 129 14 71 5 94 3 97 -6 3 -7 12 -13 20 -13
10 0 13 6 10 15 -5 12 2 15 27 15 26 0 30 -3 19 -10 -8 -5 -11 -10 -7 -10 5 0
2 -7 -6 -15 -11 -10 -56 -17 -158 -24 l-144 -9 193 2 192 1 0 -144 c0 -79 3
-142 6 -138 4 3 9 70 13 148 l6 142 150 5 c83 2 155 8 160 12 6 4 145 13 310
19 391 15 408 16 436 34 13 8 40 18 59 22 46 9 132 37 128 41 -2 2 -33 -1 -68
-6 -36 -5 -167 -10 -292 -12 -126 -2 -228 -5 -228 -8 0 -4 6 -12 13 -19 6 -7
-15 -2 -47 10 -53 19 -72 21 -180 16 -77 -4 -111 -3 -92 3 38 12 236 17 261 7
15 -7 16 -6 5 2 -8 5 -12 12 -10 14 9 9 382 27 540 27 l154 0 -34 -35 c-24
-24 -48 -38 -86 -46 -29 -7 -51 -16 -48 -20 2 -5 10 -6 17 -4 7 2 113 9 237
16 137 6 228 15 232 22 5 9 78 12 138 5 8 0 26 0 40 1 l25 3 -25 7 c-14 4 56
10 160 15 102 3 293 13 425 21 132 8 339 19 460 25 121 6 241 12 268 15 35 3
47 1 47 -9 0 -8 7 -17 16 -20 12 -4 14 -1 9 13 -8 25 6 26 405 46 168 9 397
22 510 30 411 30 619 46 785 61 94 8 202 17 240 20 96 7 294 31 454 55 73 11
152 22 175 24 85 7 293 45 349 64 61 21 151 80 161 106 10 27 -13 26 -41 -3
-25 -26 -82 -62 -98 -62 -3 0 21 23 54 50 67 55 79 82 62 133 -16 46 -23 52
-190 148 -283 161 -552 275 -886 374 -49 14 -110 32 -135 40 -25 7 -108 29
-185 48 -581 147 -1052 214 -1707 243 -131 6 -138 7 -138 27 0 20 3 20 218 14
682 -20 1487 -164 2092 -374 153 -54 171 -60 177 -67 3 -3 14 -6 24 -6 24 0
243 -96 389 -172 164 -84 170 -88 170 -99 0 -5 3 -8 8 -6 4 1 42 -16 86 -38
89 -45 193 -134 203 -173 6 -26 7 -25 20 12 7 22 12 40 11 40 -2 1 -29 19 -61
39 -209 136 -411 245 -622 336 -66 29 -135 58 -153 67 -18 8 -50 18 -70 23
-20 5 -98 30 -172 56 -128 44 -390 123 -476 144 -21 5 -93 23 -159 39 -439
111 -990 187 -1460 202 -278 9 -365 10 -520 3z m-1710 -605 c-11 -6 -22 -14
-25 -18 -3 -3 -14 -10 -24 -14 -19 -7 -19 -7 2 -28 17 -18 23 -19 36 -8 12 9
16 9 16 0 0 -6 19 -29 41 -50 l41 -38 -23 -34 -24 -33 42 33 c46 38 106 62
135 54 11 -2 17 -10 14 -18 -3 -7 0 -14 6 -16 17 -6 14 -263 -4 -319 -14 -43
-14 -47 4 -58 10 -6 28 -33 39 -58 18 -42 59 -181 59 -200 0 -5 -129 -10 -288
-12 -158 -2 -341 -6 -407 -10 -127 -7 -167 -5 -143 10 10 7 9 9 -4 9 -10 0
-20 -1 -23 -2 -2 -2 -12 7 -20 20 -9 12 -21 22 -28 22 -8 0 -8 -3 1 -12 7 -7
12 -20 12 -29 0 -10 8 -20 18 -22 9 -3 1 -5 -18 -5 -19 0 -29 2 -22 5 23 9 12
31 -19 38 -31 7 -31 7 -25 59 14 104 108 210 216 242 34 10 65 23 69 29 5 5
14 53 20 105 6 52 16 121 23 152 l11 58 111 62 c61 34 127 70 146 80 37 19 68
25 35 6z m-508 -175 c-17 -19 -77 -57 -77 -49 0 5 81 66 89 66 2 0 -3 -8 -12
-17z m68 -120 c-8 -55 -19 -111 -24 -124 -9 -22 -10 -22 -10 10 -1 32 -2 33
-14 17 -13 -18 -15 -18 -51 -1 -26 13 -40 15 -48 7 -6 -6 -17 -8 -24 -5 -8 3
-25 -2 -39 -11 -14 -9 -27 -16 -30 -16 -3 0 -13 -7 -22 -16 -15 -15 -17 -14
-26 1 -10 18 -4 24 98 104 71 55 198 142 202 137 2 -2 -3 -48 -12 -103z m1619
-69 c12 -5 16 -21 16 -68 0 -59 -12 -132 -24 -143 -10 -10 -34 17 -39 45 -4
22 21 172 29 172 1 0 9 -3 18 -6z m4 -261 l27 -11 -30 -1 c-24 -1 -35 6 -48
28 -9 16 -17 40 -17 53 1 19 5 16 21 -18 12 -24 30 -45 47 -51z m-818 -39 c0
-10 -28 -34 -41 -34 -8 0 -5 7 6 20 17 19 35 26 35 14z m243 -251 c-7 -2 -19
-2 -25 0 -7 3 -2 5 12 5 14 0 19 -2 13 -5z m-1418 -13 c-16 -4 -47 -8 -67 -9
-39 -1 -51 -16 -20 -25 9 -3 -3 -3 -28 0 -47 5 -57 10 -47 21 7 6 117 20 167
20 22 1 22 0 -5 -7z m-202 -33 c8 -20 -7 -39 -26 -31 -13 5 -14 9 -4 25 14 22
23 24 30 6z m295 -4 c-15 -2 -42 -2 -60 0 -18 2 -6 4 27 4 33 0 48 -2 33 -4z"/>
<path d="M12706 4680 c8 -43 14 -51 14 -19 0 13 -5 31 -10 39 -7 11 -8 5 -4
-20z"/>
<path d="M12504 4601 c-13 -32 -23 -43 -45 -48 -16 -3 -29 -12 -29 -19 0 -10
-14 -14 -47 -15 -82 -2 -135 -11 -173 -27 -20 -9 -2 -11 86 -11 61 -1 131 -4
156 -7 l45 -6 15 83 c9 46 14 86 12 88 -2 2 -11 -15 -20 -38z"/>
<path d="M12698 4484 c-1 -31 0 -58 5 -61 4 -2 7 23 7 56 0 76 -7 79 -12 5z"/>
<path d="M21399 5428 c-21 -8 -21 -12 -14 -430 3 -233 8 -433 11 -445 2 -13
14 -25 27 -28 12 -2 116 -8 232 -12 l209 -8 28 -55 c36 -72 82 -245 107 -400
51 -314 53 -349 61 -1130 8 -695 13 -825 40 -1100 26 -259 84 -550 147 -740
43 -131 127 -308 190 -402 95 -143 251 -271 406 -333 105 -41 167 -50 367 -48
167 2 194 5 275 28 183 53 255 100 255 167 0 111 -144 205 -495 323 -199 66
-677 195 -725 195 -6 0 -10 -10 -10 -22 0 -21 13 -26 153 -60 401 -99 742
-214 895 -304 61 -36 122 -93 122 -113 0 -43 -98 -92 -265 -134 -75 -18 -118
-22 -255 -22 -146 0 -173 3 -238 24 -128 41 -212 92 -311 190 -221 218 -367
612 -431 1166 -36 308 -41 442 -50 1190 -8 775 -11 823 -61 1120 -48 287 -104
448 -182 528 l-51 52 -7 345 c-4 190 -10 366 -13 392 -3 26 -1 50 5 53 31 20
-9 25 -197 22 -113 -1 -214 -5 -225 -9z"/>
<path d="M12590 5090 c-8 -5 -10 -10 -5 -10 6 0 17 5 25 10 8 5 11 10 5 10 -5
0 -17 -5 -25 -10z"/>
<path d="M12525 5059 c-16 -10 -25 -19 -20 -19 6 0 24 9 40 20 17 11 26 20 20
19 -5 0 -23 -9 -40 -20z"/>
<path d="M12455 5020 c-3 -5 -1 -10 4 -10 6 0 11 5 11 10 0 6 -2 10 -4 10 -3
0 -8 -4 -11 -10z"/>
<path d="M11870 4662 c0 -7 -6 -12 -14 -12 -8 0 -18 -4 -21 -10 -9 -15 8 -12
31 4 10 8 16 18 11 22 -4 4 -7 2 -7 -4z"/>
<path d="M18320 4510 c0 -10 83 -24 102 -17 7 3 -1 6 -19 6 -17 1 -43 5 -57
11 -15 5 -26 6 -26 0z"/>
<path d="M11590 4440 c-8 -5 -12 -12 -9 -15 4 -3 12 1 19 10 14 17 11 19 -10
5z"/>
<path d="M21743 4290 c0 -36 2 -50 4 -32 2 17 2 47 0 65 -2 17 -4 3 -4 -33z"/>
<path d="M21550 4131 c0 -50 4 -63 25 -82 20 -20 25 -34 25 -76 l0 -53 69 0
68 0 -5 49 c-4 45 -2 52 27 80 27 27 31 37 31 86 l0 55 -120 0 -120 0 0 -59z"/>
<path d="M10387 4020 c-48 -61 -78 -106 -67 -100 11 6 20 15 20 20 0 5 6 15
13 22 10 11 39 49 120 156 5 6 8 12 5 12 -2 0 -43 -50 -91 -110z"/>
<path d="M18851 3978 c-19 -33 -158 -229 -208 -294 -86 -113 -47 -151 170
-163 73 -4 138 -5 145 -3 11 4 12 37 7 171 -8 220 -11 245 -41 281 -31 36 -54
38 -73 8z m27 -90 c7 -7 12 -19 12 -28 0 -21 -83 -81 -132 -96 -35 -11 -37
-10 -28 6 16 30 111 130 124 130 7 0 17 -5 24 -12z"/>
<path d="M15050 3853 c-266 -11 -712 -39 -756 -48 -25 -6 -95 -75 -88 -87 9
-15 22 -8 28 15 3 12 18 31 34 42 24 18 53 21 245 30 187 9 220 8 232 -5 13
-12 15 -12 15 4 0 16 15 17 230 15 127 -1 230 -5 230 -9 0 -19 -37 -34 -98
-41 l-67 -7 72 2 c68 1 75 4 108 36 65 63 63 63 -185 53z"/>
<path d="M21672 3800 c0 -14 2 -19 5 -12 2 6 2 18 0 25 -3 6 -5 1 -5 -13z"/>
<path d="M14745 3740 c-3 -5 -1 -10 4 -10 6 0 11 5 11 10 0 6 -2 10 -4 10 -3
0 -8 -4 -11 -10z"/>
<path d="M21690 3651 c0 -5 5 -13 10 -16 6 -3 10 -2 10 4 0 5 -4 13 -10 16 -5
3 -10 2 -10 -4z"/>
<path d="M21735 3600 c3 -5 11 -10 16 -10 6 0 7 5 4 10 -3 6 -11 10 -16 10 -6
0 -7 -4 -4 -10z"/>
<path d="M11503 3445 c0 -27 2 -38 4 -22 2 15 2 37 0 50 -2 12 -4 0 -4 -28z"/>
<path d="M11043 3441 c-81 -7 -126 -21 -65 -21 17 0 35 -6 39 -13 4 -8 16 -16
26 -20 9 -3 17 -15 17 -26 0 -31 18 -34 22 -4 2 16 9 28 16 28 7 0 16 6 21 13
7 11 10 10 15 -3 5 -13 14 -15 46 -10 41 7 57 -8 21 -20 -11 -3 -25 -13 -32
-21 -7 -9 21 5 63 30 119 73 119 76 -3 74 -57 0 -141 -4 -186 -7z"/>
<path d="M8248 3435 c-3 -3 -37 -8 -75 -10 -164 -8 -794 -112 -1040 -171 -226
-54 -517 -175 -759 -315 l-82 -47 -100 49 c-80 40 -127 55 -229 76 -115 23
-152 26 -368 27 -218 0 -245 -1 -289 -19 -26 -11 -48 -23 -47 -27 0 -5 1 -17
1 -28 0 -11 6 -20 14 -20 8 0 16 -12 18 -27 3 -26 7 -28 74 -38 40 -6 80 -17
89 -25 9 -8 28 -39 41 -69 13 -30 34 -70 47 -90 l22 -36 6 30 c10 52 -46 156
-95 175 l-21 9 22 0 c25 1 83 -55 83 -80 0 -33 16 -28 55 17 l41 47 324 5 323
5 71 41 c39 23 114 63 166 90 l95 48 60 -40 c93 -62 192 -111 252 -127 45 -12
93 -13 281 -4 241 11 371 26 237 28 -38 0 -148 -4 -242 -9 -113 -6 -191 -6
-225 0 -76 15 -288 140 -288 170 0 25 44 18 115 -20 134 -71 166 -80 299 -80
134 0 670 44 791 64 118 21 178 47 295 131 58 42 123 88 145 102 22 15 73 54
113 85 l73 59 159 -7 c88 -4 160 -10 160 -14 0 -12 -201 -197 -320 -293 -25
-21 -28 -25 -10 -16 40 19 146 108 268 224 83 79 110 111 102 119 -12 12 -640
23 -652 11z m197 -35 c-3 -5 -29 -13 -57 -20 -31 -7 -86 -33 -130 -62 -66 -43
-88 -51 -145 -58 -38 -5 -88 -16 -113 -25 -90 -33 -821 -108 -843 -86 -8 8 0
11 33 12 25 1 54 2 65 3 11 1 39 3 63 4 31 2 42 6 42 18 0 13 2 14 14 1 11
-11 26 -12 68 -6 62 10 112 15 223 24 195 16 400 63 429 99 6 8 23 16 39 20
15 4 27 11 27 17 0 7 -9 9 -22 5 -13 -3 -59 -11 -103 -17 -44 -6 -89 -15 -100
-19 -11 -5 -38 -11 -60 -14 -22 -3 -77 -10 -121 -15 -45 -6 -95 -18 -110 -26
-16 -8 -25 -15 -20 -15 6 0 4 -6 -3 -12 -10 -11 -15 -9 -26 5 -11 15 -21 17
-47 12 -18 -4 -37 -11 -43 -15 -5 -4 -30 -8 -55 -9 -25 0 -69 -8 -99 -17 -29
-8 -55 -13 -58 -10 -3 3 8 8 23 12 16 4 38 15 50 25 14 13 37 20 73 20 28 1
54 6 57 11 3 5 13 7 22 4 10 -3 58 3 107 13 74 14 89 20 87 34 -2 12 4 17 20
16 13 0 17 -3 11 -6 -25 -10 -12 -20 22 -17 57 4 95 15 92 26 -1 6 4 13 11 15
6 3 12 -2 12 -11 0 -12 7 -14 28 -10 146 27 214 43 197 44 -18 1 -18 2 4 13
19 9 25 9 29 -1 6 -19 65 -14 84 7 13 16 30 19 122 19 58 0 103 -4 101 -8z
m-998 -306 c-3 -3 -12 -4 -19 -1 -8 3 -5 6 6 6 11 1 17 -2 13 -5z m-565 -24
c40 -11 97 -20 126 -20 56 0 157 -25 167 -41 8 -12 -23 -11 -85 2 -38 8 -55 8
-63 0 -21 -21 -72 -10 -162 34 -99 48 -93 56 17 25z m-1245 -45 c12 -9 20 -22
18 -30 -3 -8 -7 -22 -10 -30 -4 -13 -8 -13 -25 -3 -22 14 -27 38 -8 38 9 0 9
3 0 12 -21 21 -39 -6 -23 -35 10 -20 11 -107 1 -182 -5 -33 -19 42 -19 102 -1
57 -4 71 -15 67 -8 -3 -16 4 -19 18 -5 17 0 28 16 40 27 22 56 23 84 3z"/>
<path d="M6985 3030 c3 -5 10 -10 16 -10 5 0 9 5 9 10 0 6 -7 10 -16 10 -8 0
-12 -4 -9 -10z"/>
<path d="M10920 3416 c0 -7 24 -36 53 -63 51 -49 97 -80 97 -67 0 6 -141 144
-147 144 -2 0 -3 -6 -3 -14z"/>
<path d="M17515 3313 c-143 -22 -292 -83 -409 -167 -81 -58 -221 -204 -283
-296 -163 -243 -260 -509 -314 -860 -12 -80 -23 -150 -24 -156 -2 -6 -107 -17
-276 -28 -151 -9 -321 -21 -379 -26 -191 -17 -1186 -91 -1420 -105 -52 -3
-187 -13 -300 -20 -237 -17 -779 -52 -925 -60 -55 -3 -161 -10 -235 -15 -74
-6 -250 -17 -390 -25 -140 -8 -408 -24 -595 -35 -187 -11 -373 -25 -413 -30
-40 -6 -77 -10 -81 -10 -5 0 -11 100 -14 223 -8 327 -42 493 -147 714 -175
368 -475 646 -815 756 -159 51 -235 62 -445 62 -201 0 -270 -11 -410 -60 -42
-15 -43 -15 -77 15 -45 40 -55 38 -15 -3 l32 -33 -113 -57 c-61 -32 -155 -88
-207 -125 -117 -83 -316 -280 -393 -388 -207 -294 -332 -627 -387 -1039 -11
-88 -23 -174 -26 -191 l-4 -32 -203 -6 c-324 -11 -783 -12 -1190 -2 -346 8
-380 10 -402 27 -13 11 -76 84 -140 164 -66 83 -124 145 -133 145 -98 0 -661
56 -871 87 -38 5 -43 4 -38 -10 3 -9 9 -39 13 -65 l6 -49 -42 -7 c-42 -7 -155
-50 -177 -68 -6 -5 -9 -16 -7 -23 7 -18 122 -62 199 -76 74 -13 88 -23 20 -14
-61 8 -185 43 -202 57 -28 23 -12 -20 23 -61 43 -50 110 -86 196 -106 35 -7
95 -23 133 -35 87 -27 193 -54 450 -114 337 -79 358 -84 419 -96 55 -11 111
-43 193 -107 22 -18 21 -18 -65 -21 -48 -1 -152 -9 -232 -18 -80 -8 -185 -19
-235 -24 -393 -40 -667 -90 -765 -140 -19 -10 -48 -32 -65 -50 -24 -25 -30
-40 -30 -77 0 -41 4 -49 42 -82 68 -58 165 -82 573 -145 290 -44 546 -79 705
-96 55 -5 159 -17 230 -25 361 -42 762 -65 1200 -69 381 -4 489 -1 915 24 102
6 365 13 585 16 457 5 694 17 880 45 244 36 270 39 475 49 113 6 223 13 245
15 22 3 186 12 365 20 179 9 332 17 340 20 15 3 106 9 365 20 72 3 211 12 310
20 99 8 248 17 330 20 83 4 227 12 320 20 94 8 240 17 325 20 85 3 229 12 320
20 91 8 237 17 325 20 88 3 205 10 260 16 55 5 231 16 390 25 160 8 304 16
320 19 17 2 165 11 330 20 165 8 314 18 330 20 17 3 156 12 310 20 154 9 294
18 310 21 17 4 266 7 555 9 289 1 561 5 605 9 44 4 226 32 405 61 308 51 535
82 770 106 57 6 107 12 110 14 3 2 64 9 136 15 71 6 154 15 184 20 30 5 116
16 190 25 136 15 258 43 288 67 27 21 32 31 32 65 0 57 -78 96 -280 137 -277
58 -545 83 -917 88 -248 3 -253 3 -247 23 18 57 24 64 65 75 57 16 121 58 158
104 17 21 31 42 31 46 0 8 63 36 147 65 l51 18 49 -42 c26 -24 74 -56 107 -73
l58 -29 252 -4 c138 -2 312 -11 386 -19 74 -8 196 -22 270 -30 198 -22 421
-52 620 -81 292 -44 281 -43 287 -28 3 8 3 16 1 19 -9 8 -277 49 -558 84 -41
6 -127 17 -190 25 -375 50 -760 79 -925 71 -112 -5 -123 -4 -170 18 -27 13
-72 42 -98 64 l-48 41 28 15 c30 16 80 66 105 106 17 28 87 230 113 325 16 60
17 82 2 77 -85 -28 -394 -111 -402 -108 -6 2 -17 51 -23 110 -50 453 -224 807
-483 981 -87 58 -214 117 -299 138 -71 17 -206 28 -255 20z m187 -544 c72 -16
162 -60 230 -115 66 -52 165 -178 210 -268 l31 -61 -78 -72 c-101 -96 -254
-206 -269 -194 -7 6 -33 4 -69 -7 -47 -14 -57 -20 -53 -35 3 -14 2 -16 -9 -7
-8 6 -26 15 -42 20 -24 7 -25 8 -6 9 33 1 173 41 208 58 17 9 58 36 93 61 55
41 62 50 63 81 1 20 2 45 3 56 1 22 -45 124 -76 168 -11 15 -15 27 -10 27 11
0 58 -59 97 -122 24 -37 36 -47 58 -48 15 0 27 2 27 5 0 28 -138 228 -164 238
-7 3 -18 23 -24 45 -14 46 -42 77 -42 46 0 -20 -73 -266 -109 -368 -31 -88
-121 -241 -121 -207 0 7 -14 -1 -31 -18 -37 -38 -48 -40 -20 -5 26 33 27 47 2
39 -13 -4 -27 3 -44 21 -20 22 -28 24 -45 15 -11 -6 -23 -21 -25 -33 -3 -17
-5 -14 -6 10 0 18 10 84 24 148 30 137 30 139 9 277 -12 73 -21 107 -30 107
-22 0 -24 16 -8 55 l15 38 -33 -6 c-18 -3 -63 -22 -98 -43 -74 -43 -182 -145
-162 -152 8 -2 19 1 25 7 14 14 27 14 27 1 0 -5 16 -32 35 -59 46 -63 126
-237 119 -256 -4 -8 -2 -15 4 -15 13 0 22 -25 28 -73 4 -33 2 -38 -13 -35 -12
2 -19 14 -21 38 -4 41 -39 94 -156 235 -74 90 -90 105 -101 94 -38 -39 -119
-244 -139 -349 l-6 -35 22 28 23 28 40 -28 c22 -16 68 -44 103 -63 34 -18 62
-37 62 -42 0 -5 11 -13 25 -18 34 -13 32 -33 -2 -26 -78 16 -256 37 -269 32
-11 -4 -14 -25 -14 -90 0 -135 25 -270 42 -228 5 15 129 69 208 92 41 12 83
26 93 31 35 19 27 3 -13 -27 -48 -35 -51 -49 -7 -30 17 8 41 17 52 21 14 4 16
8 7 14 -9 5 1 17 33 36 25 16 45 33 45 37 0 5 6 3 13 -4 12 -10 12 -15 1 -26
-8 -7 -18 -11 -23 -8 -5 3 -18 -13 -29 -37 -26 -55 -71 -98 -214 -210 -65 -50
-118 -93 -118 -95 0 -12 63 -111 93 -146 l33 -38 43 66 c24 37 45 65 48 62 5
-5 -21 -87 -39 -119 -7 -15 -3 -27 17 -55 39 -56 52 -72 57 -72 3 0 8 25 12
56 3 30 17 85 30 122 41 114 39 109 27 92 -18 -26 -24 -2 -11 47 16 58 28 76
48 68 15 -5 14 32 -3 135 -6 32 -5 34 9 16 10 -12 21 -16 33 -12 14 6 15 4 6
-5 -8 -8 -10 -38 -6 -98 5 -77 2 -98 -26 -196 -29 -98 -66 -210 -85 -256 -11
-25 107 -69 182 -68 l57 0 -98 23 c-108 25 -156 51 -55 30 35 -8 74 -14 87
-14 22 0 23 1 8 18 -12 13 -13 22 -5 36 6 10 7 35 4 56 -3 21 -1 82 4 136 8
77 7 121 -6 215 -17 124 -14 155 11 145 11 -4 8 7 -10 38 -29 50 -31 58 -10
50 8 -4 15 -1 15 5 0 6 -11 11 -25 11 -26 0 -32 9 -16 25 16 18 -6 55 -34 55
-14 0 -25 4 -25 10 0 5 -19 -8 -42 -30 -37 -34 -46 -37 -61 -27 -25 16 -24 30
3 44 l22 11 -21 11 c-26 14 -27 31 -2 31 13 0 20 -9 25 -30 3 -18 12 -30 21
-30 8 0 15 4 15 9 0 16 72 91 81 85 5 -3 9 -18 9 -33 0 -33 16 -51 46 -51 15
0 24 8 28 25 7 28 24 33 32 10 4 -9 19 -15 35 -15 23 0 34 8 50 35 12 19 25
35 30 35 14 0 11 -9 -11 -37 -11 -14 -20 -33 -20 -43 0 -13 -6 -16 -25 -12
-20 3 -25 0 -25 -16 0 -12 -8 -26 -17 -31 -55 -32 -56 -35 -31 -85 23 -47 35
-55 56 -34 19 19 14 44 -13 76 l-24 29 24 -5 c17 -3 25 -11 25 -25 0 -13 39
-57 106 -121 116 -110 212 -224 233 -274 11 -26 11 -35 1 -47 -11 -14 -15 -14
-33 2 -34 31 -79 104 -94 152 -20 69 -91 135 -171 162 -35 12 -66 19 -69 16
-3 -3 7 -37 21 -75 44 -116 107 -554 81 -570 -5 -3 -51 -8 -102 -10 -119 -6
-202 19 -308 89 -158 106 -275 297 -335 549 -25 109 -28 333 -4 448 34 166 84
281 175 402 146 194 344 281 541 239z m-7531 -153 c285 -68 529 -263 658 -526
50 -100 92 -247 90 -308 -1 -19 -4 -14 -11 18 -19 93 -64 226 -83 248 -2 2
-77 -37 -167 -86 -282 -155 -381 -201 -445 -208 -32 -4 -56 -4 -53 -1 3 2 41
15 85 27 88 24 206 83 332 167 87 57 115 86 106 109 -3 8 1 14 8 14 10 0 10 3
1 12 -17 17 -15 39 3 32 8 -4 15 -12 15 -20 0 -15 29 -18 68 -8 27 8 25 15
-21 93 -56 94 -190 226 -300 296 l-28 18 16 -35 17 -34 -56 -81 c-30 -45 -91
-129 -134 -186 -44 -58 -101 -143 -127 -189 -26 -45 -64 -103 -83 -128 -51
-64 -54 -68 -47 -45 5 13 -5 7 -30 -18 l-37 -39 34 -16 c20 -10 34 -26 36 -39
3 -21 1 -21 -27 7 -23 23 -38 30 -69 30 -26 0 -45 6 -57 19 -17 20 -16 20 20
10 35 -10 39 -9 66 22 34 39 35 43 9 79 -37 51 -53 287 -21 298 6 2 11 26 11
55 l-1 52 -14 -40 c-8 -22 -15 -48 -15 -57 0 -27 -16 -21 -29 10 -11 28 -22
73 -46 202 -8 41 -22 100 -31 130 -8 30 -15 65 -15 78 1 27 2 27 -97 -2 -128
-39 -227 -92 -344 -185 -63 -50 -75 -71 -29 -46 16 8 53 17 83 21 l53 6 50
-69 c58 -79 199 -312 250 -413 19 -39 39 -70 43 -70 17 0 32 25 32 54 0 34 48
143 49 112 2 -31 -38 -152 -57 -176 l-17 -21 -54 48 c-129 115 -471 459 -471
473 -1 20 -82 -69 -126 -137 -72 -112 -132 -257 -149 -358 l-7 -40 17 30 c19
35 72 92 98 107 12 6 22 6 30 -1 7 -5 55 -25 107 -44 52 -19 133 -53 180 -76
83 -40 84 -41 40 -36 l-45 5 64 -25 c35 -14 73 -25 86 -25 41 0 86 22 96 46
11 31 49 47 67 29 12 -10 12 -16 0 -34 -16 -27 -50 -42 -144 -65 -69 -17 -73
-17 -240 9 -93 14 -192 32 -221 40 -28 8 -61 15 -72 15 -12 0 -21 6 -21 14 0
29 -50 -7 -54 -39 -3 -16 -9 -59 -14 -95 -9 -61 -9 -62 -11 -19 0 25 6 88 15
140 60 354 258 629 561 783 192 96 431 128 624 82z m7019 -296 c0 -5 -4 -10
-10 -10 -5 0 -10 5 -10 10 0 6 5 10 10 10 6 0 10 -4 10 -10z m-6672 -18 c2 -7
-6 -12 -17 -12 -21 0 -27 11 -14 24 9 9 26 2 31 -12z m7699 -124 c16 -64 26
-135 30 -227 l6 -134 -44 6 c-24 3 -62 12 -84 19 l-40 13 -6 110 c-3 61 -3
113 0 116 3 4 16 10 28 13 19 6 23 1 37 -63 9 -39 16 -95 16 -125 0 -51 2 -56
21 -56 21 0 22 2 16 118 -6 134 -20 194 -42 185 -18 -6 -18 -5 0 47 8 23 15
54 15 68 0 49 22 6 47 -90z m-7822 5 c-19 -29 -160 -210 -178 -228 -21 -21 47
91 72 120 15 17 46 56 70 88 42 58 70 73 36 20z m6998 -135 c7 -26 10 -24 -30
-31 -27 -5 -31 -4 -26 11 16 45 47 56 56 20z m134 -35 c-3 -3 -11 -2 -17 2 -9
6 -9 10 1 16 14 8 27 -7 16 -18z m93 -49 c0 -8 -4 -14 -10 -14 -5 0 -10 9 -10
21 0 11 5 17 10 14 6 -3 10 -13 10 -21z m-7444 -22 c-18 -16 -18 -16 -6 6 6
13 14 21 18 18 3 -4 -2 -14 -12 -24z m7763 -82 c52 -11 108 -20 125 -21 l31
-1 -30 -7 c-28 -7 -151 4 -290 25 -27 4 -57 14 -65 22 -13 14 -6 15 60 8 41
-3 117 -15 169 -26z m-7048 -257 c6 -54 15 -102 20 -108 23 -23 5 -28 -92 -21
-175 12 -531 66 -433 66 10 0 93 -9 184 -20 174 -21 241 -24 225 -12 -6 4 -10
64 -10 144 0 96 -4 141 -12 150 -17 16 -16 31 1 25 9 -4 22 5 32 21 l17 26 28
-87 c16 -47 34 -130 40 -184z m-951 196 c0 -4 -5 -11 -12 -15 -6 -4 -8 -3 -4
4 3 6 2 13 -4 17 -5 3 -10 14 -10 23 1 15 2 15 15 -2 8 -11 15 -23 15 -27z
m8310 -15 c0 -3 -9 -50 -20 -103 -22 -109 -56 -207 -102 -294 l-31 -58 -34 33
c-18 17 -33 38 -33 45 0 7 -5 13 -10 13 -6 0 -15 11 -20 25 -7 19 -2 43 23
110 30 80 34 85 61 85 23 0 42 13 82 56 29 31 56 65 59 75 6 17 25 27 25 13z
m-7900 -31 c-21 -8 -160 -102 -187 -126 l-23 -20 21 -18 c12 -10 42 -21 67
-25 47 -7 47 -7 17 -16 -16 -6 -72 -13 -122 -18 -116 -10 -143 -25 -143 -80 0
-32 5 -42 31 -61 29 -21 34 -21 58 -8 19 11 27 25 31 53 l5 38 18 -34 c10 -18
89 -102 175 -186 86 -85 150 -150 142 -146 -8 4 -42 33 -75 65 -86 82 -116
105 -148 113 -15 4 -60 22 -100 40 -40 18 -83 37 -96 41 -22 7 -23 5 -16 -21
20 -78 43 -189 40 -193 -3 -2 -11 11 -19 30 l-15 34 1 -40 c1 -48 -10 -105
-22 -105 -12 0 -22 97 -14 147 6 42 5 45 -13 39 -25 -8 -39 8 -48 56 -10 55
-30 67 -61 37 -26 -24 -74 -108 -74 -129 0 -18 -40 -100 -48 -98 -16 3 -121
-111 -157 -170 -41 -70 -114 -158 -127 -155 -15 5 -8 -12 23 -61 16 -27 28
-50 26 -52 -9 -9 -138 88 -202 151 -72 72 -179 220 -170 235 2 4 14 10 25 13
16 4 24 -2 36 -26 36 -70 146 -177 182 -177 17 0 80 69 136 149 76 107 185
233 197 226 5 -4 9 2 9 12 0 10 9 31 19 47 15 23 18 40 14 85 -3 31 -7 57 -8
59 -2 2 -25 -10 -51 -27 -70 -42 -199 -88 -269 -96 -33 -4 -83 -17 -111 -30
-27 -13 -72 -33 -100 -44 -110 -44 -108 -43 -104 -105 3 -53 -19 -17 -49 80
-17 53 -32 123 -35 157 -4 52 -4 55 4 22 4 -22 18 -71 29 -110 20 -69 21 -69
15 -20 -2 28 -7 64 -11 80 -5 29 -5 30 14 13 26 -24 39 -23 152 12 53 16 155
45 226 65 175 48 235 76 235 109 0 14 -4 28 -10 31 -5 3 -10 11 -10 16 0 5 10
1 22 -11 26 -24 53 -19 86 17 16 17 27 22 33 16 7 -7 -5 -25 -36 -54 -26 -24
-53 -48 -61 -52 -16 -9 -19 -27 -4 -27 5 0 27 17 50 38 l40 39 18 -31 18 -31
-46 -22 c-25 -12 -39 -23 -31 -23 9 0 11 -8 7 -25 -7 -25 7 -64 28 -77 34 -23
86 7 87 51 0 24 1 25 12 7 26 -41 56 -71 57 -56 0 19 -23 54 -63 98 -33 35
-33 35 30 23 23 -5 40 -5 38 -1 -3 4 7 20 20 36 14 16 25 38 24 49 0 11 -3 14
-6 8 -7 -20 -20 -15 -26 8 -6 22 -28 22 -35 -1 -3 -8 0 -10 8 -5 10 6 12 1 7
-25 -13 -64 -42 -76 -82 -35 -32 31 -32 55 -2 55 48 0 61 39 26 76 l-22 23 28
7 c43 11 78 -7 98 -49 22 -43 51 -52 41 -12 -8 31 0 31 38 0 29 -24 31 -25 58
-8 16 9 34 27 41 40 7 12 14 21 17 18 3 -2 17 5 33 15 53 39 114 70 134 69 15
0 16 -2 5 -6z m51 -111 c-5 -20 -9 -29 -10 -20 -1 9 -5 19 -10 22 -5 4 -7 -2
-4 -13 3 -13 -4 -23 -26 -34 -30 -15 -31 -15 -31 6 0 12 -3 39 -6 59 -6 36 -6
36 37 45 38 8 45 7 51 -9 4 -10 4 -35 -1 -56z m-281 47 c0 -5 -4 -9 -10 -9 -5
0 -10 7 -10 16 0 8 5 12 10 9 6 -3 10 -10 10 -16z m-375 -19 c3 -5 1 -10 -4
-10 -6 0 -11 5 -11 10 0 6 2 10 4 10 3 0 8 -4 11 -10z m315 -210 c0 -5 -4 -10
-10 -10 -5 0 -10 5 -10 10 0 6 5 10 10 10 6 0 10 -4 10 -10z m-230 -20 c0 -5
-2 -10 -4 -10 -3 0 -8 5 -11 10 -3 6 -1 10 4 10 6 0 11 -4 11 -10z m-4102 -47
c-10 -2 -28 -2 -40 0 -13 2 -5 4 17 4 22 1 32 -1 23 -4z m5131 -110 c-37 -109
-87 -212 -143 -297 -24 -35 -45 -69 -47 -75 -5 -15 -52 27 -71 63 -15 29 -14
31 19 79 35 49 103 182 103 202 1 5 23 21 50 34 27 13 61 37 76 52 15 16 31
29 35 29 4 0 -6 -39 -22 -87z m7195 -9 c-82 -99 -223 -204 -276 -204 -21 0
-31 42 -18 75 8 22 15 26 35 21 26 -7 55 23 55 55 0 10 6 19 13 22 9 3 9 7 -2
20 -8 10 -9 17 -3 17 6 0 13 -4 16 -9 7 -11 78 2 141 27 75 30 80 26 39 -24z
m-8101 -131 c10 -54 17 -111 17 -128 0 -33 -34 -84 -46 -72 -21 20 -16 297 5
297 4 0 15 -44 24 -97z m514 -310 c39 -3 85 -1 102 5 17 6 31 8 31 4 -1 -9
-122 -104 -180 -139 -90 -56 -254 -123 -267 -109 -3 3 -8 28 -11 55 l-4 49 50
16 c41 14 54 15 70 5 26 -16 52 -5 52 23 0 14 15 36 37 55 32 28 36 34 23 44
-12 9 -11 10 5 4 11 -4 52 -10 92 -12z m-567 -100 c0 -19 -3 -24 -10 -17 -6 6
-8 18 -4 27 9 24 14 21 14 -10z m-200 -49 c96 -18 144 -18 160 1 18 21 27 19
63 -16 35 -34 121 -79 152 -79 15 0 16 -3 7 -12 -22 -22 -252 -16 -347 9 -82
22 -175 58 -175 68 0 3 7 17 16 31 11 16 23 23 33 19 9 -4 50 -13 91 -21z"/>
<path d="M17552 2743 c-25 -3 -32 -8 -28 -21 10 -29 36 -215 37 -257 0 -32 2
-36 9 -20 14 34 12 -94 -3 -152 -25 -96 -2 -202 36 -164 6 6 21 11 33 11 39 0
86 86 150 274 35 103 41 136 24 136 -13 0 -50 41 -45 50 12 20 -109 80 -160
80 -21 0 -25 5 -25 29 l0 28 53 -14 c60 -16 94 -14 62 4 -25 14 -99 22 -143
16z m33 -152 c3 -5 1 -12 -5 -16 -5 -3 -10 1 -10 9 0 18 6 21 15 7z"/>
<path d="M17796 2639 c-25 -25 -5 -25 25 1 17 13 19 19 9 19 -8 0 -24 -9 -34
-20z"/>
<path d="M17230 2512 c0 -4 6 -16 14 -27 18 -27 65 -111 89 -160 24 -49 58
-98 63 -92 7 7 -44 103 -71 136 -14 16 -25 34 -25 41 0 12 -60 110 -67 110 -2
0 -3 -3 -3 -8z"/>
<path d="M17628 1577 c-2 -12 1 -58 7 -102 6 -44 10 -82 8 -85 -8 -9 -21 24
-32 79 -6 31 -15 62 -19 69 -5 7 -14 -79 -21 -190 -14 -230 -17 -217 69 -247
49 -17 88 -19 62 -2 -14 9 -33 187 -30 296 2 119 -30 254 -44 182z"/>
<path d="M17431 1524 c0 -11 3 -14 6 -6 3 7 2 16 -1 19 -3 4 -6 -2 -5 -13z"/>
<path d="M17237 1226 c10 -13 27 -30 38 -36 11 -7 4 4 -14 24 -40 42 -50 47
-24 12z"/>
<path d="M9895 2592 c22 -10 46 -26 54 -35 7 -10 19 -17 26 -17 20 0 36 -25
24 -37 -6 -6 -12 -80 -15 -169 -3 -87 -12 -184 -20 -215 -27 -108 -9 -261 32
-267 30 -4 80 33 110 80 63 99 224 446 224 482 0 9 -7 16 -16 16 -11 0 -4 13
22 45 20 25 35 47 33 48 -13 9 -74 33 -139 54 -62 21 -101 26 -225 29 l-150 5
40 -19z"/>
<path d="M18130 1604 c-11 -27 -13 -51 -5 -42 8 8 25 68 19 68 -2 0 -9 -12
-14 -26z"/>
<path d="M9766 1525 c-3 -8 -1 -15 4 -15 13 0 22 18 11 24 -5 3 -11 -1 -15 -9z"/>
<path d="M9528 1438 c-43 -23 -76 -43 -74 -45 4 -5 115 48 146 70 43 30 7 18
-72 -25z"/>
<path d="M9691 1224 c0 -11 3 -14 6 -6 3 7 2 16 -1 19 -3 4 -6 -2 -5 -13z"/>
<path d="M9419 3240 l-24 -19 43 -1 c43 0 51 7 30 28 -16 16 -22 15 -49 -8z"/>
<path d="M8135 2705 c-30 -25 -30 -25 -7 -31 12 -4 22 -13 22 -20 0 -11 7 -13
28 -8 38 9 60 31 58 60 -1 21 -6 24 -36 24 -22 -1 -46 -10 -65 -25z m55 5 c0
-5 -2 -10 -4 -10 -3 0 -8 5 -11 10 -3 6 -1 10 4 10 6 0 11 -4 11 -10z"/>
<path d="M14673 2515 c0 -22 2 -30 4 -17 2 12 2 30 0 40 -3 9 -5 -1 -4 -23z"/>
<path d="M14661 2444 c0 -11 3 -14 6 -6 3 7 2 16 -1 19 -3 4 -6 -2 -5 -13z"/>
<path d="M6625 2430 c-8 -13 4 -53 19 -62 8 -6 6 -11 -4 -18 -10 -7 -11 -12
-4 -17 6 -5 13 -15 16 -24 7 -17 48 -29 88 -24 14 1 35 3 47 4 12 0 28 7 35
15 8 8 23 15 33 17 10 2 20 9 22 14 4 12 -98 55 -132 55 -13 0 -27 5 -30 10
-5 8 -69 40 -81 40 -1 0 -6 -5 -9 -10z"/>
<path d="M14642 2330 c0 -14 2 -19 5 -12 2 6 2 18 0 25 -3 6 -5 1 -5 -13z"/>
<path d="M14632 2265 c0 -16 2 -22 5 -12 2 9 2 23 0 30 -3 6 -5 -1 -5 -18z"/>
<path d="M7795 2199 c-87 -6 -112 -11 -122 -25 -18 -25 -16 -31 10 -39 18 -6
19 -8 5 -12 -9 -2 -20 -13 -23 -24 -4 -12 -15 -19 -30 -19 -16 0 -26 -8 -31
-22 -7 -21 -8 -20 -16 12 -5 19 -9 52 -8 73 0 37 -1 38 -33 33 -53 -9 -181
-25 -364 -46 -185 -21 -362 -53 -390 -69 -24 -14 -18 -14 132 9 325 49 367 54
382 44 19 -12 28 -141 11 -162 -11 -13 -5 -14 50 -10 57 4 80 -3 50 -16 -10
-4 -9 -7 2 -15 11 -6 16 -30 18 -74 4 -77 -14 -106 -63 -108 -16 -1 -41 -4
-55 -8 l-25 -7 22 -12 c12 -7 30 -12 40 -13 10 0 13 -3 6 -5 -8 -4 -10 -21 -6
-56 5 -41 3 -50 -8 -46 -16 5 -44 -51 -32 -63 8 -8 64 -12 144 -10 43 1 46 2
42 26 -6 28 -4 28 120 42 42 5 77 5 77 1 0 -13 -37 -28 -69 -28 -32 0 -42 -16
-17 -26 19 -7 73 21 102 54 38 43 90 160 128 288 31 105 86 315 86 327 0 11
-31 12 -135 6z m-46 -235 c2 -2 -19 -4 -48 -4 -32 0 -50 4 -46 10 5 9 83 4 94
-6z m-121 -80 c4 -36 -15 -55 -46 -47 -17 4 -22 13 -22 38 0 35 11 45 45 42
15 -1 21 -10 23 -33z m120 20 c15 -26 -8 -74 -34 -74 -51 0 -67 55 -23 77 32
17 46 16 57 -3z m-264 -359 c-4 -8 -8 -15 -10 -15 -2 0 -4 7 -4 15 0 8 4 15
10 15 5 0 7 -7 4 -15z"/>
<path d="M14632 2015 c0 -16 2 -22 5 -12 2 9 2 23 0 30 -3 6 -5 -1 -5 -18z"/>
<path d="M14632 1875 c0 -16 2 -22 5 -12 2 9 2 23 0 30 -3 6 -5 -1 -5 -18z"/>
<path d="M20640 292 c0 -5 29 -34 64 -65 l64 -57 169 -15 c92 -8 218 -20 278
-26 61 -5 310 -11 555 -12 366 -2 474 1 605 15 242 27 245 27 245 44 0 11 -8
14 -32 10 -40 -7 -174 -22 -328 -37 -180 -18 -941 -2 -1247 25 l-242 22 -60
52 c-60 52 -71 59 -71 44z"/>
</g>
</svg>
