<?xml version="1.0" standalone="no"?>
<!DOCTYPE svg PUBLIC "-//W3C//DTD SVG 20010904//EN"
 "http://www.w3.org/TR/2001/REC-SVG-20010904/DTD/svg10.dtd">
<svg version="1.0" xmlns="http://www.w3.org/2000/svg"
 width="2374.000000pt" height="1240.000000pt" viewBox="0 0 2374.000000 1240.000000"
 preserveAspectRatio="xMidYMid meet">

<g transform="translate(0.000000,1240.000000) scale(0.100000,-0.100000)"
fill="#000000" stroke="none">
<path d="M20371 12235 c-35 -32 -43 -35 -78 -29 -41 6 -102 -13 -134 -42 -11
-10 -26 -13 -38 -9 -15 4 -32 -5 -65 -35 l-45 -42 -27 21 c-14 11 -42 23 -63
27 -23 4 -47 18 -66 40 -29 33 -32 34 -133 40 -98 7 -105 6 -155 -19 -55 -28
-217 -54 -263 -43 -13 3 -36 18 -51 32 -25 23 -33 25 -93 20 -36 -3 -115 -9
-175 -14 -61 -4 -117 -12 -125 -17 -8 -5 -60 -10 -115 -11 -324 -9 -491 -20
-535 -38 -25 -9 -63 -22 -85 -27 -99 -24 -127 -29 -146 -29 -34 0 -96 -38
-125 -76 -16 -20 -51 -47 -81 -61 -54 -26 -113 -82 -113 -108 0 -16 -36 -39
-49 -31 -14 9 -51 -25 -51 -48 0 -12 7 -31 15 -42 18 -24 19 -34 1 -34 -8 0
-17 -7 -20 -16 -5 -13 -2 -14 11 -8 10 4 42 9 71 9 36 1 62 8 81 23 25 18 31
19 41 7 17 -20 32 -19 28 3 -2 13 4 17 27 17 19 0 30 -5 31 -15 1 -8 2 -23 3
-33 0 -10 15 -26 31 -35 17 -9 28 -22 26 -28 -3 -7 7 -14 22 -17 31 -6 61 6
43 17 -6 4 -11 12 -11 18 0 15 53 0 63 -18 4 -8 14 -14 21 -14 8 0 19 -7 26
-15 7 -9 21 -13 31 -10 13 4 19 1 19 -8 0 -8 9 -17 20 -20 12 -3 20 -14 20
-26 0 -12 4 -21 9 -21 14 0 21 -43 9 -57 -8 -10 -6 -18 7 -33 10 -11 15 -23
11 -27 -4 -4 -11 -1 -16 7 -8 13 -10 13 -10 -1 0 -9 -7 -20 -16 -23 -9 -4 -14
-13 -10 -21 3 -9 0 -15 -8 -15 -23 0 -27 -29 -5 -40 20 -11 17 -34 -4 -27 -24
8 -60 -54 -51 -88 5 -22 3 -25 -21 -25 -21 0 -26 -4 -21 -16 5 -13 1 -15 -21
-11 -16 4 -23 4 -16 1 10 -4 10 -10 0 -25 -9 -15 -9 -23 1 -39 16 -27 15 -30
-8 -30 -11 0 -20 -5 -20 -11 0 -6 -8 -8 -19 -4 -14 4 -23 -1 -32 -17 -9 -16
-9 -23 0 -26 14 -5 15 -32 1 -32 -5 0 -10 5 -10 10 0 20 -29 9 -32 -12 -2 -13
-8 -23 -15 -23 -7 0 -18 -6 -24 -12 -10 -10 -9 -13 8 -13 11 0 26 -7 33 -15 7
-9 23 -15 34 -13 17 2 21 9 18 38 l-2 35 15 -25 c8 -15 12 -36 9 -52 -6 -31
-3 -33 27 -15 18 10 23 9 43 -17 15 -18 26 -24 30 -17 11 18 26 13 26 -8 0
-23 16 -36 25 -21 9 15 27 1 21 -16 -3 -7 -1 -16 3 -19 5 -2 11 -14 14 -25 5
-21 -4 -19 -36 8 -13 12 -20 13 -29 4 -9 -9 -8 -12 6 -12 12 0 16 -5 12 -16
-3 -9 -6 -21 -6 -27 0 -15 -98 -40 -114 -29 -6 4 -20 8 -31 9 -11 1 -38 6 -60
12 -47 12 -230 -2 -303 -24 -25 -8 -49 -12 -54 -8 -5 3 -18 -4 -29 -16 -11
-11 -33 -28 -49 -36 -17 -9 -30 -22 -30 -30 0 -9 -11 -33 -25 -55 -14 -22 -25
-44 -25 -50 0 -5 -9 -10 -20 -10 -11 0 -20 -4 -20 -9 0 -5 92 -8 213 -8 116 1
248 -2 292 -6 90 -9 86 6 -5 17 -74 10 -100 16 -100 27 0 5 15 9 34 9 19 0 36
4 38 9 5 13 174 -14 204 -33 24 -16 25 -20 10 -28 -9 -5 -30 -6 -46 -3 -28 6
-44 -9 -20 -17 7 -2 7 -43 0 -123 -8 -103 -14 -129 -38 -173 -16 -29 -31 -50
-34 -47 -3 3 -3 26 0 50 5 51 -13 156 -34 197 -31 61 -151 98 -314 98 -122 0
-257 -27 -338 -69 -44 -22 -102 -84 -102 -107 0 -14 -2 -14 -15 0 -14 13 -18
12 -40 -10 -25 -25 -54 -31 -70 -15 -6 5 -25 12 -42 16 -32 6 -33 5 -33 -24 0
-40 -19 -40 -26 -1 -4 17 -13 30 -21 30 -9 0 -31 14 -50 30 -41 37 -97 63
-181 86 -115 31 -321 11 -454 -43 -60 -25 -75 -104 -59 -319 11 -137 18 -176
47 -241 8 -17 14 -38 14 -45 0 -29 75 -77 150 -96 77 -19 150 -32 188 -33 l37
0 -33 -12 c-47 -17 -41 -31 13 -35 37 -3 49 1 67 22 33 35 44 49 58 76 11 21
11 23 -11 16 -70 -20 -143 -27 -229 -24 -90 3 -99 5 -132 33 -52 43 -76 107
-90 231 -9 83 -9 107 1 113 7 5 69 -7 139 -25 70 -19 141 -34 159 -34 41 0 85
-44 77 -76 -4 -15 0 -23 12 -28 23 -9 219 53 206 66 -5 5 -25 5 -48 0 -41 -9
-98 3 -88 19 3 5 39 9 80 9 l74 0 0 -29 c0 -16 -7 -45 -16 -66 -8 -20 -13 -39
-11 -42 3 -2 20 13 39 33 18 21 57 64 86 95 28 31 52 64 52 73 0 9 4 14 10 11
5 -3 24 2 41 12 30 18 30 18 48 -5 9 -13 23 -55 29 -95 11 -62 11 -72 -3 -79
-17 -10 -21 -38 -5 -38 6 0 10 -4 10 -10 0 -5 -9 -10 -20 -10 -15 0 -20 -7
-20 -26 0 -23 -3 -25 -30 -19 -16 4 -30 2 -30 -3 0 -10 55 -60 86 -79 10 -6
18 -16 17 -22 -4 -15 28 -46 47 -46 8 0 15 -9 15 -20 0 -11 4 -23 9 -26 18
-13 -3 -39 -32 -39 -15 0 -33 -5 -38 -10 -6 -6 -38 -12 -71 -14 -65 -4 -169
-44 -200 -78 -9 -10 -17 -31 -18 -46 0 -24 -4 -27 -36 -30 -30 -2 -41 2 -60
25 -43 50 -80 74 -95 62 -18 -15 -18 -34 2 -64 10 -15 26 -25 39 -25 13 0 37
-11 53 -25 17 -14 33 -21 36 -16 4 5 47 -10 99 -34 l93 -44 79 8 c47 6 86 6
96 0 12 -6 19 -5 22 4 3 9 10 7 25 -6 17 -15 24 -17 42 -7 12 7 30 10 40 7 11
-3 21 1 24 9 3 8 16 14 29 14 52 0 139 37 185 79 18 17 40 31 48 31 9 0 32
-17 53 -39 31 -32 37 -45 36 -79 -1 -51 -20 -74 -59 -71 -17 1 -39 -2 -48 -6
-9 -4 -22 -4 -28 0 -5 3 -10 -1 -10 -9 0 -9 6 -16 13 -16 8 0 7 -3 -3 -10 -23
-15 -81 -8 -117 13 -19 11 -56 20 -90 21 -32 2 -65 5 -73 8 -71 23 -75 24 -91
8 -14 -15 -10 -17 48 -28 70 -13 194 -59 205 -76 11 -16 -30 -24 -169 -36 -86
-7 -136 -16 -166 -30 -25 -12 -48 -20 -53 -18 -16 4 -94 -36 -90 -46 2 -6 10
-9 17 -7 44 13 76 12 125 -4 41 -13 59 -14 67 -6 14 14 54 14 62 1 3 -5 15
-10 26 -10 12 0 19 -7 19 -20 0 -19 2 -19 39 6 27 17 46 24 60 19 22 -7 61
-71 61 -100 0 -23 14 -18 38 15 28 38 65 40 88 5 13 -19 15 -37 10 -79 l-7
-53 -47 -7 c-43 -6 -49 -4 -69 21 -21 26 -22 27 -42 9 -23 -21 -19 -36 9 -36
25 0 41 -30 29 -53 -6 -9 -19 -17 -29 -17 -10 0 -21 -4 -24 -9 -4 -5 -25 -12
-47 -16 -65 -11 -299 -117 -299 -136 0 -5 -5 -9 -12 -9 -6 0 -19 -7 -28 -15
-14 -13 -47 -22 -154 -41 -37 -6 -46 -12 -46 -28 0 -44 145 -78 325 -77 79 1
136 -3 140 -9 4 -6 15 -4 30 6 23 15 25 15 31 0 4 -10 13 -15 20 -12 8 3 14 0
14 -5 0 -7 9 -9 21 -6 12 3 30 1 40 -6 14 -9 21 -9 31 1 9 9 15 8 28 -3 15
-14 18 -14 30 0 7 8 19 15 27 15 13 0 13 3 3 15 -7 8 -19 15 -26 15 -8 0 -14
4 -14 8 0 5 26 7 58 5 65 -4 104 15 83 40 -8 11 -9 22 -1 43 6 15 9 39 5 51
-4 16 1 31 15 46 11 12 37 46 57 76 20 30 49 66 65 79 42 35 24 46 -53 31 -35
-6 -69 -15 -74 -20 -12 -9 -95 -29 -95 -23 0 7 38 43 42 39 12 -11 121 20 190
55 45 22 87 39 93 36 7 -2 17 -1 23 3 14 9 52 97 53 124 0 12 4 31 9 42 8 19
8 19 18 -5 9 -24 10 -23 17 15 10 59 13 65 27 60 17 -7 54 -73 45 -81 -3 -3 1
-21 9 -39 11 -27 11 -37 1 -47 -20 -23 -34 -52 -42 -88 -4 -19 -14 -42 -22
-51 -7 -9 -17 -34 -20 -55 -3 -22 -9 -43 -13 -49 -3 -5 -12 -30 -19 -55 -15
-52 -87 -202 -114 -237 -10 -12 -25 -23 -34 -23 -16 0 -57 -39 -66 -62 -4 -10
-7 -11 -18 0 -19 18 -28 15 -39 -13 -5 -14 -16 -25 -24 -25 -7 0 -16 -9 -19
-20 -4 -14 -14 -20 -34 -21 -21 0 -35 -10 -58 -41 -16 -23 -50 -52 -75 -65
-25 -13 -52 -32 -60 -42 -24 -29 -121 -70 -225 -94 -28 -7 -75 -31 -75 -38 0
-5 -15 -9 -34 -9 -18 0 -39 -7 -46 -15 -7 -9 -21 -13 -30 -10 -10 3 -37 1 -61
-5 -24 -6 -60 -12 -80 -14 -21 -1 -44 -9 -52 -18 -14 -14 -13 -18 16 -46 42
-40 141 -73 244 -81 45 -3 85 -10 90 -14 4 -5 -2 -16 -13 -25 -11 -9 -44 -47
-72 -83 -29 -37 -59 -70 -68 -73 -8 -3 -33 -3 -55 0 -46 8 -81 -11 -101 -53
-11 -22 -22 -29 -56 -34 -49 -6 -62 -20 -62 -66 0 -38 37 -85 80 -103 25 -10
34 -10 55 4 14 9 25 21 25 26 0 16 87 70 113 70 13 0 37 -10 52 -22 22 -17 26
-27 22 -54 -3 -19 -1 -37 6 -43 10 -8 125 -15 184 -12 7 1 25 20 39 43 15 23
35 51 45 62 11 11 19 23 19 28 0 4 11 8 24 8 25 0 87 44 123 88 17 20 22 41
23 82 l1 55 20 -37 c10 -21 28 -42 39 -48 11 -6 20 -16 20 -21 0 -6 11 -20 25
-31 14 -11 25 -26 25 -34 0 -8 3 -14 8 -14 4 0 8 -18 8 -40 1 -26 10 -51 26
-72 l24 -31 -24 -50 c-29 -58 -32 -119 -7 -147 17 -19 17 -21 1 -39 -14 -16
-15 -23 -6 -40 12 -23 30 -20 30 5 0 19 27 18 38 -3 12 -20 -24 -53 -56 -53
-11 0 -23 -6 -25 -12 -3 -8 -6 -6 -6 5 -1 9 -6 17 -12 17 -7 0 -8 -7 -4 -17 4
-10 9 -34 12 -53 2 -19 9 -40 14 -47 8 -9 7 -17 -4 -27 -13 -14 -18 -13 -39 7
-26 24 -41 62 -58 152 -6 33 -14 68 -17 79 -9 31 -21 4 -26 -57 -2 -31 -6 -60
-9 -63 -3 -3 -41 34 -84 81 -91 99 -148 141 -206 150 -42 7 -68 -9 -48 -29 16
-16 11 -44 -7 -48 -10 -3 -35 2 -57 9 -78 26 -155 10 -107 -23 26 -19 29 -81
6 -127 -17 -35 -75 -77 -106 -77 -48 0 -85 -50 -58 -77 8 -8 8 -17 0 -31 -6
-11 -8 -27 -5 -36 5 -14 -38 -66 -56 -66 -4 0 -12 -11 -18 -25 -7 -16 -17 -23
-26 -19 -8 3 -28 -1 -43 -9 -75 -39 -81 -40 -125 -28 -24 6 -63 14 -88 16 -25
3 -63 9 -84 14 -22 5 -43 8 -47 5 -5 -2 -36 0 -71 6 -35 6 -110 13 -168 16
-115 6 -160 22 -160 56 0 20 -1 20 -19 4 -19 -17 -119 -56 -146 -56 -11 0 -15
-11 -15 -41 0 -22 -5 -49 -11 -60 -6 -11 -12 -28 -14 -37 -20 -81 -33 -113
-67 -151 -21 -24 -38 -47 -38 -51 0 -4 -11 -12 -25 -18 -14 -6 -32 -27 -41
-46 -16 -32 -15 -38 5 -106 21 -67 29 -121 35 -229 3 -52 26 -75 71 -67 26 5
33 1 47 -24 9 -17 30 -35 45 -41 15 -6 56 -24 90 -40 34 -16 68 -29 77 -29 8
0 18 -4 21 -10 3 -5 26 -10 51 -10 25 0 59 -7 77 -17 37 -19 89 -34 132 -37
17 -1 37 -3 46 -4 9 -1 19 -11 22 -23 3 -11 19 -25 36 -32 17 -6 31 -17 31
-24 0 -7 12 -13 28 -14 62 -1 97 -10 115 -30 20 -21 20 -21 -2 -14 -12 3 -21
2 -21 -4 0 -11 28 -41 39 -41 10 0 53 -66 70 -107 10 -24 23 -35 48 -42 42
-12 73 -38 73 -60 0 -9 -19 -36 -42 -60 l-41 -43 -79 -3 c-60 -1 -86 -7 -106
-22 -15 -10 -42 -25 -60 -32 -18 -8 -37 -22 -43 -32 -5 -11 -16 -19 -24 -19
-8 0 -29 -13 -47 -28 -18 -16 -52 -39 -75 -52 -45 -25 -52 -40 -30 -62 8 -8
14 -43 15 -86 3 -66 1 -74 -17 -79 -28 -7 -33 -28 -10 -49 11 -10 27 -32 35
-50 8 -18 23 -34 33 -37 14 -3 17 -12 13 -35 -3 -26 0 -33 20 -41 41 -16 70
-78 98 -211 13 -60 13 -62 64 -230 19 -63 37 -124 41 -136 9 -33 50 -65 106
-84 45 -16 54 -23 65 -56 7 -21 25 -47 40 -58 14 -11 31 -24 37 -31 8 -8 17
-5 35 12 14 13 38 23 53 23 45 0 136 39 169 71 l30 30 64 -30 c51 -25 77 -31
127 -31 75 0 89 8 173 97 35 37 67 63 79 63 12 0 31 10 43 21 l23 22 10 -24
c6 -13 18 -98 26 -189 18 -185 30 -237 57 -245 10 -4 21 -18 24 -32 4 -14 26
-53 49 -87 48 -71 82 -89 123 -65 37 20 48 49 61 154 6 50 17 122 25 160 12
54 15 151 16 434 0 359 0 365 -24 440 -14 42 -38 119 -54 171 -17 52 -48 141
-71 198 -34 85 -62 179 -98 330 -6 26 9 29 28 6 7 -9 42 -30 77 -46 74 -35
123 -80 181 -168 54 -82 93 -185 206 -550 37 -118 102 -307 145 -420 43 -113
104 -282 136 -376 l58 -172 -31 -36 c-78 -88 -112 -197 -83 -267 16 -37 102
-99 138 -99 84 0 247 66 339 137 66 51 235 219 276 274 7 8 80 85 162 170 161
164 348 383 373 436 15 31 14 34 -6 56 -12 13 -22 27 -22 31 0 4 -17 33 -38
64 -21 31 -65 109 -97 172 -64 127 -104 188 -275 425 -64 88 -153 218 -200
289 l-84 129 24 19 c22 17 75 50 215 133 27 15 35 28 41 60 5 35 26 114 79
310 26 99 74 352 85 450 7 66 28 156 61 265 27 91 54 181 59 201 5 19 23 72
41 118 l31 82 34 -7 c29 -5 34 -4 32 12 -2 11 2 21 7 24 6 3 12 -6 13 -20 2
-14 8 -29 13 -35 5 -5 9 -21 9 -35 0 -14 8 -30 19 -37 13 -8 22 -29 26 -60 4
-26 13 -58 21 -69 11 -19 11 -24 -5 -38 -10 -9 -22 -16 -28 -16 -19 0 -43 -49
-43 -88 0 -34 5 -44 38 -68 36 -29 39 -29 155 -27 129 3 132 1 102 -57 -18
-36 -5 -81 36 -125 16 -17 32 -45 35 -63 4 -21 11 -31 19 -28 7 2 22 -7 34
-20 12 -14 26 -22 31 -19 17 11 50 -15 50 -39 0 -25 -33 -39 -120 -52 -25 -3
-70 -14 -100 -24 -30 -11 -67 -16 -81 -13 -20 4 -31 -1 -43 -19 -13 -19 -14
-24 -3 -26 8 -2 93 13 191 33 97 20 193 35 214 33 34 -3 37 -5 35 -33 0 -16
-13 -73 -28 -125 -15 -52 -33 -118 -40 -146 -7 -28 -17 -59 -23 -70 -5 -10
-13 -40 -17 -66 -4 -27 -21 -85 -37 -130 -16 -46 -31 -96 -32 -113 -2 -16 -11
-47 -20 -67 -9 -21 -16 -48 -16 -61 0 -14 -7 -30 -15 -37 -8 -7 -15 -25 -15
-41 0 -15 -4 -30 -9 -33 -5 -3 -12 -32 -16 -63 -4 -32 -11 -62 -15 -68 -4 -5
-13 -30 -19 -55 -7 -25 -16 -54 -21 -65 -5 -11 -16 -45 -26 -75 -9 -30 -25
-73 -35 -95 -9 -22 -21 -56 -24 -75 -4 -19 -16 -53 -26 -74 -11 -22 -19 -47
-19 -56 0 -9 -7 -25 -15 -36 -8 -10 -15 -26 -15 -35 0 -18 -48 -117 -61 -125
-5 -3 -9 -16 -9 -30 0 -19 -5 -24 -26 -24 -32 0 -27 -24 6 -28 27 -4 46 -25
55 -60 4 -17 -6 -41 -40 -91 -24 -38 -52 -74 -60 -81 -8 -7 -15 -18 -15 -24 0
-6 -16 -27 -35 -46 -19 -19 -35 -40 -35 -47 0 -8 -7 -16 -15 -19 -20 -8 -19
-24 1 -24 12 0 14 -7 9 -33 -6 -32 -6 -32 9 -7 8 14 13 28 10 31 -2 3 8 11 22
18 22 10 25 16 21 41 -5 24 -4 28 11 24 13 -5 14 -4 3 4 -7 5 -10 15 -6 21 8
14 47 4 58 -15 13 -22 37 -16 37 9 0 12 7 31 15 41 8 10 11 24 8 30 -4 6 -8
19 -8 29 -1 14 4 18 22 14 27 -5 28 2 9 47 -8 19 -11 38 -6 42 4 5 15 41 23
79 8 39 27 104 41 145 57 167 236 722 266 825 18 61 41 139 51 175 11 36 23
81 29 100 5 19 27 98 48 175 22 77 47 172 57 210 9 39 24 91 32 118 11 36 12
55 4 78 -9 27 -6 35 34 88 25 33 45 63 45 68 0 15 130 167 148 174 10 4 26 16
36 28 11 11 25 21 33 21 8 0 21 7 29 15 8 8 32 19 54 25 38 10 81 53 140 140
44 64 140 179 214 254 53 54 83 77 113 85 22 6 47 19 57 30 11 12 25 16 42 13
22 -4 25 -2 22 19 -3 24 -2 24 86 25 52 1 91 6 95 13 4 6 18 11 32 10 73 -2
102 1 112 9 7 5 41 10 76 11 79 1 121 12 218 57 42 19 86 34 100 34 14 0 21 4
18 10 -3 6 -17 10 -31 10 -15 0 -24 6 -24 15 0 20 7 19 140 -14 130 -34 139
-32 161 38 7 20 29 64 49 99 21 34 41 77 44 96 9 48 -10 122 -44 170 -29 40
-29 43 -26 147 4 117 18 157 77 220 46 49 56 67 69 130 l13 56 -45 94 c-35 73
-57 106 -101 145 -30 29 -68 70 -82 93 -28 41 -28 41 -11 85 10 25 42 72 72
106 60 67 104 146 104 185 0 13 5 44 12 68 9 36 8 54 -7 111 -15 55 -29 80
-83 143 -35 41 -93 96 -128 122 -35 25 -64 53 -64 62 0 9 7 33 15 52 21 50 19
123 -5 198 -16 52 -34 80 -93 146 l-74 83 4 92 5 93 -41 55 c-93 126 -95 133
-102 265 -8 149 -29 247 -68 322 -17 32 -31 65 -31 73 0 8 -7 24 -15 34 -9 12
-15 42 -15 75 0 36 -8 73 -21 101 -12 25 -27 79 -34 120 -7 41 -23 104 -36
140 -12 36 -26 77 -31 91 -5 15 -22 40 -37 55 -68 72 -151 176 -151 190 0 8
-9 33 -21 56 -20 39 -20 43 -5 90 22 69 13 100 -48 151 -67 57 -93 70 -127 63
-24 -5 -33 1 -68 43 -34 40 -52 52 -102 67 -68 21 -83 39 -94 116 -6 42 -14
53 -62 92 l-54 45 -115 -1 c-131 -2 -138 2 -130 66 11 97 -58 128 -133 61z
m-2446 -412 c-28 -20 -41 -16 -20 7 10 11 22 17 28 13 6 -4 3 -12 -8 -20z
m-175 -1516 c19 -8 45 -26 57 -39 l22 -23 -102 0 c-77 -1 -110 -5 -134 -18
-36 -19 -57 -22 -48 -7 3 6 -3 10 -15 10 -11 0 -23 6 -26 14 -6 17 20 72 38
80 23 10 172 -2 208 -17z m-1109 -38 c35 -12 76 -27 91 -35 30 -15 104 -101
95 -110 -3 -3 -31 6 -61 21 -96 47 -176 33 -211 -35 -9 -17 -17 -30 -18 -30
-2 0 -66 20 -142 45 -77 25 -148 45 -157 45 -41 0 0 52 60 77 107 45 246 54
343 22z m1153 -64 c36 -15 36 -16 20 -40 -9 -14 -26 -25 -37 -25 -11 0 -35 -5
-53 -12 -26 -9 -45 -9 -86 1 -36 8 -54 8 -56 1 -2 -5 -15 -10 -29 -10 -41 0
-24 31 37 67 44 27 65 33 111 33 31 0 73 -7 93 -15z m-281 -30 c-3 -9 -8 -14
-10 -11 -3 3 -2 9 2 15 9 16 15 13 8 -4z m-757 -66 c11 -10 25 -19 31 -19 21
0 43 -31 43 -61 0 -36 -5 -36 -77 -3 -43 20 -76 27 -125 28 -41 1 -68 5 -68
12 0 12 48 59 70 67 27 11 104 -4 126 -24z m930 -85 c-20 -14 -59 -7 -53 10 5
14 61 25 66 12 2 -5 -4 -15 -13 -22z m124 -3 c0 -12 -20 -25 -27 -18 -7 7 6
27 18 27 5 0 9 -4 9 -9z m-412 -37 c-10 -10 -28 6 -28 24 0 15 1 15 17 -1 9
-9 14 -19 11 -23z m182 5 c0 -20 -15 -26 -25 -9 -9 15 3 43 15 35 5 -3 10 -15
10 -26z m-852 -21 c-7 -20 -68 -23 -68 -4 0 12 10 16 36 16 24 0 34 -4 32 -12z
m91 -12 c16 -20 -3 -56 -29 -56 -26 0 -32 13 -20 44 11 29 31 34 49 12z m848
-33 c0 -9 -15 -13 -41 -13 -37 1 -39 2 -23 14 22 17 64 16 64 -1z m91 0 c-10
-2 -26 -2 -35 0 -10 3 -2 5 17 5 19 0 27 -2 18 -5z m-277 -34 c58 -18 89 -20
209 -17 90 2 139 -1 137 -7 -2 -5 -39 -12 -83 -15 -82 -5 -86 -15 -12 -29 l43
-8 -30 -12 c-16 -7 -54 -15 -83 -18 -113 -12 -54 -39 64 -29 86 7 93 -2 42
-51 -60 -58 -178 -92 -316 -93 -100 0 -175 80 -189 201 -5 41 -3 49 11 49 9 0
16 8 16 20 0 22 23 26 64 10 28 -10 59 -3 50 11 -7 13 -1 12 77 -12z m-344
-71 c-3 -8 -6 -5 -6 6 -1 11 2 17 5 13 3 -3 4 -12 1 -19z m33 -63 c0 -5 -5 -3
-10 5 -5 8 -10 20 -10 25 0 6 5 3 10 -5 5 -8 10 -19 10 -25z m808 15 c13 0 14
-2 4 -9 -11 -7 -11 -11 2 -24 27 -26 20 -72 -15 -101 -17 -14 -37 -26 -45 -26
-8 0 -14 -4 -14 -9 0 -5 -8 -7 -19 -4 -11 3 -21 -2 -24 -11 -8 -19 -53 -21
-127 -5 -48 10 -69 29 -32 29 55 0 222 119 222 158 0 9 6 12 16 8 9 -3 23 -6
32 -6z m-785 -50 c3 -11 1 -18 -4 -14 -5 3 -9 12 -9 20 0 20 7 17 13 -6z m352
-185 c66 -3 154 -9 195 -12 119 -10 195 -4 261 22 13 5 18 -1 21 -25 3 -17 1
-33 -4 -36 -4 -3 -8 -14 -8 -25 0 -12 -10 -23 -25 -29 -14 -5 -25 -17 -25 -26
0 -29 -73 -134 -97 -140 -16 -4 -23 -14 -23 -29 0 -12 -7 -28 -15 -35 -8 -7
-15 -19 -15 -27 0 -10 -6 -13 -16 -9 -9 3 -19 6 -23 6 -5 0 -24 13 -42 30 -19
16 -37 30 -41 30 -8 0 -85 62 -118 95 -14 14 -29 23 -33 19 -4 -4 -7 0 -7 9 0
10 -6 17 -13 17 -25 0 -77 31 -77 46 0 8 -4 14 -9 14 -11 0 -71 92 -71 109 0
8 11 10 33 7 17 -3 86 -8 152 -11z m4395 -74 c13 -25 13 -61 1 -61 -14 0 -41
41 -41 62 0 24 27 23 40 -1z m-330 -133 c13 -25 13 -29 -2 -44 -27 -27 -48
-11 -48 36 0 34 3 41 17 38 10 -2 24 -15 33 -30z m93 -244 c13 -26 15 -40 7
-55 -15 -26 -19 -24 -36 16 -29 71 -3 108 29 39z m-4098 -4 c-4 -13 -1 -22 9
-26 28 -11 17 -20 -26 -21 -38 -1 -40 0 -20 9 13 7 22 20 22 35 0 12 5 23 11
23 6 0 8 -9 4 -20z m4442 -59 c110 -92 132 -132 136 -245 2 -55 -1 -70 -15
-79 -14 -10 -24 -5 -53 23 -41 40 -95 120 -95 141 0 8 -14 43 -30 77 -36 77
-40 132 -9 132 4 0 34 -22 66 -49z m-2657 -212 c0 -15 -30 -23 -42 -11 -6 6
-8 18 -4 27 4 13 10 14 26 5 11 -6 20 -15 20 -21z m-1804 -76 c10 -37 -7 -57
-50 -61 -40 -4 -44 4 -21 48 24 46 61 53 71 13z m4084 -162 c-12 -45 -33 -53
-50 -21 -11 21 5 65 39 104 15 18 16 17 19 -12 2 -17 -2 -49 -8 -71z m550
-530 c17 -33 12 -53 -12 -49 -23 3 -34 28 -24 54 8 20 23 18 36 -5z m-5000
-535 c0 -20 -31 -53 -57 -61 -32 -9 -30 18 2 50 27 27 55 33 55 11z m4708 -63
c-4 -22 -22 -20 -26 1 -2 10 3 16 13 16 10 0 15 -7 13 -17z m246 -114 c8 -12
12 -29 9 -38 -10 -25 -74 -111 -84 -111 -23 0 6 145 33 161 19 13 25 11 42
-12z m-2541 -464 c8 -18 -11 -31 -25 -17 -11 11 -3 32 12 32 4 0 10 -7 13 -15z
m-2973 -466 c0 -10 -5 -19 -10 -19 -7 0 -7 -6 0 -20 6 -11 9 -20 8 -21 -22 -6
-82 -2 -85 6 -4 15 65 87 77 80 6 -3 10 -15 10 -26z m-315 -71 c46 2 -13 -16
-73 -22 -72 -8 -102 -18 -124 -40 -21 -20 -55 -10 -62 19 -4 14 -18 27 -36 33
-16 6 -30 14 -30 18 0 4 69 3 153 -1 83 -5 161 -8 172 -7z m-441 -13 c-4 -8
-1 -21 4 -28 8 -9 7 -24 -2 -50 -14 -42 -24 -54 -58 -71 -19 -10 -23 -20 -26
-69 -2 -46 -8 -62 -30 -85 -36 -36 -122 -92 -142 -92 -9 0 -21 -5 -28 -12 -16
-16 -16 87 1 124 7 15 45 64 85 108 41 44 91 103 113 130 21 26 49 50 61 53
13 2 24 5 25 6 1 0 0 -6 -3 -14z m261 -85 c-10 -11 -28 -20 -39 -20 -20 1 -20
1 3 20 13 11 30 20 39 20 13 0 12 -3 -3 -20z m58 -291 c79 -40 94 -67 58 -105
-16 -18 -30 -20 -105 -19 -48 1 -89 5 -92 7 -6 7 77 138 88 138 5 0 28 -10 51
-21z m679 -58 c11 -16 20 -18 55 -12 23 5 46 4 51 -1 4 -4 35 1 70 12 43 14
67 17 79 11 10 -5 25 -12 33 -16 29 -11 55 -30 83 -59 l28 -28 -20 -22 c-26
-27 -27 -38 -3 -35 29 3 42 -1 42 -11 0 -5 -9 -10 -20 -10 -16 0 -20 -7 -22
-32 -1 -18 -2 -42 -2 -52 -1 -10 -12 -26 -24 -34 -21 -14 -23 -14 -29 6 -6 25
-28 29 -37 7 -8 -21 -46 -2 -46 22 0 13 -3 14 -12 5 -14 -14 -37 -15 -57 -3
-12 8 -13 12 -1 26 12 14 9 15 -28 9 -35 -5 -42 -4 -42 9 0 13 -7 15 -32 10
-27 -5 -30 -4 -25 11 10 25 -13 66 -37 66 -19 1 -19 2 7 23 32 27 34 37 7 37
-14 0 -20 7 -20 21 0 11 -4 17 -10 14 -6 -4 -8 -14 -5 -24 3 -11 -4 -25 -20
-39 -14 -12 -25 -29 -25 -37 0 -19 -14 -19 -30 -1 -14 18 12 81 41 97 11 5 19
19 19 29 0 25 15 26 32 1z m-293 -60 c33 -12 67 -33 90 -57 20 -22 52 -51 71
-65 19 -15 31 -31 27 -35 -10 -11 -172 44 -277 93 -41 20 -76 37 -78 38 -2 2
1 13 8 24 14 27 83 28 159 2z m1401 -221 c-18 -11 -10 -21 19 -23 11 -1 21 -7
21 -14 0 -7 5 -13 11 -13 7 0 0 -12 -15 -26 -14 -15 -26 -33 -26 -40 0 -8 -5
-14 -11 -14 -6 0 -8 7 -5 16 3 9 0 25 -8 35 -8 11 -12 29 -9 40 3 10 0 19 -6
19 -15 0 -14 33 1 48 10 10 16 9 28 -3 13 -14 13 -17 0 -25z m-710 -28 c0 -12
-8 -18 -25 -20 -23 -2 -24 0 -15 18 13 25 40 26 40 2z m-620 -186 c0 -2 -7 -6
-15 -10 -8 -3 -15 -1 -15 4 0 6 7 10 15 10 8 0 15 -2 15 -4z m1350 -5 c0 -12
-28 -22 -34 -12 -3 5 -3 11 1 15 9 9 33 7 33 -3z m788 -13 c-2 -15 3 -24 18
-27 18 -5 20 -10 13 -29 -11 -28 -26 -21 -44 21 -9 23 -10 34 -1 43 16 18 18
17 14 -8z m-1978 -23 c35 -14 70 -25 78 -25 24 0 72 -40 72 -60 0 -26 -16 -33
-74 -37 -40 -2 -55 2 -83 23 -18 14 -33 31 -33 38 0 8 -20 20 -45 27 -31 9
-44 18 -40 27 3 8 5 18 5 23 0 17 55 9 120 -16z m1217 -1 c9 -23 -11 -38 -26
-20 -13 16 -7 36 10 36 5 0 12 -7 16 -16z m-12 -72 c-8 -8 -25 10 -19 20 4 6
9 5 15 -3 4 -7 6 -15 4 -17z m-1302 -19 c-7 -2 -19 -2 -25 0 -7 3 -2 5 12 5
14 0 19 -2 13 -5z m1388 -20 c7 -51 4 -83 -8 -83 -7 0 -13 9 -13 19 0 11 -9
23 -22 27 l-21 6 24 19 c26 20 38 24 40 12z"/>
<path d="M17850 10814 c0 -9 7 -14 17 -12 25 5 28 28 4 28 -12 0 -21 -6 -21
-16z"/>
<path d="M17980 10780 c0 -24 27 -37 43 -21 8 8 6 15 -9 26 -26 20 -34 19 -34
-5z"/>
<path d="M16700 10470 c0 -13 -11 -38 -25 -56 -30 -39 -31 -48 -5 -41 12 3 33
-6 56 -24 l37 -29 -37 0 c-48 0 -46 -13 7 -35 23 -11 60 -32 82 -47 37 -25 44
-27 73 -17 19 6 37 7 45 2 6 -4 35 -6 62 -3 55 7 45 15 -24 23 -51 6 -83 38
-75 73 4 16 -7 35 -45 74 -45 47 -53 51 -81 45 -30 -7 -31 -6 -19 14 15 24 13
27 -24 36 -23 6 -27 4 -27 -15z m120 -145 c0 -9 -6 -12 -15 -9 -8 4 -12 10 -9
15 8 14 24 10 24 -6z"/>
<path d="M16653 9730 c-18 -11 -33 -26 -33 -34 0 -10 13 -7 55 12 37 17 51 28
43 34 -19 12 -30 10 -65 -12z"/>
<path d="M16990 9606 c0 -21 21 -31 30 -15 5 7 6 17 4 21 -9 14 -34 9 -34 -6z"/>
<path d="M16526 9242 c-8 -15 -26 -38 -41 -52 -48 -45 -98 -139 -98 -184 0
-46 44 -140 69 -150 20 -8 34 1 34 22 0 28 24 86 46 114 12 15 24 49 28 75 3
26 17 78 30 115 12 37 20 71 17 76 -3 5 -21 9 -39 10 -25 0 -35 -5 -46 -26z"/>
<path d="M16970 9112 c0 -12 59 -22 66 -10 3 4 -1 8 -8 8 -7 0 -23 3 -35 6
-13 4 -23 2 -23 -4z"/>
<path d="M16624 8886 c-7 -11 -14 -35 -14 -53 0 -18 -4 -33 -10 -33 -17 0 -11
-29 14 -68 14 -20 28 -49 31 -64 9 -34 35 -37 35 -5 0 31 24 112 51 175 27 62
22 71 -48 69 -33 0 -48 -6 -59 -21z"/>
<path d="M16842 8682 c-48 -14 -20 -27 64 -30 56 -2 94 -8 109 -18 30 -19 235
-17 235 3 0 6 -9 15 -20 18 -11 3 -27 13 -36 22 -13 13 -19 14 -38 3 -15 -8
-45 -10 -82 -6 -64 6 -73 6 -106 4 -13 -1 -41 1 -63 4 -22 4 -50 3 -63 0z"/>
<path d="M13025 8530 c-16 -4 -49 -15 -72 -25 -51 -21 -55 -42 -20 -110 15
-31 31 -48 52 -54 24 -8 191 -8 265 1 8 1 58 -2 111 -6 l95 -8 12 27 c14 31
16 77 3 91 -5 5 -11 23 -12 39 -5 48 -39 79 -39 35 0 -24 -8 -25 -38 -4 -20
14 -22 14 -22 -4 0 -10 -6 -26 -13 -36 -13 -17 -15 -17 -56 3 -23 12 -39 26
-36 31 4 6 1 10 -6 10 -6 0 -9 -8 -6 -20 3 -11 1 -20 -4 -20 -5 0 -9 7 -9 15
0 8 -4 15 -10 15 -5 0 -10 -7 -10 -15 0 -8 -7 -15 -15 -15 -8 0 -15 9 -15 19
0 11 -4 23 -10 26 -5 3 -10 -1 -10 -9 0 -20 -29 -21 -55 -3 -30 20 -47 24 -80
17z"/>
<path d="M22854 8421 c-52 -24 -63 -35 -77 -70 -21 -51 -21 -81 -3 -125 15
-37 56 -83 69 -78 4 1 31 -9 60 -22 80 -36 154 -51 182 -36 13 7 26 20 30 29
3 9 15 32 25 51 49 87 11 192 -86 239 -27 13 -57 28 -66 33 -32 15 -72 9 -134
-21z"/>
<path d="M23307 7669 c4 -14 0 -27 -12 -35 -12 -9 -15 -19 -10 -31 15 -34 18
-153 4 -153 -8 0 -6 -7 6 -20 10 -11 23 -20 29 -20 11 0 16 64 5 74 -3 4 -4
51 -2 106 2 81 0 100 -11 100 -10 0 -12 -7 -9 -21z"/>
<path d="M22310 6835 c-8 -9 -21 -13 -33 -9 -21 7 -67 -13 -80 -34 -6 -10 -20
-11 -48 -7 -35 6 -39 5 -39 -14 0 -13 -6 -21 -16 -21 -15 0 -53 -37 -54 -52 0
-4 12 -6 28 -4 15 2 21 1 15 -1 -15 -5 -18 -43 -3 -43 5 0 32 16 58 35 33 23
55 32 70 29 14 -4 28 2 44 19 13 13 40 30 61 38 20 7 44 23 52 36 14 20 13 23
-4 33 -27 14 -36 13 -51 -5z"/>
<path d="M22634 6761 c-2 -2 -4 -23 -4 -45 0 -32 10 -55 47 -109 45 -65 47
-71 54 -160 4 -51 12 -108 18 -127 16 -51 30 -153 36 -250 2 -47 10 -113 16
-147 10 -52 10 -81 -5 -180 -17 -112 -17 -122 -1 -178 11 -37 15 -75 12 -104
-5 -46 7 -115 39 -221 37 -125 44 -236 18 -297 -31 -71 -49 -103 -56 -103 -4
0 -16 -20 -27 -45 -16 -37 -20 -70 -22 -200 -3 -164 -14 -212 -38 -167 -6 12
-18 22 -26 22 -18 0 -20 21 -4 37 7 7 9 30 7 55 -7 60 9 151 32 193 11 20 20
42 20 49 0 7 9 25 21 40 11 14 19 36 17 48 -3 20 -8 23 -42 20 -22 -2 -48 -8
-57 -13 -10 -5 -36 -9 -58 -9 -22 0 -43 -5 -46 -10 -4 -6 -30 -10 -58 -9 -29
1 -62 -1 -75 -5 -14 -5 -29 -3 -38 5 -11 9 -20 9 -37 1 -22 -10 -37 -12 -86
-12 -14 0 -33 -9 -43 -20 -14 -15 -23 -18 -37 -11 -9 6 -32 9 -49 9 -25 -1
-34 -6 -38 -25 -4 -13 -4 -27 0 -30 3 -3 -2 -12 -12 -19 -9 -8 -12 -14 -5 -14
6 0 15 5 18 10 8 13 35 13 35 0 0 -6 -12 -16 -26 -22 -22 -10 -28 -10 -38 3
-6 8 -22 16 -36 17 -73 5 -110 3 -127 -7 -17 -10 -16 -10 3 -11 23 0 37 -21
29 -43 -12 -29 82 -44 109 -17 5 5 16 10 23 10 16 0 17 -27 1 -32 -17 -6 -1
-39 22 -45 16 -4 19 -13 18 -49 0 -25 -4 -47 -9 -50 -15 -9 -10 -20 27 -58 21
-22 33 -43 30 -51 -3 -8 -1 -15 3 -15 14 0 19 23 14 53 -5 26 -4 27 28 21 38
-8 59 -21 59 -38 0 -6 10 -16 22 -21 13 -6 24 -19 26 -29 3 -15 0 -18 -18 -13
-16 4 -20 2 -16 -9 9 -25 -28 -12 -38 12 l-10 22 -35 -20 c-33 -19 -36 -19
-48 -2 -7 10 -16 15 -19 11 -4 -4 -14 -1 -22 6 -13 10 -14 8 -9 -15 9 -36 -7
-44 -41 -20 -26 18 -61 34 -72 33 -3 -1 -5 -6 -5 -11 0 -25 -76 -42 -90 -20
-9 15 -68 13 -63 -2 3 -7 13 -14 24 -16 57 -9 66 -13 61 -32 -3 -13 3 -24 19
-35 13 -8 24 -22 24 -30 0 -8 7 -15 15 -15 8 0 15 7 15 15 0 8 7 15 15 15 18
0 19 -12 4 -27 -16 -16 0 -35 25 -29 11 3 28 1 36 -4 13 -8 12 -10 -2 -10 -23
0 -23 -11 0 -36 9 -10 16 -29 14 -41 -2 -15 2 -23 12 -23 18 0 29 -16 21 -31
-5 -7 -12 -6 -23 3 -31 24 -62 38 -62 28 0 -5 4 -10 9 -10 5 0 13 -9 16 -21 4
-11 18 -24 31 -29 17 -7 24 -17 24 -36 0 -15 9 -42 21 -60 11 -19 18 -34 14
-34 -3 0 3 -13 14 -29 12 -16 21 -34 21 -40 0 -6 9 -15 21 -21 11 -6 19 -19
17 -28 -1 -9 5 -32 15 -51 9 -19 17 -42 17 -52 0 -28 33 -88 49 -89 9 0 12 -9
7 -32 -3 -18 -1 -51 5 -73 6 -22 19 -80 30 -130 10 -49 23 -98 29 -108 11 -18
6 -37 -9 -37 -4 0 -13 19 -20 43 -7 23 -19 57 -27 75 -8 18 -14 45 -14 61 0
35 -17 50 -65 58 -36 6 -36 5 -24 -15 7 -11 22 -24 34 -27 18 -6 18 -8 2 -12
-10 -2 -30 -11 -45 -18 l-26 -14 36 -15 c20 -9 39 -20 42 -25 10 -15 -12 -23
-31 -12 -29 15 -62 -18 -60 -60 2 -29 -1 -34 -18 -32 -11 1 -31 -7 -45 -17
-20 -16 -22 -22 -11 -29 8 -5 12 -18 9 -29 -3 -11 -2 -26 3 -33 4 -7 5 -17 3
-21 -7 -10 -44 9 -44 23 0 11 -24 39 -34 39 -2 0 -3 -12 -2 -27 2 -16 4 -34 5
-40 0 -7 13 -13 29 -13 24 -1 25 -2 10 -14 -10 -7 -18 -16 -18 -19 0 -12 34
-16 47 -6 10 9 19 9 38 -1 14 -7 25 -17 25 -21 0 -5 9 -17 20 -27 25 -23 34
-162 11 -170 -10 -3 -12 1 -9 16 3 12 3 22 -1 24 -4 2 -22 22 -40 45 -33 41
-35 42 -79 36 -42 -6 -44 -5 -38 15 10 31 0 42 -28 29 -23 -11 -23 -12 -5 -25
10 -7 19 -20 19 -28 0 -8 9 -14 20 -14 12 0 37 -16 57 -36 33 -33 35 -38 20
-49 -15 -11 -15 -14 4 -33 11 -12 15 -22 10 -22 -5 0 -13 5 -16 10 -3 6 -14
10 -22 10 -14 0 -13 -4 5 -20 26 -24 31 -73 7 -64 -8 4 -22 1 -30 -6 -10 -8
-15 -9 -15 -2 0 6 4 13 10 17 13 8 1 35 -16 35 -30 0 -10 -65 26 -83 13 -7 25
-17 27 -23 4 -12 -41 -29 -64 -25 -20 3 -15 -24 7 -44 25 -22 26 -35 3 -35
-14 0 -12 -4 7 -17 14 -9 31 -23 38 -30 7 -7 20 -13 29 -13 13 0 13 -3 3 -15
-16 -19 -39 -19 -46 0 -4 8 -15 15 -26 15 -17 0 -20 -5 -15 -27 2 -16 1 -37
-3 -48 -6 -15 -1 -27 18 -48 14 -15 21 -27 15 -27 -6 0 -13 5 -15 12 -5 14
-38 4 -38 -12 0 -5 6 -10 14 -10 7 0 16 -14 20 -31 4 -20 13 -33 26 -36 15 -4
20 -12 18 -27 -4 -28 -32 -27 -36 1 -2 15 -10 23 -22 23 -13 0 -17 -5 -13 -20
6 -22 -7 -26 -25 -8 -18 18 -26 2 -16 -34 9 -31 42 -49 36 -20 -1 8 3 12 10
10 20 -7 21 -36 1 -40 -23 -5 -73 10 -95 30 -10 8 -18 10 -18 4 0 -6 3 -12 8
-14 4 -2 17 -15 30 -29 20 -23 22 -30 11 -47 -11 -17 -15 -18 -26 -6 -8 8 -19
14 -24 14 -16 0 -10 -19 11 -32 11 -7 20 -20 20 -29 0 -9 7 -22 15 -29 11 -9
12 -16 2 -31 -16 -26 -29 -24 -52 10 -10 16 -22 28 -26 25 -4 -2 -5 5 -2 16 6
24 -13 50 -38 50 -28 0 -31 -16 -10 -52 11 -18 36 -66 55 -105 21 -44 41 -73
50 -73 9 0 13 -6 10 -13 -8 -21 14 -68 35 -74 11 -3 17 -11 14 -21 -3 -14 3
-17 31 -17 38 0 66 18 47 29 -18 12 -12 33 11 39 12 4 28 1 35 -5 10 -8 13 -5
13 16 0 23 -3 26 -25 20 -29 -7 -33 7 -8 27 22 19 44 74 37 94 -6 15 7 53 30
83 17 23 14 50 -7 56 -25 6 -19 38 11 51 12 5 22 15 22 22 0 6 9 27 20 46 17
29 19 42 11 76 -9 42 -3 55 21 46 9 -4 14 3 16 21 1 15 7 33 13 40 7 9 7 24 1
48 -8 29 -7 37 8 51 10 9 23 14 29 11 10 -7 22 29 41 124 6 30 15 64 20 75 25
56 78 246 100 360 6 33 18 77 26 98 8 20 14 50 14 65 0 15 5 33 12 40 9 9 9
15 0 24 -9 9 -8 15 3 28 8 9 19 40 25 69 5 29 16 65 24 79 16 29 28 72 32 112
9 98 12 215 5 224 -5 6 -11 35 -15 64 -4 29 -12 64 -18 77 -8 19 -8 28 2 40 7
8 8 15 3 15 -6 0 -10 31 -9 74 1 59 -3 78 -18 95 -14 16 -18 31 -14 65 4 36 2
49 -14 62 -14 13 -17 25 -13 46 7 28 -8 40 -19 16 -3 -9 -12 -4 -26 15 -14 18
-31 27 -49 27 -20 0 -31 7 -39 25 -15 33 -15 35 1 35 8 0 22 -9 32 -20 28 -30
36 -24 19 15 -13 31 -13 38 0 50 21 21 27 18 20 -9 -3 -15 -1 -27 8 -33 7 -4
13 -14 13 -22 0 -14 10 -21 58 -40 16 -6 27 -18 27 -30 0 -11 12 -29 26 -40
14 -11 23 -24 21 -28 -3 -5 1 -17 9 -27 11 -16 16 -17 29 -6 19 16 19 30 0 30
-17 0 -19 12 -5 26 18 18 1 41 -25 36 -31 -5 -40 14 -25 53 l11 29 21 -32 c11
-18 27 -32 35 -32 10 0 13 -9 11 -32 -3 -28 0 -33 17 -31 19 2 20 -4 20 -65
-1 -69 10 -142 25 -177 5 -11 11 -38 14 -60 8 -65 23 -138 37 -170 6 -16 13
-51 14 -76 1 -25 11 -63 21 -85 10 -21 19 -57 19 -80 0 -32 3 -40 14 -36 10 4
13 1 8 -11 -3 -9 -2 -19 2 -21 5 -3 6 -17 3 -31 -2 -14 1 -32 8 -40 6 -7 10
-32 9 -54 -2 -22 0 -43 4 -47 4 -4 2 -14 -5 -21 -6 -8 -21 -33 -32 -56 -12
-23 -31 -46 -44 -52 -26 -12 -30 -45 -4 -46 9 0 28 -3 42 -6 74 -16 245 3 303
34 15 8 35 12 43 9 8 -3 28 1 44 9 16 8 43 15 60 15 16 0 30 4 30 8 0 4 21 14
48 21 26 7 68 24 95 37 26 13 47 21 47 18 0 -4 7 0 16 7 9 8 24 14 33 14 8 0
21 11 28 25 7 14 13 19 13 13 0 -18 25 -16 40 2 7 8 27 17 46 21 l34 6 0 319
c0 318 -6 385 -39 448 -6 11 -11 29 -11 40 0 11 -6 24 -14 28 -8 4 -16 13 -17
18 -4 20 -22 55 -29 55 -9 0 -62 86 -80 130 -7 19 -24 51 -36 71 -13 20 -21
39 -19 41 5 5 -52 241 -100 413 -20 72 -39 146 -41 165 -3 19 -9 44 -14 55 -6
11 -19 58 -29 105 -34 147 -61 253 -78 306 -8 29 -17 62 -19 75 -5 32 -25 109
-35 134 -6 16 -15 51 -24 95 0 3 -6 21 -12 40 -6 19 -21 69 -33 110 -12 41
-26 86 -31 99 -6 14 -14 45 -20 70 -5 25 -16 75 -25 111 -8 36 -19 83 -24 105
-5 22 -13 58 -19 80 -5 22 -12 51 -15 65 -17 78 -25 116 -26 122 -1 22 -65 78
-93 82 -42 7 -218 12 -223 7z m-438 -2068 c-7 -7 -26 7 -26 19 0 6 6 6 15 -2
9 -7 13 -15 11 -17z m-166 13 c0 -3 -4 -8 -10 -11 -5 -3 -10 -1 -10 4 0 6 5
11 10 11 6 0 10 -2 10 -4z m710 -363 c0 -28 -4 -54 -9 -57 -14 -9 -19 17 -7
37 9 14 7 20 -6 28 -25 14 -23 45 2 45 17 0 20 -7 20 -53z m-702 -41 c2 -7 -3
-12 -12 -12 -9 0 -16 7 -16 16 0 17 22 14 28 -4z m237 -242 c3 -5 2 -10 -4
-10 -5 0 -13 5 -16 10 -3 6 -2 10 4 10 5 0 13 -4 16 -10z m-60 -941 c4 -11 13
-19 22 -19 9 0 13 6 10 15 -4 8 -2 17 2 20 5 3 12 -3 16 -12 3 -10 1 -19 -4
-21 -6 -2 -11 -10 -11 -17 0 -7 -6 -15 -14 -18 -16 -6 -80 79 -70 94 7 13 41
-16 49 -42z m195 -89 c0 -5 -4 -10 -10 -10 -5 0 -10 5 -10 10 0 6 5 10 10 10
6 0 10 -4 10 -10z m0 -69 c0 -16 3 -37 7 -47 6 -15 4 -15 -14 2 -13 13 -17 23
-10 31 5 7 7 20 3 28 -3 8 -1 15 4 15 6 0 10 -13 10 -29z m-123 -133 c-3 -8
-6 -5 -6 6 -1 11 2 17 5 13 3 -3 4 -12 1 -19z m133 -33 c0 -8 -4 -15 -10 -15
-5 0 -10 7 -10 15 0 8 5 15 10 15 6 0 10 -7 10 -15z m-143 -46 c3 -11 11 -18
19 -15 17 6 30 -12 38 -53 l6 -35 -29 33 c-19 21 -36 31 -45 28 -11 -4 -18 1
-22 18 -3 14 -10 25 -16 25 -5 0 -6 5 -3 10 11 18 47 11 52 -11z m-67 -16 c0
-20 -34 -12 -38 9 -2 12 2 15 17 11 12 -3 21 -12 21 -20z m-15 -53 c7 -12 -12
-40 -26 -40 -5 0 -9 11 -9 25 0 25 23 35 35 15z m70 0 c3 -5 1 -10 -4 -10 -6
0 -11 5 -11 10 0 6 2 10 4 10 3 0 8 -4 11 -10z m55 -65 c7 -9 10 -18 7 -22 -8
-7 -37 15 -37 28 0 14 16 11 30 -6z m-119 -88 c13 -4 19 -12 17 -24 -2 -10 -7
-16 -12 -15 -5 2 -12 -2 -16 -8 -14 -22 -50 7 -50 40 0 34 33 61 38 30 2 -10
12 -20 23 -23z m106 7 c-3 -3 -12 -4 -19 -1 -8 3 -5 6 6 6 11 1 17 -2 13 -5z
m-167 -264 c0 -5 -4 -10 -10 -10 -5 0 -10 5 -10 10 0 6 5 10 10 10 6 0 10 -4
10 -10z m-30 -200 c0 -5 -4 -10 -9 -10 -6 0 -13 5 -16 10 -3 6 1 10 9 10 9 0
16 -4 16 -10z m-43 -222 c-3 -8 -6 -5 -6 6 -1 11 2 17 5 13 3 -3 4 -12 1 -19z"/>
<path d="M15846 6704 c-9 -8 -16 -21 -16 -27 0 -8 -3 -7 -9 2 -5 7 -14 10 -20
7 -16 -10 -14 -26 4 -26 9 0 15 -9 15 -25 0 -35 -21 -75 -39 -75 -11 0 -12 -3
-4 -11 18 -18 52 12 72 66 13 35 24 49 35 47 25 -4 32 27 10 43 -24 18 -29 18
-48 -1z"/>
<path d="M22527 6694 c-27 -7 -67 -25 -89 -41 -23 -15 -55 -36 -72 -47 -17
-10 -47 -32 -67 -50 -20 -17 -80 -62 -134 -101 -53 -38 -132 -101 -177 -138
-44 -37 -97 -76 -118 -87 -21 -11 -40 -23 -42 -28 -1 -4 -20 -18 -40 -31 -21
-12 -38 -27 -38 -32 0 -5 -6 -9 -12 -9 -7 0 -40 -26 -73 -58 -33 -32 -75 -67
-92 -77 -18 -11 -33 -23 -33 -27 0 -4 -33 -41 -74 -83 -97 -99 -186 -201 -186
-213 0 -5 -12 -18 -27 -27 -34 -21 -58 -50 -115 -132 -23 -34 -53 -68 -66 -75
-13 -7 -32 -29 -43 -50 -27 -53 -49 -51 -44 5 3 23 9 91 14 150 6 60 13 124
17 143 11 58 -10 38 -29 -29 -10 -34 -23 -70 -28 -79 -5 -10 -9 -25 -9 -33 0
-8 -4 -23 -9 -33 -5 -9 -15 -44 -21 -77 -15 -71 -28 -102 -47 -109 -11 -5 -12
7 -8 62 10 107 53 273 115 447 32 90 45 148 42 186 -2 14 4 32 13 39 18 15 19
43 3 70 -10 16 -10 26 5 52 9 18 17 42 16 53 0 21 19 98 51 205 24 78 24 80 7
80 -16 0 -48 -43 -66 -87 -8 -18 -17 -33 -21 -33 -8 0 -70 -133 -70 -151 0
-15 -18 -73 -37 -116 -7 -17 -13 -42 -13 -55 0 -12 -7 -32 -15 -42 -17 -23
-49 -126 -41 -134 3 -3 2 -10 -3 -16 -5 -6 -11 -27 -14 -46 -3 -19 -14 -57
-26 -84 -12 -27 -19 -56 -16 -66 3 -9 -2 -34 -10 -54 -12 -28 -13 -41 -5 -51
8 -9 8 -15 0 -20 -5 -3 -10 -16 -10 -29 0 -12 -5 -27 -10 -32 -6 -6 -13 -40
-16 -75 -3 -35 -10 -69 -14 -74 -5 -6 -9 -20 -10 -30 -4 -78 -10 -118 -20
-130 -7 -8 -13 -48 -14 -89 -2 -50 -8 -83 -20 -100 -9 -15 -14 -31 -11 -36 3
-5 -4 -15 -15 -23 -18 -13 -19 -16 -5 -27 16 -14 12 -73 -8 -97 -5 -7 -7 -13
-3 -13 4 0 -1 -11 -10 -25 -16 -24 -15 -27 1 -45 17 -18 17 -21 1 -46 -10 -14
-15 -33 -12 -41 4 -9 -4 -26 -19 -41 -30 -30 -31 -38 -5 -54 28 -18 25 -52 -5
-68 -25 -13 -35 -40 -15 -40 6 0 10 -8 10 -18 0 -17 -8 -30 -50 -79 -15 -18
-12 -23 10 -23 28 0 25 -27 -4 -34 -19 -5 -23 -12 -22 -38 1 -18 5 -36 11 -40
6 -5 3 -18 -7 -36 -11 -18 -16 -42 -13 -62 3 -26 -3 -42 -27 -72 -28 -36 -29
-41 -15 -55 14 -14 14 -18 2 -27 -20 -16 -31 -66 -14 -66 11 0 11 -2 -1 -10
-12 -7 -12 -12 -2 -22 18 -18 15 -36 -13 -66 -14 -15 -25 -35 -25 -44 0 -10
-7 -18 -15 -18 -20 0 -19 -20 3 -36 16 -12 16 -14 -5 -29 -12 -8 -20 -22 -17
-29 3 -9 -3 -17 -15 -21 -30 -9 -26 -22 9 -30 17 -4 30 -8 30 -9 0 -2 -18 -22
-40 -45 -35 -37 -38 -44 -27 -63 9 -16 9 -22 0 -25 -8 -3 -13 -22 -13 -47 0
-30 -6 -48 -20 -61 -13 -11 -19 -29 -18 -51 1 -23 -5 -39 -17 -48 -18 -13 -18
-14 2 -47 11 -19 24 -55 27 -81 6 -40 5 -48 -8 -48 -9 0 -16 -6 -16 -14 0 -8
-3 -16 -7 -18 -5 -1 -21 -27 -36 -57 -22 -44 -25 -56 -14 -62 13 -8 14 -37 2
-153 -3 -28 0 -53 5 -56 6 -4 6 -20 -1 -44 -6 -21 -8 -40 -6 -43 10 -9 47 37
47 59 0 12 7 29 16 39 12 14 13 22 4 39 -8 16 -9 30 -1 52 6 17 11 44 11 59 0
15 5 31 10 34 6 3 10 17 10 30 0 14 9 29 20 35 16 9 18 15 10 30 -13 25 -9 25
33 0 27 -16 36 -18 44 -8 10 12 34 83 63 188 7 25 19 54 25 65 7 11 20 47 29
80 10 33 28 87 40 120 13 33 33 94 45 135 13 41 35 104 51 140 15 36 31 83 35
105 4 22 11 45 16 52 6 6 10 35 11 65 0 29 6 65 14 80 8 15 14 35 14 45 0 10
20 61 45 113 25 52 48 111 51 130 4 19 10 40 14 45 4 6 6 39 5 74 -2 36 0 72
5 81 5 9 4 23 -2 33 -23 42 123 159 263 212 76 28 148 56 207 81 18 8 62 37
98 66 35 28 74 53 87 55 12 2 24 8 25 13 2 6 17 10 32 10 16 0 32 5 35 11 4 5
36 23 71 39 42 20 64 36 64 47 0 9 10 27 22 40 l21 23 -29 0 c-40 0 -59 -14
-50 -36 11 -29 9 -31 -52 -33 -21 -1 -40 -10 -54 -26 -12 -14 -32 -25 -46 -25
-13 0 -30 -7 -38 -15 -9 -8 -26 -15 -39 -15 -41 0 -146 -56 -173 -93 -7 -9
-17 -15 -21 -12 -5 2 -17 -2 -27 -10 -10 -8 -29 -15 -40 -15 -12 0 -50 -19
-85 -43 -71 -47 -112 -67 -136 -67 -9 0 -25 -7 -35 -17 -10 -9 -20 -14 -23
-11 -11 11 104 123 183 179 48 34 122 99 165 144 96 103 236 224 344 299 45
31 85 56 89 56 3 0 23 13 43 28 20 16 43 32 51 35 41 19 76 46 86 66 18 36 76
91 96 91 26 0 89 42 126 84 17 20 38 36 46 36 29 0 46 13 46 34 0 23 -20 61
-20 38 0 -7 -4 -10 -10 -7 -14 9 -88 -32 -100 -55 -6 -11 -19 -20 -29 -20 -10
0 -26 -9 -36 -20 -10 -11 -26 -20 -35 -20 -10 0 -20 -7 -24 -15 -3 -8 -32 -32
-64 -53 -32 -20 -64 -43 -72 -50 -33 -28 -125 -82 -142 -82 -10 0 -23 -9 -30
-20 -7 -11 -18 -20 -25 -20 -6 0 -22 -13 -36 -29 -13 -16 -38 -36 -55 -45 -52
-27 -155 -102 -218 -159 -64 -58 -241 -238 -297 -302 -20 -22 -38 -37 -41 -34
-7 7 31 81 82 158 34 52 577 602 727 736 100 89 337 254 366 255 9 0 24 11 33
25 9 14 25 25 36 25 11 0 24 8 29 19 6 10 32 24 58 31 55 16 112 50 113 68 0
6 3 12 6 12 11 0 43 -45 44 -62 0 -18 28 -38 54 -38 25 0 19 19 -9 30 -29 11
-43 53 -25 75 11 13 14 13 26 -2 7 -10 14 -27 14 -38 1 -19 1 -19 11 -2 7 12
17 16 30 12 22 -7 26 14 7 33 -9 9 -8 16 5 30 9 10 17 24 17 31 0 15 71 81 88
81 6 0 12 8 12 18 0 47 -172 75 -208 34 -9 -11 -43 -30 -76 -43 -32 -13 -68
-34 -80 -46 -11 -13 -25 -23 -31 -23 -5 0 -21 -10 -35 -21 -14 -11 -75 -53
-137 -95 -61 -41 -135 -94 -164 -119 -29 -25 -57 -45 -61 -45 -5 0 -40 -29
-78 -65 -38 -36 -74 -65 -79 -65 -13 0 -194 -181 -316 -315 -49 -55 -104 -113
-120 -130 -17 -17 -45 -54 -63 -82 -18 -29 -37 -53 -41 -55 -4 -2 -22 -27 -41
-55 -18 -29 -36 -53 -40 -53 -4 0 -21 -22 -39 -49 -46 -72 -161 -151 -161
-111 0 38 108 206 244 379 95 122 457 491 566 577 284 225 677 499 775 539 18
8 47 32 64 54 31 38 31 41 17 74 -7 19 -18 37 -22 39 -5 3 -31 -1 -57 -8z m43
-449 c0 -8 -4 -15 -10 -15 -5 0 -10 7 -10 15 0 8 5 15 10 15 6 0 10 -7 10 -15z
m-2313 -3297 c-3 -8 -6 -5 -6 6 -1 11 2 17 5 13 3 -3 4 -12 1 -19z"/>
<path d="M22025 6639 c-12 -18 3 -22 20 -5 14 14 14 16 1 16 -8 0 -18 -5 -21
-11z"/>
<path d="M21968 6613 c7 -3 16 -2 19 1 4 3 -2 6 -13 5 -11 0 -14 -3 -6 -6z"/>
<path d="M21860 6570 c-13 -8 -12 -10 3 -10 9 0 17 5 17 10 0 12 -1 12 -20 0z"/>
<path d="M22438 6133 c6 -2 18 -2 25 0 6 3 1 5 -13 5 -14 0 -19 -2 -12 -5z"/>
<path d="M22586 6121 c-15 -17 -16 -25 -6 -55 6 -20 15 -36 20 -36 14 0 21 32
10 45 -6 7 -8 25 -4 39 7 31 3 33 -20 7z"/>
<path d="M22646 6085 c-3 -8 -1 -15 4 -15 6 0 10 7 10 15 0 8 -2 15 -4 15 -2
0 -6 -7 -10 -15z"/>
<path d="M22517 6083 c-4 -3 -7 -15 -7 -26 0 -19 1 -19 20 -2 11 10 17 22 14
26 -6 11 -18 12 -27 2z"/>
<path d="M22450 6020 c0 -5 4 -10 9 -10 6 0 13 5 16 10 3 6 -1 10 -9 10 -9 0
-16 -4 -16 -10z"/>
<path d="M22518 6023 c7 -3 16 -2 19 1 4 3 -2 6 -13 5 -11 0 -14 -3 -6 -6z"/>
<path d="M22600 5998 c0 -5 -9 -8 -20 -8 -11 0 -20 -4 -20 -8 0 -5 -13 -24
-30 -42 -16 -18 -30 -37 -30 -41 0 -15 22 -21 33 -10 15 15 60 14 75 -1 21
-21 13 -38 -17 -38 -16 0 -31 -6 -34 -14 -3 -7 -19 -16 -36 -19 -20 -4 -31
-13 -31 -24 0 -9 -14 -28 -31 -43 -31 -26 -31 -26 -16 -57 12 -23 22 -30 36
-26 10 2 22 0 25 -6 4 -6 21 -11 37 -11 18 0 28 -4 24 -10 -3 -5 -15 -10 -25
-10 -29 0 -36 -21 -12 -41 27 -21 19 -49 -12 -49 -12 0 -27 -5 -34 -12 -8 -8
-15 -8 -24 0 -23 18 -69 2 -79 -28 -6 -15 -22 -32 -36 -39 -18 -8 -24 -17 -20
-32 4 -16 -1 -21 -24 -26 l-30 -6 28 -19 c17 -11 37 -16 52 -13 15 4 27 0 36
-12 17 -23 13 -28 -38 -52 -40 -18 -107 -70 -107 -83 0 -3 12 -9 26 -12 19 -5
24 -11 19 -24 -4 -9 -8 -23 -8 -29 0 -8 -14 -13 -33 -13 -20 0 -34 -6 -38 -16
-8 -22 -8 -25 7 -23 40 5 65 -2 70 -21 7 -28 -25 -45 -55 -29 -17 9 -24 8 -34
-5 -6 -9 -16 -16 -20 -15 -20 3 -32 -2 -63 -30 -27 -24 -32 -35 -27 -56 6 -23
11 -26 54 -25 26 0 112 -3 191 -6 157 -7 268 5 366 37 75 24 98 43 118 96 14
35 15 54 5 120 -5 43 -11 94 -13 113 -6 88 -33 84 -61 -8 -20 -65 -39 -98 -48
-84 -9 14 5 73 15 66 5 -3 12 2 15 11 4 10 -3 23 -21 36 -21 17 -25 27 -20 48
4 14 13 34 22 43 10 11 13 26 9 42 -6 26 9 45 25 29 6 -6 5 -29 -2 -62 -11
-53 -6 -78 11 -51 13 21 23 86 16 108 -4 10 -17 24 -30 30 -18 8 -23 16 -19
31 8 30 -15 26 -29 -4 -12 -27 -38 -34 -38 -10 0 8 -12 17 -27 21 -47 10 -53
13 -53 28 0 11 8 13 35 9 38 -6 41 -3 23 26 -11 18 -10 24 17 71 12 21 12 27
0 41 -17 18 -20 45 -5 54 15 9 12 42 -5 49 -16 6 -21 36 -6 36 4 0 24 -11 44
-24 37 -25 54 -17 34 15 -7 12 -4 22 12 38 16 16 19 26 12 35 -6 6 -8 22 -4
34 8 31 -39 67 -89 67 -21 0 -38 -3 -38 -7z m88 -79 c-2 -6 -8 -10 -13 -10 -5
0 -11 4 -13 10 -2 6 4 11 13 11 9 0 15 -5 13 -11z m-129 -142 c8 -10 7 -17 -1
-25 -26 -26 -60 -4 -38 23 15 18 24 19 39 2z m-46 -53 c3 -17 0 -28 -10 -31
-23 -9 -37 12 -24 36 16 28 28 26 34 -5z m88 -17 c-1 -4 -1 -14 -1 -22 0 -8
-4 -15 -9 -15 -12 0 -23 29 -15 41 6 11 26 8 25 -4z m-41 -196 c0 -11 -59 -36
-67 -28 -3 4 0 13 7 22 13 16 60 21 60 6z m-172 -109 c6 -18 -15 -14 -22 4 -4
10 -1 14 6 12 6 -2 14 -10 16 -16z m82 -2 c0 -5 -4 -10 -10 -10 -5 0 -10 5
-10 10 0 6 5 10 10 10 6 0 10 -4 10 -10z m148 -42 c21 -21 13 -34 -23 -34 -33
0 -46 20 -14 21 8 1 13 6 12 13 -4 15 10 15 25 0z m17 -83 c0 -28 -29 -25 -33
3 -3 19 0 23 15 20 10 -2 18 -12 18 -23z m-245 -1 c0 -8 -4 -12 -10 -9 -5 3
-10 10 -10 16 0 5 5 9 10 9 6 0 10 -7 10 -16z m-65 -49 c0 -5 -10 -11 -22 -13
-16 -2 -23 2 -23 13 0 11 7 15 23 13 12 -2 22 -7 22 -13z m-178 -261 c-3 -3
-12 -4 -19 -1 -8 3 -5 6 6 6 11 1 17 -2 13 -5z"/>
<path d="M22435 5970 c4 -6 11 -8 16 -5 14 9 11 15 -7 15 -8 0 -12 -5 -9 -10z"/>
<path d="M22460 5909 c0 -24 23 -21 28 4 2 10 -3 17 -12 17 -10 0 -16 -9 -16
-21z"/>
<path d="M22365 5911 c-3 -6 -19 -11 -34 -11 -21 0 -28 -5 -27 -17 0 -10 -8
-19 -19 -21 -28 -6 -45 -21 -39 -37 10 -24 104 22 104 52 0 6 12 13 28 15 15
2 26 8 25 13 -3 14 -30 18 -38 6z"/>
<path d="M21021 5754 c0 -11 3 -14 6 -6 3 7 2 16 -1 19 -3 4 -6 -2 -5 -13z"/>
<path d="M22721 5756 c-9 -11 -10 -20 -2 -35 6 -11 11 -29 11 -41 0 -12 4 -18
11 -15 6 4 8 14 5 22 -3 8 -1 24 5 35 8 16 8 24 -3 35 -13 12 -16 12 -27 -1z"/>
<path d="M22390 5673 c1 -17 59 -65 70 -58 8 5 4 12 -12 23 -13 9 -27 22 -31
29 -9 14 -27 18 -27 6z"/>
<path d="M22381 5594 c0 -11 3 -14 6 -6 3 7 2 16 -1 19 -3 4 -6 -2 -5 -13z"/>
<path d="M22731 5594 c0 -11 3 -14 6 -6 3 7 2 16 -1 19 -3 4 -6 -2 -5 -13z"/>
<path d="M22442 5564 c9 -9 21 -13 27 -9 16 10 3 25 -22 25 -20 0 -20 -1 -5
-16z"/>
<path d="M15466 5194 c-3 -9 -6 -34 -6 -55 0 -22 -5 -50 -12 -62 -6 -12 -12
-40 -13 -62 -1 -22 -3 -59 -3 -82 -2 -31 -6 -43 -17 -43 -9 0 -15 -10 -16 -22
-1 -34 -34 -121 -47 -126 -6 -2 -14 8 -18 23 -11 45 -26 22 -29 -46 -5 -79
-16 -110 -49 -137 -17 -13 -24 -26 -20 -36 4 -12 0 -16 -15 -16 -25 0 -25 2
-6 -43 10 -24 11 -38 4 -42 -6 -4 -7 -24 -3 -51 6 -39 4 -45 -16 -52 -22 -8
-31 -40 -31 -112 0 -14 -5 -35 -11 -47 -7 -15 -7 -30 0 -51 9 -27 9 -29 -15
-24 -22 4 -24 2 -19 -16 4 -11 2 -23 -3 -26 -6 -4 -9 -28 -8 -54 1 -42 -1 -47
-22 -50 l-23 -4 28 -30 c28 -29 28 -30 10 -44 -26 -19 -42 -18 -26 1 9 11 10
19 3 26 -13 13 -45 -45 -36 -67 4 -10 -2 -17 -15 -21 -13 -3 -19 -10 -15 -19
3 -8 0 -14 -6 -14 -6 0 -11 -11 -11 -24 0 -14 -4 -28 -10 -31 -14 -9 -12 -21
6 -40 16 -16 14 -45 -5 -75 -8 -12 -13 -12 -23 -2 -19 19 -28 15 -40 -18 -5
-17 -19 -35 -29 -41 -15 -8 -17 -14 -9 -29 12 -23 13 -43 1 -36 -5 3 -12 -1
-15 -10 -5 -13 -9 -14 -21 -4 -12 10 -15 10 -15 -3 0 -8 7 -20 15 -27 8 -7 15
-17 15 -22 0 -6 -7 -4 -17 3 -13 11 -17 11 -20 2 -3 -7 -11 -13 -19 -13 -7 0
-11 -6 -8 -14 3 -8 1 -17 -5 -21 -16 -9 -13 -34 5 -53 15 -14 14 -16 -7 -24
-33 -12 -34 -15 -14 -35 17 -17 17 -18 -6 -24 -13 -3 -30 -1 -36 4 -7 5 -13 6
-13 2 0 -4 11 -16 26 -27 23 -19 24 -22 9 -38 -15 -16 -14 -18 2 -24 17 -7 17
-8 -2 -18 -11 -6 -30 -22 -42 -34 -18 -20 -23 -21 -33 -9 -7 8 -19 15 -26 15
-8 0 -14 5 -14 10 0 6 -4 10 -10 10 -17 0 -11 -16 15 -44 28 -30 32 -46 11
-46 -10 0 -12 -7 -8 -22 4 -18 2 -20 -18 -15 -21 5 -22 3 -17 -34 3 -21 1 -42
-4 -45 -5 -3 -9 -15 -9 -28 0 -29 -10 -39 -25 -26 -14 11 -45 3 -45 -11 0 -5
10 -19 22 -31 14 -14 18 -23 10 -26 -7 -2 -12 -11 -12 -20 0 -10 -13 -23 -30
-30 -34 -16 -40 -47 -10 -55 13 -3 18 -11 14 -20 -6 -15 -44 -12 -44 4 0 5 -5
9 -10 9 -6 0 -10 -6 -9 -12 7 -56 -9 -72 -43 -41 -21 19 -24 3 -5 -28 9 -17 9
-23 0 -26 -9 -3 -10 -10 -4 -21 21 -40 11 -122 -15 -122 -17 0 -19 -36 -1 -43
7 -3 5 -6 -5 -6 -22 -1 -35 -48 -19 -72 15 -25 14 -39 -4 -39 -8 0 -15 8 -15
17 0 13 -3 14 -12 5 -10 -10 -10 -17 1 -34 11 -18 11 -20 -4 -14 -12 4 -16 2
-12 -8 4 -10 0 -12 -15 -8 -19 5 -20 2 -14 -24 4 -16 12 -30 17 -32 12 -5 12
-32 0 -32 -6 0 -13 5 -16 11 -4 5 -19 9 -33 7 -23 -3 -27 0 -24 21 3 18 0 22
-12 18 -10 -4 -31 16 -69 66 -64 85 -93 147 -107 230 -11 70 -20 85 -20 34 0
-47 22 -128 54 -200 87 -197 318 -415 581 -549 181 -93 249 -115 382 -128 106
-10 133 -10 205 5 133 26 178 45 276 117 50 38 92 65 92 61 0 -8 -19 -39 -68
-116 -13 -21 -28 -37 -32 -37 -5 0 -11 -8 -15 -19 -3 -10 -26 -38 -50 -62 -39
-38 -43 -46 -29 -56 14 -10 13 -13 -5 -22 -12 -7 -18 -17 -15 -26 4 -10 0 -15
-10 -15 -9 0 -16 -6 -15 -13 5 -26 -15 -72 -40 -93 l-26 -23 23 -16 c12 -9 22
-22 22 -28 0 -7 -10 -17 -22 -22 -13 -6 -24 -20 -26 -32 -2 -13 -16 -28 -36
-37 -19 -9 -36 -25 -39 -37 -4 -15 -11 -20 -21 -16 -11 5 -16 0 -16 -14 0 -29
-18 -59 -35 -59 -17 0 -20 -16 -5 -22 5 -1 11 -23 14 -48 3 -44 2 -46 -62
-107 -43 -41 -60 -64 -51 -67 8 -2 20 -6 27 -8 20 -5 -36 -58 -62 -58 -18 0
-29 -10 -43 -37 -11 -21 -28 -40 -39 -42 -26 -5 -60 -43 -56 -64 2 -11 -5 -18
-22 -23 -14 -3 -26 -11 -26 -18 0 -16 -33 -43 -47 -39 -6 2 -14 -4 -17 -14 -3
-10 -26 -26 -51 -36 -25 -11 -45 -23 -45 -28 0 -5 -29 -23 -65 -41 -50 -24
-64 -35 -60 -48 5 -16 -29 -40 -59 -40 -7 0 -21 -9 -31 -20 -10 -11 -26 -20
-36 -20 -10 0 -20 -4 -23 -9 -7 -11 -95 -25 -151 -23 l-40 0 45 -10 c56 -12
492 -28 503 -18 10 9 -11 27 -37 31 -35 7 -29 28 11 38 97 27 200 109 280 223
30 43 84 110 119 148 34 38 70 84 80 102 9 18 38 62 64 98 121 166 176 280
205 426 11 57 24 97 38 111 38 42 47 30 48 -59 0 -46 3 -146 7 -223 9 -193 9
-668 -1 -791 l-8 -101 238 -13 c178 -9 248 -10 278 -1 54 15 100 14 159 -4 35
-11 97 -15 213 -15 159 0 196 8 131 26 -20 6 -33 16 -33 26 0 9 -4 20 -8 24
-4 4 -7 18 -7 31 0 12 -5 23 -11 23 -5 0 -9 8 -7 17 1 10 -16 56 -38 103 -76
161 -85 187 -85 262 0 15 -4 30 -9 33 -6 4 -10 13 -10 22 0 9 -7 25 -17 35
-15 17 -15 18 0 18 10 0 17 8 17 20 0 11 -4 20 -8 20 -11 0 -12 69 -1 76 5 3
2 18 -6 34 -12 22 -13 40 -6 72 5 24 9 95 10 158 1 63 5 178 9 254 4 77 4 194
0 260 -9 144 -2 309 17 426 27 164 86 452 105 510 6 19 24 89 39 155 46 191
80 324 106 410 13 44 35 127 48 185 14 58 28 113 32 123 5 12 3 17 -8 17 -19
0 -36 -21 -36 -45 -1 -43 -14 -85 -27 -85 -16 0 -18 22 -4 36 6 6 8 18 4 28
-5 13 -9 14 -20 5 -8 -6 -14 -17 -14 -24 0 -7 -7 -15 -15 -19 -11 -4 -14 -13
-9 -31 5 -19 2 -25 -10 -25 -9 0 -18 -12 -22 -27 -4 -16 -16 -36 -28 -45 -21
-17 -21 -17 -3 -48 18 -29 18 -30 0 -36 -37 -11 -47 -21 -56 -53 -7 -28 -12
-32 -33 -28 -29 5 -31 -4 -4 -23 11 -8 20 -18 20 -21 0 -15 -35 -14 -47 1 -6
8 -14 12 -18 8 -12 -11 5 -48 22 -48 14 0 14 -2 -1 -19 -10 -11 -13 -22 -8
-25 16 -10 1 -46 -19 -46 -10 0 -21 -5 -24 -10 -4 -6 -10 -8 -14 -6 -12 8 -32
-10 -35 -30 -2 -11 -13 -21 -27 -24 -37 -8 -71 -36 -69 -57 5 -39 1 -46 -15
-33 -8 7 -15 19 -15 26 0 8 -5 14 -11 14 -6 0 -9 -10 -7 -22 2 -15 17 -30 43
-43 31 -16 39 -25 37 -42 -4 -24 -12 -29 -27 -14 -14 12 -68 24 -61 13 3 -5
-6 -7 -20 -4 -14 2 -31 13 -37 23 -7 11 -19 19 -28 19 -12 0 -16 6 -12 20 3
11 0 20 -6 20 -6 0 -11 7 -11 15 0 8 7 15 15 15 8 0 15 5 15 10 0 6 -7 10 -15
10 -8 0 -15 -4 -15 -10 0 -5 -7 -10 -15 -10 -18 0 -19 -9 -5 -44 8 -21 7 -26
-6 -26 -9 0 -24 10 -35 23 -11 13 -18 17 -19 8 0 -9 -8 -11 -24 -7 -29 7 -76
-12 -76 -31 0 -9 15 -13 50 -13 35 0 50 -4 50 -13 0 -28 -35 -46 -97 -49 -35
-1 -63 -7 -63 -12 0 -5 -7 -17 -15 -26 -8 -9 -21 -34 -28 -55 -8 -21 -19 -41
-25 -43 -19 -6 -24 99 -19 419 6 319 15 416 61 605 22 90 55 332 61 441 8 167
36 352 66 446 11 31 19 62 19 67 0 5 -19 22 -42 36 -24 15 -65 47 -93 72 -27
24 -60 49 -72 55 -26 11 -106 116 -152 198 -34 61 -39 78 -16 59 8 -7 15 -19
15 -26 0 -8 4 -14 8 -14 11 0 2 160 -10 184 -8 15 -12 16 -19 5 -8 -12 -11
-12 -19 1 -7 11 -10 7 -10 -18 0 -52 -24 -34 -34 26 -9 53 -19 65 -30 36z
m-390 -1430 c15 -22 15 -27 3 -35 -26 -16 -39 -10 -39 19 0 25 7 42 16 42 2 0
11 -12 20 -26z m-86 -184 c0 -5 -2 -10 -4 -10 -3 0 -8 5 -11 10 -3 6 -1 10 4
10 6 0 11 -4 11 -10z m-150 -180 c0 -5 -4 -10 -10 -10 -5 0 -10 5 -10 10 0 6
5 10 10 10 6 0 10 -4 10 -10z m1766 -107 c-3 -3 -13 -3 -22 1 -13 5 -14 9 -3
22 11 14 13 14 22 -1 5 -9 6 -19 3 -22z m-136 -310 c8 -7 -23 -21 -37 -16 -7
3 -13 12 -13 20 0 10 6 12 23 7 12 -3 24 -8 27 -11z m-1820 -3 c0 -5 -4 -10
-10 -10 -5 0 -10 5 -10 10 0 6 5 10 10 10 6 0 10 -4 10 -10z m1640 -80 c0 -5
-5 -10 -11 -10 -5 0 -7 5 -4 10 3 6 8 10 11 10 2 0 4 -4 4 -10z m-2 -52 c15
-15 16 -38 2 -38 -5 0 -10 9 -10 19 0 11 -6 22 -12 24 -7 3 -8 6 -2 6 5 1 15
-4 22 -11z m-1683 -658 c3 -5 2 -10 -4 -10 -5 0 -13 5 -16 10 -3 6 -2 10 4 10
5 0 13 -4 16 -10z m-85 -160 c0 -5 -5 -10 -11 -10 -5 0 -7 5 -4 10 3 6 8 10
11 10 2 0 4 -4 4 -10z m622 -1152 c-15 -15 -26 -4 -18 18 5 13 9 15 18 6 9 -9
9 -15 0 -24z"/>
<path d="M21869 5182 c-7 -15 -15 -30 -17 -34 -2 -5 1 -8 6 -8 14 0 43 58 33
65 -5 2 -14 -8 -22 -23z"/>
<path d="M22185 5170 c3 -5 8 -10 11 -10 2 0 4 5 4 10 0 6 -5 10 -11 10 -5 0
-7 -4 -4 -10z"/>
<path d="M22055 5020 c3 -5 8 -10 11 -10 2 0 4 5 4 10 0 6 -5 10 -11 10 -5 0
-7 -4 -4 -10z"/>
<path d="M16054 4649 c-3 -6 -1 -16 5 -22 8 -8 11 -5 11 11 0 24 -5 28 -16 11z"/>
<path d="M22070 4415 c-10 -13 -9 -15 8 -15 15 0 20 5 16 15 -4 8 -7 15 -9 15
-1 0 -8 -7 -15 -15z"/>
<path d="M14010 4310 c0 -5 5 -10 10 -10 6 0 10 5 10 10 0 6 -4 10 -10 10 -5
0 -10 -4 -10 -10z"/>
<path d="M13992 4275 c4 -4 -2 -15 -14 -25 -16 -12 -19 -22 -13 -36 4 -10 9
-26 9 -34 1 -8 11 -16 22 -18 25 -3 32 14 30 73 -1 31 -5 41 -21 43 -11 2 -17
1 -13 -3z"/>
<path d="M22641 3971 c-12 -8 -12 -14 0 -45 19 -46 41 -35 32 17 -6 39 -9 42
-32 28z"/>
<path d="M19740 3860 c0 -11 7 -20 15 -20 17 0 18 2 9 24 -9 23 -24 20 -24 -4z"/>
<path d="M19870 3695 c0 -8 5 -15 10 -15 6 0 10 7 10 15 0 8 -4 15 -10 15 -5
0 -10 -7 -10 -15z"/>
<path d="M14950 3681 c0 -6 5 -13 10 -16 6 -3 10 1 10 9 0 9 -4 16 -10 16 -5
0 -10 -4 -10 -9z"/>
<path d="M19446 3656 c-3 -13 -17 -31 -31 -40 -14 -9 -25 -23 -25 -32 0 -8 -6
-17 -14 -20 -22 -8 -78 -94 -72 -109 3 -8 15 -15 26 -15 17 0 20 4 15 20 -5
15 -2 20 13 20 27 0 62 42 62 73 0 15 3 27 8 27 11 0 29 32 37 68 8 37 -10 45
-19 8z"/>
<path d="M19960 3630 c0 -5 5 -10 10 -10 6 0 10 5 10 10 0 6 -4 10 -10 10 -5
0 -10 -4 -10 -10z"/>
<path d="M19900 3623 c0 -16 16 -30 33 -30 21 0 21 4 3 23 -16 15 -36 19 -36
7z"/>
<path d="M19450 3575 c1 -26 2 -28 11 -12 8 14 8 22 0 30 -8 8 -11 3 -11 -18z"/>
<path d="M22190 3582 c0 -12 48 -52 61 -52 11 0 11 21 1 37 -10 16 -62 28 -62
15z"/>
<path d="M19820 3530 c0 -5 5 -10 10 -10 6 0 10 5 10 10 0 6 -4 10 -10 10 -5
0 -10 -4 -10 -10z"/>
<path d="M22211 3478 c5 -10 15 -18 21 -18 6 0 16 -7 23 -17 7 -9 17 -13 23
-9 24 15 11 34 -33 48 -42 14 -44 14 -34 -4z"/>
<path d="M20036 3410 c-3 -18 -6 -43 -6 -56 0 -27 -3 -28 -30 -14 -11 6 -21 6
-24 1 -7 -11 -18 -98 -20 -154 -1 -24 -7 -42 -17 -47 -14 -8 -15 -18 -8 -55 5
-25 13 -53 18 -63 5 -10 5 -39 0 -72 -6 -41 -5 -58 5 -68 9 -10 10 -25 4 -60
-21 -110 -21 -112 -4 -112 9 0 26 -9 38 -20 26 -24 34 -25 42 -4 5 14 4 15 -8
5 -12 -10 -16 -8 -21 10 -4 12 -3 24 2 28 4 3 14 18 20 34 11 22 10 27 -2 27
-12 0 -12 5 -1 38 8 20 22 52 32 70 13 22 16 35 8 40 -16 10 -26 62 -16 75 5
7 12 24 16 40 6 25 1 31 -24 29 -3 0 -4 17 -2 39 3 25 12 45 26 57 12 9 20 25
18 35 -2 10 3 17 12 17 21 0 20 18 -4 65 -11 22 -20 49 -20 61 0 12 -6 36 -14
54 l-13 32 -7 -32z"/>
<path d="M19767 3383 c-12 -11 -8 -23 7 -23 8 0 16 7 20 15 5 15 -14 21 -27 8z"/>
<path d="M19735 3340 c-3 -5 -1 -10 4 -10 6 0 11 5 11 10 0 6 -2 10 -4 10 -3
0 -8 -4 -11 -10z"/>
<path d="M22116 3341 c-6 -9 36 -41 54 -41 16 0 12 10 -12 31 -26 21 -34 23
-42 10z"/>
<path d="M19077 3253 c-4 -3 -7 -15 -7 -25 0 -10 -7 -18 -16 -18 -11 0 -14 -6
-9 -20 4 -14 -1 -27 -19 -44 -26 -23 -34 -46 -17 -46 6 0 13 5 16 10 3 6 13
10 21 10 12 0 12 -4 4 -20 -15 -28 0 -24 38 10 31 29 42 63 22 75 -6 3 -10 -5
-10 -18 0 -29 -28 -44 -37 -21 -3 9 -2 28 3 43 8 21 15 25 37 23 15 -2 27 1
27 7 0 6 -7 11 -15 11 -8 0 -15 7 -15 15 0 16 -12 20 -23 8z"/>
<path d="M19194 3249 c-18 -5 -34 -17 -37 -29 -6 -23 11 -27 19 -5 4 8 14 15
24 15 10 0 23 7 30 15 14 17 9 17 -36 4z"/>
<path d="M19136 3141 c-4 -7 -5 -15 -2 -18 9 -9 19 4 14 18 -4 11 -6 11 -12 0z"/>
<path d="M19680 3125 c-7 -9 -11 -18 -8 -20 3 -3 11 1 18 10 7 9 11 18 8 20
-3 3 -11 -1 -18 -10z"/>
<path d="M19617 3123 c-14 -13 -7 -33 11 -33 26 0 34 11 21 27 -13 14 -22 16
-32 6z"/>
<path d="M19520 2995 c12 -15 30 -12 30 6 0 5 -10 9 -21 9 -18 0 -19 -2 -9
-15z"/>
<path d="M19610 2994 c0 -8 5 -12 10 -9 6 3 10 10 10 16 0 5 -4 9 -10 9 -5 0
-10 -7 -10 -16z"/>
<path d="M14532 2960 c-10 -27 2 -40 20 -22 7 7 7 16 0 29 -10 17 -11 16 -20
-7z"/>
<path d="M19037 2974 c-11 -11 3 -24 24 -24 12 0 19 5 17 13 -5 14 -31 21 -41
11z"/>
<path d="M19575 2970 c-9 -14 1 -27 25 -33 23 -6 24 -3 10 24 -12 21 -25 25
-35 9z"/>
<path d="M18760 2951 c0 -5 7 -14 15 -21 12 -10 15 -10 15 3 0 8 -7 17 -15 21
-8 3 -15 2 -15 -3z"/>
<path d="M22120 2952 c0 -5 11 -18 25 -30 44 -38 64 -23 22 16 -23 22 -47 29
-47 14z"/>
<path d="M19732 2928 c-6 -6 -12 -19 -12 -27 0 -13 2 -13 16 1 9 9 15 21 13
27 -3 9 -8 8 -17 -1z"/>
<path d="M19450 2910 c0 -5 7 -10 16 -10 8 0 12 5 9 10 -3 6 -10 10 -16 10 -5
0 -9 -4 -9 -10z"/>
<path d="M19629 2892 c-15 -35 -67 -62 -80 -41 -6 10 -11 11 -19 3 -9 -9 -8
-18 1 -35 29 -55 31 -62 22 -68 -5 -3 -12 -14 -16 -24 -4 -10 -14 -17 -23 -15
-9 2 -18 -4 -20 -12 -1 -8 -12 -42 -24 -75 -37 -104 -34 -147 11 -165 37 -16
37 -33 -2 -61 -27 -19 -29 -24 -17 -33 25 -18 30 -52 13 -91 -18 -45 -18 -45
-1 -45 8 0 17 -7 20 -16 5 -13 9 -14 21 -4 12 10 15 9 16 -6 1 -11 4 -5 8 11
5 21 12 29 24 27 13 -2 17 4 17 27 0 37 -15 48 -30 21 -11 -20 -40 -28 -40
-11 0 6 8 16 18 23 10 7 28 30 40 51 18 31 21 47 16 90 -5 42 -3 56 10 66 17
15 22 81 6 81 -22 0 -8 41 27 75 l36 35 -26 0 c-20 0 -27 5 -27 19 0 26 27 48
42 33 20 -20 28 -13 21 19 -3 17 0 40 6 53 16 28 2 90 -21 94 -10 2 -21 -8
-29 -26z m-94 -292 c3 -5 -1 -10 -10 -10 -9 0 -13 5 -10 10 3 6 8 10 10 10 2
0 7 -4 10 -10z m17 -52 c-7 -7 -12 -8 -12 -2 0 14 12 26 19 19 2 -3 -1 -11 -7
-17z m-19 -161 c19 -10 23 -17 15 -30 -18 -32 -65 -8 -52 27 7 19 6 19 37 3z"/>
<path d="M16116 2892 c-2 -4 -1 -14 4 -21 11 -19 41 -6 34 14 -6 16 -29 20
-38 7z"/>
<path d="M14526 2832 c-3 -6 -1 -14 5 -17 15 -10 25 3 12 16 -7 7 -13 7 -17 1z"/>
<path d="M20393 2823 c-31 -6 -29 -23 3 -23 21 0 24 -4 19 -20 -4 -11 1 -32
12 -50 19 -33 26 -36 41 -17 8 10 6 16 -9 26 -17 10 -20 19 -15 46 5 25 3 34
-10 39 -8 3 -16 5 -17 5 -1 -1 -12 -4 -24 -6z"/>
<path d="M22035 2820 c-3 -5 -1 -10 4 -10 6 0 11 5 11 10 0 6 -2 10 -4 10 -3
0 -8 -4 -11 -10z"/>
<path d="M19485 2810 c-3 -5 -1 -10 4 -10 6 0 11 5 11 10 0 6 -2 10 -4 10 -3
0 -8 -4 -11 -10z"/>
<path d="M22065 2800 c4 -6 11 -8 16 -5 14 9 11 15 -7 15 -8 0 -12 -5 -9 -10z"/>
<path d="M14460 2757 c0 -15 4 -27 9 -27 17 0 19 15 5 35 -13 18 -14 18 -14
-8z"/>
<path d="M20394 2685 c-9 -22 15 -48 32 -34 7 6 10 17 8 24 -8 20 -34 27 -40
10z"/>
<path d="M20337 2663 c-4 -3 -7 -15 -7 -27 0 -20 0 -20 15 0 8 10 15 22 15 27
0 9 -14 9 -23 0z"/>
<path d="M20490 2635 c0 -9 5 -15 11 -13 6 2 11 8 11 13 0 5 -5 11 -11 13 -6
2 -11 -4 -11 -13z"/>
<path d="M21000 2641 c0 -10 51 -22 63 -14 4 2 5 9 2 14 -8 12 -65 12 -65 0z"/>
<path d="M20380 2610 c0 -19 3 -21 12 -12 9 9 9 15 0 24 -9 9 -12 7 -12 -12z"/>
<path d="M20570 2604 c0 -8 5 -12 10 -9 6 3 10 10 10 16 0 5 -4 9 -10 9 -5 0
-10 -7 -10 -16z"/>
<path d="M20646 2593 c-3 -3 -3 -10 0 -14 7 -12 34 -11 34 0 0 11 -26 22 -34
14z"/>
<path d="M19025 2560 c7 -23 65 -98 65 -85 0 12 -23 50 -48 80 -24 29 -25 29
-17 5z"/>
<path d="M21150 2570 c-8 -5 -10 -10 -5 -10 6 0 2 -7 -9 -15 -10 -7 -15 -18
-11 -24 8 -14 48 -14 62 0 8 8 13 8 17 0 10 -16 26 -13 26 4 0 10 -10 15 -31
15 -26 0 -29 3 -24 20 7 22 -2 25 -25 10z"/>
<path d="M20570 2550 c0 -5 5 -10 11 -10 5 0 7 5 4 10 -3 6 -8 10 -11 10 -2 0
-4 -4 -4 -10z"/>
<path d="M20786 2552 c-3 -6 -1 -14 5 -17 15 -10 25 3 12 16 -7 7 -13 7 -17 1z"/>
<path d="M20207 2544 c-14 -14 -7 -21 17 -17 17 4 25 0 29 -14 4 -15 5 -14 6
5 0 12 -3 22 -8 22 -5 0 -16 2 -23 5 -8 3 -17 2 -21 -1z"/>
<path d="M20335 2500 c-7 -12 2 -30 16 -30 5 0 9 9 9 20 0 21 -15 27 -25 10z"/>
<path d="M20490 2498 c0 -6 -7 -19 -14 -27 -17 -19 -4 -53 13 -36 16 16 26 75
12 75 -6 0 -11 -5 -11 -12z"/>
<path d="M20701 2484 c0 -11 3 -14 6 -6 3 7 2 16 -1 19 -3 4 -6 -2 -5 -13z"/>
<path d="M20183 2474 c-17 -17 -16 -24 1 -24 15 0 30 27 18 34 -4 2 -13 -2
-19 -10z"/>
<path d="M21204 2464 c3 -9 6 -20 6 -25 0 -15 27 -10 34 7 11 27 7 34 -20 34
-20 0 -25 -4 -20 -16z"/>
<path d="M20727 2463 c-7 -11 22 -78 29 -70 3 3 2 12 -2 19 -5 7 -7 20 -6 30
3 17 -13 33 -21 21z"/>
<path d="M20680 2436 c0 -8 -6 -16 -12 -19 -7 -2 -10 -8 -5 -12 4 -5 14 0 22
11 17 23 19 34 5 34 -5 0 -10 -6 -10 -14z"/>
<path d="M20830 2442 c0 -12 23 -42 31 -42 6 0 24 -9 40 -21 39 -27 69 -18 69
22 0 21 -5 29 -18 29 -10 0 -22 3 -26 8 -7 7 -96 11 -96 4z"/>
<path d="M21240 2416 c-32 -12 -33 -13 -11 -19 26 -7 71 7 71 23 0 13 -16 12
-60 -4z"/>
<path d="M21940 2416 c0 -9 7 -16 16 -16 9 0 14 5 12 12 -6 18 -28 21 -28 4z"/>
<path d="M20785 2400 c-3 -5 -1 -10 4 -10 6 0 11 5 11 10 0 6 -2 10 -4 10 -3
0 -8 -4 -11 -10z"/>
<path d="M19160 2370 c0 -10 28 -59 40 -70 3 -3 14 -18 24 -35 11 -16 21 -25
23 -18 4 10 -74 133 -83 133 -2 0 -4 -5 -4 -10z"/>
<path d="M21314 2365 c11 -8 27 -15 35 -15 13 1 12 4 -3 15 -11 8 -27 15 -35
15 -13 -1 -12 -4 3 -15z"/>
<path d="M21020 2360 c0 -5 7 -10 15 -10 8 0 15 5 15 10 0 6 -7 10 -15 10 -8
0 -15 -4 -15 -10z"/>
<path d="M14325 2350 c-8 -13 15 -24 27 -12 6 6 4 11 -6 15 -8 3 -18 2 -21 -3z"/>
<path d="M20677 2328 c-8 -18 -18 -49 -21 -68 -4 -19 -16 -44 -27 -56 -13 -14
-17 -24 -10 -29 6 -3 11 -1 11 4 0 6 9 11 20 11 12 0 20 7 20 16 0 13 7 15 34
10 44 -8 64 13 36 37 -11 9 -27 17 -35 17 -18 0 -21 50 -4 67 7 7 7 13 0 17
-5 4 -16 -8 -24 -26z"/>
<path d="M20496 2342 c-8 -13 9 -75 21 -79 7 -3 9 3 6 15 -2 11 0 23 6 26 19
12 13 46 -8 46 -11 0 -22 -3 -25 -8z"/>
<path d="M20785 2283 c2 -50 19 -69 28 -32 5 19 -16 79 -27 79 -2 0 -3 -21 -1
-47z"/>
<path d="M20836 2315 c4 -8 10 -15 15 -15 5 0 9 7 9 15 0 8 -7 15 -15 15 -9 0
-12 -6 -9 -15z"/>
<path d="M20275 2300 c-3 -5 -1 -10 4 -10 6 0 11 5 11 10 0 6 -2 10 -4 10 -3
0 -8 -4 -11 -10z"/>
<path d="M20353 2299 c-7 -7 -13 -23 -13 -36 0 -13 -5 -23 -11 -23 -19 0 0
-18 27 -24 18 -5 30 -3 35 6 13 21 10 38 -5 32 -11 -4 -16 3 -18 26 -2 25 -5
29 -15 19z"/>
<path d="M21947 2273 c-13 -13 -7 -23 16 -24 17 -1 18 -2 4 -6 -20 -5 -18 -27
4 -31 9 -2 15 7 16 25 1 33 -22 54 -40 36z"/>
<path d="M20850 2255 c0 -15 26 -32 36 -23 2 3 2 13 -2 22 -8 20 -34 21 -34 1z"/>
<path d="M20992 2233 c2 -10 14 -19 26 -21 22 -3 23 -3 5 17 -21 26 -36 27
-31 4z"/>
<path d="M20895 2230 c-6 -10 15 -50 27 -50 5 0 8 14 8 30 0 29 -21 42 -35 20z"/>
<path d="M20550 2210 c0 -11 6 -20 14 -20 21 0 31 21 15 31 -22 14 -29 11 -29
-11z"/>
<path d="M20795 2210 c-3 -5 -1 -10 4 -10 6 0 11 5 11 10 0 6 -2 10 -4 10 -3
0 -8 -4 -11 -10z"/>
<path d="M20840 2189 c0 -18 2 -19 15 -9 15 12 12 30 -6 30 -5 0 -9 -10 -9
-21z"/>
<path d="M20970 2197 c0 -2 14 -16 30 -32 23 -22 30 -25 30 -12 0 9 -13 23
-30 32 -16 9 -30 14 -30 12z"/>
<path d="M20755 2180 c-3 -5 1 -10 9 -10 9 0 16 5 16 10 0 6 -4 10 -9 10 -6 0
-13 -4 -16 -10z"/>
<path d="M19290 2172 c0 -5 7 -15 15 -22 8 -7 15 -8 15 -2 0 5 -7 15 -15 22
-8 7 -15 8 -15 2z"/>
<path d="M20326 2171 c-4 -5 -2 -12 3 -15 5 -4 12 -2 15 3 4 5 2 12 -3 15 -5
4 -12 2 -15 -3z"/>
<path d="M20520 2144 c0 -8 5 -12 10 -9 6 3 10 10 10 16 0 5 -4 9 -10 9 -5 0
-10 -7 -10 -16z"/>
<path d="M21090 2156 c0 -3 23 -46 50 -97 28 -51 50 -96 50 -100 0 -4 -20 -24
-45 -45 -34 -27 -44 -42 -40 -55 10 -30 -17 -23 -45 11 -29 35 -40 38 -33 10
6 -23 -15 -28 -23 -5 -4 8 -17 15 -30 15 -15 0 -24 -6 -24 -15 0 -9 -10 -15
-26 -15 -20 0 -24 -4 -20 -18 6 -17 -60 -132 -75 -132 -3 0 -18 11 -34 25 -21
20 -30 23 -41 14 -8 -6 -14 -19 -14 -28 0 -9 -5 -22 -11 -28 -8 -8 -6 -16 7
-31 18 -22 44 -19 44 4 0 8 9 14 20 14 11 0 20 4 20 9 0 5 21 12 46 16 45 6
110 38 129 62 6 8 21 12 35 11 21 -3 24 1 22 19 -3 21 0 22 48 18 36 -3 59 0
73 10 12 8 36 15 53 15 36 0 58 21 50 47 -4 10 -20 33 -36 52 -17 18 -30 35
-30 37 0 12 86 -36 106 -59 51 -60 16 -112 -123 -183 -51 -25 -93 -50 -93 -53
0 -4 -21 -17 -47 -29 -27 -12 -66 -33 -88 -46 -29 -17 -44 -21 -53 -14 -9 8
-23 0 -54 -31 -23 -23 -48 -39 -55 -37 -9 4 -13 -4 -13 -24 0 -30 -28 -65 -62
-76 -10 -3 -18 -12 -18 -20 0 -8 -6 -14 -14 -14 -23 0 -31 -22 -13 -35 10 -7
17 -22 17 -34 0 -38 27 -22 41 24 13 42 29 61 29 32 0 -7 9 -18 20 -25 18 -11
21 -8 40 33 25 55 40 58 40 6 0 -36 -3 -40 -27 -43 -22 -2 -28 -8 -26 -25 3
-27 -13 -30 -38 -7 -15 14 -19 13 -38 -12 -26 -33 -26 -44 -1 -51 18 -5 17 -8
-12 -37 -26 -25 -28 -32 -14 -34 9 -2 33 6 52 17 56 34 79 25 52 -19 -16 -25
-1 -41 16 -17 7 9 16 17 20 17 12 0 55 -52 72 -88 4 -7 -1 -21 -10 -31 -21
-23 -20 -31 2 -31 21 0 52 30 52 50 0 7 8 19 18 26 14 10 15 16 5 32 -14 23
-6 37 13 21 7 -6 17 -8 22 -5 9 5 26 63 24 78 -1 3 5 12 13 18 11 9 15 9 15 1
0 -37 86 32 97 78 3 14 13 38 22 54 13 24 16 25 22 10 5 -14 11 -8 28 26 11
25 21 51 21 58 0 7 4 13 8 13 5 0 14 10 21 23 6 12 23 37 36 56 20 27 26 30
31 17 3 -9 3 -23 0 -32 -3 -8 -2 -23 4 -33 6 -13 2 -39 -16 -92 -14 -41 -30
-78 -35 -84 -5 -5 -9 -16 -9 -25 0 -8 -11 -28 -25 -44 -14 -16 -25 -37 -25
-46 0 -10 -7 -23 -15 -30 -8 -7 -15 -21 -15 -31 0 -10 -4 -20 -9 -24 -6 -3
-28 -39 -50 -79 -23 -41 -49 -80 -58 -87 -17 -15 -76 -91 -130 -168 -18 -25
-40 -46 -50 -46 -12 0 -17 -7 -15 -19 3 -13 -1 -17 -12 -13 -8 3 -18 2 -21 -3
-4 -6 -2 -10 3 -10 5 0 12 -10 15 -21 6 -23 -15 -47 -65 -74 -16 -9 -28 -20
-28 -26 0 -5 -17 -27 -37 -48 -63 -63 -65 -67 -42 -87 16 -14 20 -15 17 -4 -4
21 33 13 50 -11 17 -24 34 -24 50 1 17 28 30 25 24 -5 -2 -14 -26 -47 -53 -73
-27 -26 -49 -51 -49 -57 0 -5 8 -20 18 -33 15 -20 23 -21 65 -16 30 4 47 12
47 20 0 18 18 18 36 -1 12 -12 42 -15 135 -15 l120 0 20 47 c21 49 41 119 84
288 14 55 33 123 42 150 15 49 22 80 43 220 6 39 17 82 26 98 8 15 13 36 9 46
-3 11 -1 22 5 26 6 4 10 -9 10 -34 0 -23 5 -41 10 -41 6 0 10 -9 10 -20 0 -11
-7 -20 -15 -20 -11 0 -15 -13 -15 -53 0 -30 -6 -62 -14 -72 -12 -17 -12 -21 2
-31 12 -9 14 -15 5 -25 -6 -8 -14 -31 -18 -51 -4 -21 -12 -38 -17 -38 -6 0 -8
-10 -5 -22 9 -38 -33 -212 -64 -266 -10 -18 -19 -40 -19 -48 0 -8 -6 -27 -14
-42 -7 -15 -16 -42 -19 -59 l-6 -33 72 0 c72 1 255 14 377 28 71 8 74 13 51
77 -22 62 -61 197 -61 212 0 8 29 56 64 107 72 104 104 164 135 256 13 36 28
72 35 80 28 33 65 129 76 197 7 40 16 76 21 79 5 3 7 10 3 15 -3 5 -10 7 -15
4 -18 -12 -9 25 12 44 22 20 12 36 -15 25 -20 -8 -20 4 -1 50 12 28 13 41 4
57 -6 12 -9 30 -6 40 6 21 -8 26 -16 7 -4 -8 -8 -4 -12 10 -4 12 -12 22 -19
22 -6 0 -3 7 8 15 18 14 18 16 -7 68 -19 41 -32 56 -52 59 -20 4 -25 2 -23
-10 5 -25 -35 -62 -58 -56 -12 3 -26 -1 -33 -9 -6 -8 -21 -13 -31 -10 -11 3
-20 1 -20 -5 0 -5 7 -9 16 -8 9 0 20 -9 25 -21 5 -14 5 -23 -1 -23 -6 0 -10
-9 -10 -21 0 -14 -5 -19 -17 -17 -12 2 -17 11 -15 25 2 12 -4 23 -14 27 -13 5
-15 14 -10 46 6 39 5 40 -34 57 -33 15 -40 23 -40 45 0 21 -9 34 -38 53 -22
14 -45 37 -53 52 -17 32 -165 153 -187 153 -10 0 -30 9 -47 20 -16 11 -37 20
-46 20 -8 0 -26 11 -39 25 -13 14 -30 25 -37 25 -8 0 -31 11 -51 25 -35 24
-52 30 -52 21z m413 -395 c9 -16 17 -33 17 -38 -1 -9 -26 21 -41 50 -17 29 6
19 24 -12z m-7 -215 c13 -55 14 -73 5 -88 -7 -11 -12 -42 -13 -69 0 -66 -21
-64 -36 2 -10 42 -10 56 1 73 24 36 26 78 6 141 -18 59 -18 60 1 35 10 -14 27
-56 36 -94z m64 48 c0 -7 4 -14 9 -16 27 -10 163 -207 153 -222 -3 -5 -12 4
-20 22 -16 34 -42 50 -42 27 0 -8 -6 -15 -14 -15 -23 0 -28 -17 -16 -53 8 -21
9 -43 3 -67 l-9 -35 -17 35 c-9 19 -16 44 -16 55 1 37 -12 140 -21 160 -4 11
-20 49 -35 85 -40 97 -41 97 -7 66 18 -17 32 -35 32 -42z m260 -9 c10 -12 10
-15 -4 -15 -9 0 -16 7 -16 15 0 8 2 15 4 15 2 0 9 -7 16 -15z m-750 -95 c0 -5
-4 -10 -10 -10 -5 0 -10 5 -10 10 0 6 5 10 10 10 6 0 10 -4 10 -10z m-60 -27
c0 -5 -5 -15 -11 -23 -8 -11 -12 -12 -16 -2 -7 17 -23 15 -23 -3 0 -8 -4 -15
-9 -15 -5 0 -11 -13 -14 -30 -6 -30 -27 -42 -27 -16 0 23 29 84 42 89 20 8 58
8 58 0z m70 -34 c0 -12 -29 -38 -42 -39 -12 0 -9 25 4 38 15 15 38 16 38 1z
m-16 -77 c-15 -31 -34 -43 -34 -22 0 6 4 10 8 10 5 0 15 11 22 25 19 36 23 24
4 -13z m386 -38 c0 -8 -5 -12 -10 -9 -6 4 -8 11 -5 16 9 14 15 11 15 -7z
m-442 -27 c2 -10 -3 -17 -12 -17 -18 0 -29 16 -21 31 9 14 29 6 33 -14z m-115
6 c8 -7 -21 -43 -34 -43 -5 0 -3 11 3 25 11 26 19 30 31 18z m47 -7 c0 -3 -4
-8 -10 -11 -5 -3 -10 -1 -10 4 0 6 5 11 10 11 6 0 10 -2 10 -4z m530 -35 c0
-19 -22 -23 -38 -7 -15 15 -14 16 11 16 15 0 27 -4 27 -9z m-564 -36 c-26 -19
-42 -19 -26 0 7 8 20 15 29 15 13 -1 13 -3 -3 -15z m525 -28 c-8 -8 -11 -7
-11 4 0 20 13 34 18 19 3 -7 -1 -17 -7 -23z m-530 -846 c-38 -38 -44 -18 -8
23 15 18 23 21 25 11 2 -7 -6 -23 -17 -34z m73 -36 c-6 -16 -24 -21 -24 -7 0
11 11 22 21 22 5 0 6 -7 3 -15z"/>
<path d="M21616 1424 c-9 -23 -7 -34 4 -34 6 0 10 7 10 15 0 8 5 15 11 15 5 0
7 5 4 10 -9 15 -22 12 -29 -6z"/>
<path d="M20680 2104 c0 -14 3 -14 15 -4 8 7 15 14 15 16 0 2 -7 4 -15 4 -8 0
-15 -7 -15 -16z"/>
<path d="M19340 2095 c0 -8 4 -15 10 -15 5 0 7 7 4 15 -4 8 -8 15 -10 15 -2 0
-4 -7 -4 -15z"/>
<path d="M20770 2103 c-14 -2 -38 -9 -53 -15 -23 -9 -27 -15 -23 -35 6 -21 3
-23 -30 -23 -31 0 -35 -2 -24 -15 10 -13 9 -19 -6 -38 -11 -12 -25 -27 -33
-33 -8 -6 -11 -16 -7 -22 10 -17 26 -15 33 6 16 46 63 70 63 33 0 -11 5 -23
10 -26 7 -4 6 -13 -1 -26 -15 -29 -2 -37 22 -13 18 19 19 22 4 50 -18 35 -19
48 -2 77 25 46 42 48 51 5 7 -32 8 -32 22 -13 8 11 12 25 10 32 -3 7 -1 13 5
13 13 0 7 43 -6 45 -5 1 -21 0 -35 -2z"/>
<path d="M20877 2103 c-4 -3 -7 -11 -7 -17 0 -6 5 -5 12 2 6 6 9 14 7 17 -3 3
-9 2 -12 -2z"/>
<path d="M21054 2066 c-3 -7 -4 -17 -3 -22 1 -5 -3 -22 -9 -37 -17 -40 -15
-59 5 -55 19 4 31 35 32 91 1 36 -14 51 -25 23z"/>
<path d="M20590 2060 c0 -5 -7 -10 -15 -10 -20 0 -19 -24 1 -41 20 -16 33 1
26 37 -4 24 -12 33 -12 14z"/>
<path d="M20910 2060 c-9 -6 -10 -10 -3 -10 6 0 15 5 18 10 8 12 4 12 -15 0z"/>
<path d="M20992 2050 c-6 -11 -18 -17 -26 -14 -12 5 -32 -37 -28 -58 1 -4 -7
-24 -18 -43 -21 -37 -26 -65 -12 -65 19 0 51 32 46 45 -4 8 -1 15 6 15 18 0
39 31 40 57 0 12 5 25 10 28 12 7 14 55 2 55 -4 0 -13 -9 -20 -20z"/>
<path d="M20437 2023 c-4 -3 -7 -13 -7 -21 0 -12 3 -12 15 -2 8 7 15 16 15 21
0 11 -14 12 -23 2z"/>
<path d="M20890 2020 c-8 -4 -30 -14 -48 -21 -24 -9 -31 -16 -26 -28 16 -39
15 -48 -5 -54 -13 -3 -21 -13 -21 -25 0 -11 -12 -29 -27 -40 -31 -23 -26 -52
10 -52 21 0 23 -4 19 -31 -4 -26 -2 -30 14 -27 15 3 19 13 20 51 1 26 -2 47
-6 47 -5 0 -5 12 -1 28 10 35 35 35 39 0 2 -19 8 -25 18 -21 11 4 12 8 3 20
-9 10 -9 17 -1 25 7 7 12 21 12 33 0 12 7 30 15 41 15 20 20 64 8 63 -5 0 -15
-4 -23 -9z"/>
<path d="M19411 1993 c7 -12 15 -20 18 -17 3 2 -3 12 -13 22 -17 16 -18 16 -5
-5z"/>
<path d="M20518 1965 c-3 -14 -2 -28 2 -30 11 -7 43 32 35 44 -11 20 -33 11
-37 -14z"/>
<path d="M20725 1981 c-10 -17 12 -21 25 -6 10 12 10 15 -3 15 -9 0 -18 -4
-22 -9z"/>
<path d="M23036 1959 c-16 -12 -35 -37 -42 -55 -13 -30 -12 -41 10 -111 37
-117 51 -210 44 -285 -2 -29 -21 -21 -73 32 -72 72 -77 69 -73 -52 2 -57 -1
-119 -5 -139 -8 -32 -5 -38 31 -75 45 -45 141 -174 165 -221 10 -18 17 -55 17
-82 l0 -50 34 1 c27 1 42 -6 64 -29 41 -45 121 -65 156 -40 17 13 17 16 -12
73 -28 56 -82 225 -97 304 -7 37 -32 134 -91 345 -26 93 -39 169 -47 265 -11
124 -14 135 -33 138 -11 2 -33 -7 -48 -19z"/>
<path d="M20641 1916 c-12 -14 -11 -19 3 -34 9 -10 16 -26 16 -36 0 -10 6 -16
13 -14 18 7 21 40 4 53 -8 6 -16 19 -18 29 -4 18 -5 18 -18 2z"/>
<path d="M20547 1810 c-4 -16 -1 -20 11 -18 19 4 23 29 6 35 -6 2 -14 -6 -17
-17z"/>
<path d="M23304 1816 c-3 -8 8 -57 25 -108 17 -51 44 -148 61 -216 17 -67 40
-143 51 -168 16 -39 72 -129 90 -144 3 -3 20 -31 38 -62 27 -48 31 -62 23 -90
-7 -27 -15 -34 -48 -43 -55 -14 -60 -19 -73 -71 -9 -36 -9 -49 1 -61 12 -15
28 -15 155 3 37 5 47 2 75 -21 l33 -28 3 162 2 162 -60 117 c-33 64 -60 121
-60 125 0 14 -161 333 -198 392 -34 54 -41 60 -75 63 -26 2 -39 -1 -43 -12z"/>
<path d="M20485 1790 c-9 -15 4 -30 26 -30 24 0 24 12 -1 27 -12 8 -21 9 -25
3z"/>
<path d="M13712 1655 c-14 -31 -15 -62 -3 -70 13 -7 17 2 26 53 8 47 -5 56
-23 17z"/>
<path d="M20627 1653 c-12 -12 -7 -22 8 -17 8 4 15 10 15 15 0 11 -14 12 -23
2z"/>
<path d="M22040 1624 c0 -22 7 -49 15 -60 13 -18 14 -17 14 16 0 19 -6 46 -14
60 -14 25 -14 25 -15 -16z"/>
<path d="M19032 1599 c-11 -32 -5 -148 9 -165 7 -9 7 -19 0 -32 -11 -21 -9
-97 4 -125 4 -10 3 -28 -2 -40 -6 -14 -5 -63 3 -137 7 -63 13 -143 13 -177 1
-34 5 -72 10 -86 5 -13 12 -88 16 -168 3 -79 13 -175 21 -214 8 -38 16 -83 18
-100 3 -16 9 -48 16 -70 10 -35 27 -107 34 -143 5 -28 27 -33 162 -33 76 0
186 -6 244 -14 81 -11 297 -26 425 -30 6 0 13 24 17 54 l6 54 -64 79 c-84 103
-88 110 -139 227 -42 97 -98 180 -121 181 -6 0 -19 -9 -29 -20 -10 -11 -15
-20 -12 -20 4 0 -4 -20 -18 -44 -24 -43 -24 -44 -5 -61 26 -23 25 -27 -6 -59
-22 -21 -24 -28 -14 -41 10 -12 10 -21 0 -45 -7 -17 -10 -33 -7 -36 3 -3 1
-19 -4 -36 -5 -20 -5 -36 1 -43 7 -9 5 -16 -5 -25 -8 -7 -15 -18 -14 -24 3
-28 -4 -36 -47 -56 -56 -24 -63 -24 -112 -5 -38 16 -39 16 -52 96 -10 67 -10
83 0 89 11 7 11 11 1 24 -10 12 -8 17 10 26 15 9 18 14 10 20 -7 4 -14 13 -15
21 -2 8 -7 23 -11 33 -6 13 -3 23 8 31 10 7 17 22 17 33 0 11 4 23 8 26 12 7
-2 91 -17 110 -10 12 -8 17 9 26 12 7 18 16 13 23 -11 17 -13 69 -3 87 6 10 3
21 -7 33 -19 20 -10 35 11 18 12 -10 17 -8 26 10 11 20 11 21 -15 15 -22 -6
-26 -4 -22 8 4 10 -5 24 -24 39 -27 21 -29 25 -18 55 6 18 9 50 7 72 -2 22 0
40 4 40 16 0 7 27 -32 105 -47 90 -239 382 -275 415 l-24 23 -9 -24z"/>
<path d="M20505 1610 c-3 -5 -1 -10 4 -10 6 0 11 5 11 10 0 6 -2 10 -4 10 -3
0 -8 -4 -11 -10z"/>
<path d="M20499 1553 c-13 -15 -12 -15 9 -4 23 12 28 21 13 21 -5 0 -15 -7
-22 -17z"/>
<path d="M20755 1530 c-3 -5 1 -10 10 -10 9 0 13 5 10 10 -3 6 -8 10 -10 10
-2 0 -7 -4 -10 -10z"/>
<path d="M20702 1488 c-7 -7 -12 -17 -12 -24 0 -6 -7 -14 -15 -18 -8 -3 -15
-10 -15 -16 0 -20 26 -9 58 24 26 28 29 35 16 40 -20 8 -18 8 -32 -6z"/>
<path d="M20593 1319 c-7 -9 -9 -20 -3 -29 12 -19 22 -7 18 21 -2 19 -5 20
-15 8z"/>
<path d="M20526 1235 c4 -8 10 -15 15 -15 5 0 9 7 9 15 0 8 -7 15 -15 15 -9 0
-12 -6 -9 -15z"/>
<path d="M20440 1230 c0 -5 5 -10 10 -10 6 0 10 5 10 10 0 6 -4 10 -10 10 -5
0 -10 -4 -10 -10z"/>
<path d="M20581 1221 c-7 -5 -12 -14 -10 -20 2 -6 10 -2 17 9 14 22 13 23 -7
11z"/>
<path d="M20650 1210 c0 -5 5 -10 10 -10 6 0 10 5 10 10 0 6 -4 10 -10 10 -5
0 -10 -4 -10 -10z"/>
<path d="M20745 1161 c-3 -5 4 -12 15 -16 26 -8 26 -41 0 -48 -11 -3 -20 -10
-20 -16 0 -17 18 -13 40 9 19 19 19 22 5 50 -16 30 -29 37 -40 21z"/>
<path d="M20695 1150 c-3 -5 -1 -10 4 -10 6 0 11 5 11 10 0 6 -2 10 -4 10 -3
0 -8 -4 -11 -10z"/>
<path d="M20635 1120 c-3 -5 1 -10 9 -10 8 0 18 5 21 10 3 6 -1 10 -9 10 -8 0
-18 -4 -21 -10z"/>
<path d="M20710 1120 c-8 -5 -12 -12 -9 -15 8 -8 39 5 39 16 0 11 -11 11 -30
-1z"/>
<path d="M20837 1066 c-15 -22 -15 -25 0 -30 18 -7 16 -8 32 21 14 28 14 33
-3 33 -7 0 -21 -11 -29 -24z"/>
<path d="M20571 1054 c0 -11 3 -14 6 -6 3 7 2 16 -1 19 -3 4 -6 -2 -5 -13z"/>
<path d="M20380 1050 c0 -5 5 -10 11 -10 5 0 7 5 4 10 -3 6 -8 10 -11 10 -2 0
-4 -4 -4 -10z"/>
<path d="M20626 1005 c4 -8 10 -12 15 -9 14 8 10 24 -6 24 -9 0 -12 -6 -9 -15z"/>
<path d="M20700 991 c0 -5 7 -14 15 -21 8 -7 15 -20 15 -30 0 -13 5 -17 21
-13 14 4 17 8 9 13 -7 4 -9 16 -6 28 5 15 1 21 -16 26 -31 8 -38 7 -38 -3z"/>
<path d="M20585 979 c-4 -6 -4 -13 -1 -16 8 -8 36 5 36 17 0 13 -27 13 -35 -1z"/>
<path d="M20567 936 c-4 -10 -5 -21 -2 -24 9 -9 17 6 13 25 -3 17 -4 17 -11
-1z"/>
<path d="M20460 924 c0 -14 3 -14 15 -4 8 7 15 14 15 16 0 2 -7 4 -15 4 -8 0
-15 -7 -15 -16z"/>
<path d="M20482 898 c-7 -7 -12 -16 -12 -20 0 -11 31 -10 49 1 11 7 10 11 -6
19 -14 8 -23 8 -31 0z"/>
<path d="M20680 890 c0 -12 45 -24 60 -15 5 3 8 11 5 16 -8 12 -65 12 -65 -1z"/>
<path d="M20535 840 c-10 -17 12 -37 25 -24 8 8 6 15 -4 23 -10 9 -16 9 -21 1z"/>
<path d="M20415 710 c-3 -5 1 -10 9 -10 9 0 16 5 16 10 0 6 -4 10 -9 10 -6 0
-13 -4 -16 -10z"/>
<path d="M20342 661 c13 -15 25 -27 26 -25 6 4 -32 53 -41 54 -5 0 2 -13 15
-29z"/>
<path d="M20720 608 c-13 -18 -23 -42 -22 -54 1 -15 -5 -24 -20 -27 -18 -5
-19 -8 -8 -21 15 -20 30 -21 30 -3 0 8 9 22 19 31 11 10 22 30 26 44 3 15 8
35 11 45 8 27 -10 20 -36 -15z"/>
<path d="M20612 534 c-25 -17 -30 -54 -7 -54 9 0 18 8 22 18 3 9 13 25 21 35
13 14 13 17 1 17 -8 0 -25 -7 -37 -16z"/>
<path d="M20470 486 c0 -2 8 -10 18 -17 15 -13 16 -12 3 4 -13 16 -21 21 -21
13z"/>
<path d="M20625 464 c-14 -22 -15 -28 -4 -35 9 -5 21 -1 34 11 18 18 18 21 4
36 -14 14 -18 13 -34 -12z"/>
<path d="M18996 457 c-20 -15 -30 -18 -33 -10 -5 15 -61 6 -84 -13 -8 -8 -22
-14 -31 -14 -15 0 -68 -43 -68 -55 0 -10 -34 -40 -62 -54 -15 -8 -38 -11 -52
-7 -19 5 -29 1 -38 -14 -7 -11 -22 -20 -34 -20 -11 0 -31 -11 -44 -25 -26 -28
-50 -33 -50 -10 0 22 -17 18 -23 -6 -3 -12 -10 -18 -16 -14 -15 8 -51 -3 -51
-17 0 -17 119 0 255 37 132 35 187 45 206 35 10 -6 35 -10 57 -10 44 0 105
-36 167 -99 34 -36 65 -52 65 -36 0 3 -11 31 -24 63 -13 31 -38 103 -56 159
-41 131 -46 138 -84 110z"/>
<path d="M20520 425 c0 -10 43 -65 52 -65 14 0 8 25 -10 41 -25 21 -42 31 -42
24z"/>
<path d="M18710 340 c0 -5 5 -10 10 -10 6 0 10 5 10 10 0 6 -4 10 -10 10 -5 0
-10 -4 -10 -10z"/>
<path d="M20621 310 c0 -8 8 -26 19 -38 17 -20 24 -22 47 -14 l28 10 -25 1
c-30 1 -43 9 -58 36 -8 14 -11 15 -11 5z"/>
<path d="M20725 280 c-3 -5 -1 -10 4 -10 6 0 11 5 11 10 0 6 -2 10 -4 10 -3 0
-8 -4 -11 -10z"/>
<path d="M21080 170 c-10 -7 13 -10 73 -10 56 0 86 4 82 10 -8 13 -135 13
-155 0z"/>
<path d="M21010 120 c0 -5 18 -10 40 -10 22 0 40 5 40 10 0 6 -18 10 -40 10
-22 0 -40 -4 -40 -10z"/>
<path d="M22930 127 c-3 -3 -52 -8 -110 -11 -58 -4 -139 -11 -180 -16 -41 -5
-151 -17 -245 -26 -93 -9 -190 -20 -215 -26 -25 -5 -54 -11 -65 -13 -52 -8
-184 -26 -215 -29 -19 -1 222 -4 537 -4 314 -1 574 2 577 7 3 4 -3 25 -14 47
-11 21 -19 45 -17 54 1 9 -7 16 -23 18 -14 2 -28 1 -30 -1z m-47 -44 c-7 -2
-21 -2 -30 0 -10 3 -4 5 12 5 17 0 24 -2 18 -5z"/>
<path d="M20885 110 c3 -5 15 -10 26 -10 10 0 19 5 19 10 0 6 -12 10 -26 10
-14 0 -23 -4 -19 -10z"/>
<path d="M21634 34 c-6 -3 -40 -11 -75 -19 l-64 -13 98 -1 c95 -1 109 3 85 27
-12 12 -25 14 -44 6z"/>
</g>
</svg>
